<svg width="64" height="64" viewBox="0 0 64 64" fill="none" xmlns="http://www.w3.org/2000/svg">
<g clip-path="url(#clip0)">
<path fill-rule="evenodd" clip-rule="evenodd" d="M7.84183 11.088V15.4954V36.5189C7.84183 37.7022 8.80908 38.6694 9.98908 38.6694H44.0963L52.7772 45.2272L57.1177 48.5044V38.6693H60.5972C61.7771 38.6693 62.748 37.702 62.748 36.5187V11.088C62.748 9.90463 61.7807 8.9375 60.5972 8.9375H9.98895C8.80908 8.9375 7.84183 9.90475 7.84183 11.088Z" fill="#DFEDFF"/>
<path fill-rule="evenodd" clip-rule="evenodd" d="M1.25 17.6424V43.0769C1.25 44.2602 2.21725 45.2274 3.40075 45.2274H6.88025V55.0625L19.8981 45.2274H52.7794L44.0985 38.6695H9.99113C8.81125 38.6695 7.84387 37.7022 7.84387 36.519V15.4954H3.40075C2.21725 15.4954 1.25 16.4626 1.25 17.6424Z" fill="#F68527"/>
<path d="M60.5993 7.6875H9.99125C8.118 7.6875 6.594 9.213 6.594 11.088V14.2454H3.40075C1.5255 14.2454 0 15.7692 0 17.6425V43.077C0 44.952 1.5255 46.4775 3.40075 46.4775H5.63025V55.0625C5.63025 55.5368 5.89862 55.9702 6.32325 56.1815C6.49962 56.2692 6.69037 56.3125 6.88013 56.3125C7.14725 56.3125 7.41262 56.2269 7.63375 56.0599L20.3171 46.4775H52.3618L56.3664 49.5021C56.5876 49.6693 56.8529 49.7547 57.1199 49.7547C57.3098 49.7547 57.5005 49.7115 57.6769 49.6237C58.1014 49.4124 58.3698 48.979 58.3698 48.5047V39.9196H60.5993C62.4744 39.9196 64 38.3941 64 36.519V11.088C64 9.213 62.4744 7.6875 60.5993 7.6875ZM61.5 36.5189C61.5 37.007 61.0875 37.4195 60.5993 37.4195H57.1198C56.4295 37.4195 55.8698 37.9792 55.8698 38.6695V45.994L44.8517 37.6721C44.6348 37.5081 44.3701 37.4195 44.0984 37.4195H29.8475C29.1572 37.4195 28.5975 37.9792 28.5975 38.6695C28.5975 39.3597 29.1572 39.9195 29.8475 39.9195H43.6792L49.0518 43.9774H19.898C19.626 43.9774 19.3615 44.0661 19.1445 44.23L8.13025 52.5514V45.2272C8.13025 44.537 7.5705 43.9772 6.88025 43.9772H3.40075C2.904 43.9772 2.5 43.5734 2.5 43.0768V17.6425C2.5 17.1561 2.9125 16.7454 3.40075 16.7454H6.594V36.5189C6.594 38.394 8.11788 39.9195 9.99125 39.9195H18.6226C19.3129 39.9195 19.8726 39.3597 19.8726 38.6695C19.8726 37.9792 19.3129 37.4195 18.6226 37.4195H9.99125C9.50488 37.4195 9.094 37.007 9.094 36.5189V11.088C9.094 10.5999 9.50488 10.1875 9.99125 10.1875H60.5993C61.096 10.1875 61.5 10.5914 61.5 11.088V36.5189Z" fill="black"/>
<path d="M37.2071 25.2317C37.1954 25.2004 37.1825 25.1698 37.1684 25.1397L33.3064 15.9803C33.2977 15.9598 33.2891 15.9419 33.2805 15.9262C33.1532 15.6604 32.9332 15.4378 32.6404 15.3142C32.0049 15.0459 31.2712 15.3438 31.0027 15.98L27.1229 25.1764C27.1207 25.1815 27.1186 25.1865 27.1164 25.1917L24.9685 30.2827C24.7002 30.9187 24.9982 31.6518 25.6344 31.9203C25.793 31.9872 25.9576 32.0189 26.1197 32.0189C26.6071 32.0189 27.0705 31.7318 27.272 31.2544L29.1005 26.9204H35.2059L37.0331 31.2542C37.2345 31.7318 37.6979 32.0189 38.1855 32.0189C38.3475 32.0189 38.512 31.9872 38.6706 31.9204C39.3069 31.6522 39.6051 30.919 39.3369 30.2829L37.2071 25.2317ZM30.1554 24.4204L32.1542 19.6825L34.1519 24.4204H30.1554Z" fill="#2950A3"/>
<path d="M54.4404 27.8732C55.4194 26.4439 56.0033 24.6574 56.0033 22.72C56.0033 18.047 52.6108 14.2454 48.4409 14.2454C44.269 14.2454 40.875 18.047 40.875 22.72C40.875 27.3951 44.269 31.1986 48.4409 31.1986C50.0326 31.1986 51.5101 30.6431 52.7299 29.6977L55.0779 32.028C55.3216 32.27 55.64 32.3907 55.9584 32.3907C56.2797 32.3907 56.6013 32.2675 56.8456 32.0212C57.332 31.5312 57.3289 30.7399 56.8389 30.2535L54.4404 27.8732ZM52.6286 26.0751L50.4549 23.9177C49.9649 23.4315 49.1735 23.4344 48.6871 23.9245C48.2008 24.4145 48.2039 25.2059 48.6939 25.6922L50.9367 27.9184C50.1995 28.414 49.348 28.6987 48.4408 28.6987C45.6474 28.6987 43.3749 26.0167 43.3749 22.7201C43.3749 19.4257 45.6475 16.7455 48.4408 16.7455C51.2321 16.7455 53.5031 19.4256 53.5031 22.7201C53.5032 23.9626 53.1804 25.1179 52.6286 26.0751Z" fill="#2950A3"/>
<path d="M24.3552 23.0163C24.3552 22.3261 23.7955 21.7663 23.1052 21.7663H16.3367V17.7156H23.1051C23.7954 17.7156 24.3551 17.1558 24.3551 16.4656C24.3551 15.7753 23.7954 15.2156 23.1051 15.2156H15.0867C14.3965 15.2156 13.8367 15.7753 13.8367 16.4656V31.1402C13.8367 31.8305 14.3965 32.3902 15.0867 32.3902C15.777 32.3902 16.3367 31.8305 16.3367 31.1402V24.2663H23.1051C23.7955 24.2663 24.3552 23.7066 24.3552 23.0163Z" fill="#2950A3"/>
<path d="M24.2347 37.4197C23.5444 37.4197 22.9847 37.9794 22.9847 38.6697C22.9847 39.3599 23.5444 39.9197 24.2347 39.9197H24.2382C24.9284 39.9197 25.4863 39.3599 25.4863 38.6697C25.4863 37.9794 24.9249 37.4197 24.2347 37.4197Z" fill="black"/>
</g>
<defs>
<clipPath id="clip0">
<rect width="64" height="64" fill="white"/>
</clipPath>
</defs>
</svg>
