<svg width="38" height="35" viewBox="0 0 38 35" fill="none" xmlns="http://www.w3.org/2000/svg">
<path d="M18.1695 13.2575C18.4104 13.4863 18.8111 13.44 18.9942 13.1638L22.5995 7.72266C22.7648 7.47326 22.6966 7.13696 22.4472 6.97163C22.198 6.80658 21.8617 6.87486 21.6964 7.12398L18.4474 12.0274L16.642 10.3132C16.4251 10.1072 16.0823 10.1163 15.8761 10.3332C15.6701 10.5502 15.6791 10.893 15.8961 11.0989C15.8958 11.0989 18.1675 13.2558 18.1695 13.2575Z" fill="#2950A3"/>
<path d="M18.5381 21.5197C18.6416 21.5671 18.7562 21.5922 18.8702 21.5922H18.8747C18.9906 21.5916 19.1069 21.5651 19.2107 21.5154C27.4478 17.5981 28.8438 9.14598 29.0751 6.64884C29.1281 6.07865 28.8071 5.54768 28.2764 5.32762C26.6367 4.64684 25.522 3.12446 25.3673 1.35466C25.3197 0.809861 24.8542 0.385254 24.3057 0.385254H24.2992L13.2019 0.450426C12.6424 0.45353 12.1879 0.878701 12.145 1.43929C12.0085 3.20966 10.9101 4.74305 9.27856 5.44104C8.75323 5.66561 8.44007 6.1994 8.49988 6.76931C8.76057 9.26363 10.2556 17.6991 18.5381 21.5197ZM9.70458 6.43696C11.7052 5.58154 13.0529 3.70339 13.2242 1.53353L24.2896 1.46864C24.4863 3.63371 25.8532 5.49464 27.8611 6.32806C27.9508 6.36558 28.0053 6.45417 27.9965 6.54896C27.7793 8.88924 26.4795 16.7802 18.8682 20.478C11.2131 16.8702 9.82194 8.99447 9.57705 6.65674C9.56718 6.56222 9.61853 6.47392 9.70458 6.43696Z" fill="#2950A3"/>
<path d="M11.0581 9.43991C11.1235 9.68084 11.4291 9.90147 11.7231 9.8205C12.0114 9.74094 12.1821 9.44442 12.1037 9.1558C11.9657 8.6474 11.8497 8.13195 11.7586 7.62129C13.2302 6.66233 14.3223 5.23108 14.8581 3.55945L22.681 3.51347C23.2363 5.17832 24.345 6.59716 25.8279 7.53863C25.743 8.05069 25.633 8.56784 25.5006 9.07821C25.4256 9.36796 25.5997 9.66363 25.8891 9.73868C26.1792 9.81373 26.4746 9.63965 26.5496 9.34991C26.7048 8.75066 26.8312 8.14239 26.9248 7.54201C26.9773 7.20656 26.8238 6.87675 26.5344 6.70183C25.1531 5.86757 24.132 4.55876 23.6595 3.01663C23.5531 2.66989 23.2261 2.42896 22.8633 2.42896H22.8582L14.668 2.47692C14.3029 2.47917 13.9762 2.72491 13.8738 3.07419C13.4195 4.62168 12.4137 5.94233 11.0423 6.79295C10.7548 6.97098 10.6056 7.30248 10.6617 7.63765C10.7627 8.23662 10.8959 8.84292 11.0581 9.43991Z" fill="#2950A3"/>
<path d="M25.4544 11.0462C25.1779 10.9316 24.8613 11.0637 24.7471 11.3402C23.4953 14.3742 21.5136 16.6809 18.8553 18.199C16.1765 16.7102 14.166 14.423 12.879 11.3986C12.7616 11.1235 12.4433 10.9954 12.1683 11.1125C11.8929 11.2296 11.7648 11.5478 11.8819 11.8229C13.2866 15.1232 15.4997 17.6114 18.4595 19.2175C18.5842 19.2855 18.7208 19.3191 18.857 19.3191C18.9967 19.3191 19.1361 19.2838 19.263 19.213C22.2006 17.5741 24.3826 15.0643 25.7486 11.7532C25.8629 11.4767 25.7311 11.1602 25.4544 11.0462Z" fill="#2950A3"/>
<path d="M3.78044 28.1031C2.72386 28.1031 1.86392 28.9628 1.86392 30.0197C1.86392 31.0765 2.72386 31.9362 3.78044 31.9362C4.8373 31.9362 5.69723 31.0765 5.69723 30.0197C5.69723 28.9628 4.83758 28.1031 3.78044 28.1031ZM3.78044 30.8528C3.32113 30.8528 2.9473 30.4793 2.9473 30.0197C2.9473 29.5604 3.32113 29.1865 3.78044 29.1865C4.24003 29.1865 4.61385 29.5604 4.61385 30.0197C4.61385 30.4793 4.24003 30.8528 3.78044 30.8528Z" fill="#2950A3"/>
<path d="M36.8947 22.8002C36.2003 21.78 34.8024 21.5097 33.7785 22.1976L26.697 26.9371L25.1854 26.8522L25.1467 26.4651C24.9961 24.9492 23.8374 23.7414 22.3291 23.5281C22.3195 23.5267 22.3102 23.5256 22.3006 23.5247L14.6701 22.8561C14.4119 22.8157 13.5856 22.5784 11.315 21.2761C10.1348 20.5993 8.80516 20.2173 7.45432 20.1654V18.7482C7.45432 18.037 6.87595 17.4586 6.1647 17.4586H1.59333C0.882361 17.4586 0.303711 18.0373 0.303711 18.7482V32.7055C0.303711 33.4165 0.882361 33.9951 1.59333 33.9951H6.1647C6.87566 33.9951 7.45432 33.4165 7.45432 32.7055V32.321L14.1245 34.8469C14.1391 34.8525 14.6808 35.0551 15.6767 34.9612C15.6796 34.9609 26.7597 33.3635 26.7597 33.3635C26.7625 33.3632 26.765 33.3626 26.7679 33.362C27.7147 33.2111 28.6076 32.8108 29.3505 32.205C29.3573 32.1994 29.3637 32.1937 29.3702 32.1881L36.5282 25.7502C37.3717 25.0011 37.5295 23.7329 36.8947 22.8002ZM35.8062 24.9424L28.6559 31.3736C28.064 31.8535 27.3536 32.1709 26.6008 32.2916L15.5261 33.8882C15.5235 33.8885 15.5199 33.8891 15.5165 33.8896C15.5148 33.8899 15.5128 33.8902 15.5111 33.8905C15.1799 33.9427 14.8349 33.9207 14.4853 33.825L7.45432 31.1626V24.9763C7.45432 24.6769 7.21168 24.4346 6.91262 24.4346C6.61328 24.4346 6.37093 24.6769 6.37093 24.9763V32.7055C6.37093 32.8192 6.27839 32.9118 6.1647 32.9118H1.59333C1.47963 32.9118 1.38709 32.8192 1.38709 32.7055V18.7482C1.38709 18.6345 1.47963 18.542 1.59333 18.542H6.1647C6.27839 18.542 6.37093 18.6345 6.37093 18.7482V22.5294C6.37093 22.8287 6.61357 23.071 6.91262 23.071C7.21196 23.071 7.45432 22.8284 7.45432 22.5294V21.2499C8.61641 21.3012 9.75961 21.633 10.7758 22.2162C13.5145 23.7868 14.2793 23.8951 14.5307 23.9307C14.5403 23.9321 14.5496 23.933 14.5592 23.9341L22.1906 24.6027C23.1966 24.7514 23.968 25.5594 24.0687 26.5723L24.0975 26.8609L13.8807 27.4918C13.8736 27.4912 13.8666 27.4906 13.8604 27.4901C13.5292 27.4602 13.2301 27.3036 13.0177 27.0491C12.8261 26.8192 12.4844 26.7881 12.2548 26.98C12.0248 27.1715 11.9938 27.5132 12.1856 27.7428C12.5832 28.2197 13.144 28.5049 13.7639 28.5692C14.0985 28.6042 24.6933 27.9096 24.6933 27.9096L26.8172 28.0289C26.9346 28.0357 27.0511 28.0035 27.1487 27.9381L34.382 23.0973C34.9133 22.7404 35.6386 22.8803 35.9989 23.4096C36.3281 23.8937 36.2463 24.5517 35.8062 24.9424Z" fill="#2950A3"/>
</svg>
