<svg width="134" height="37" viewBox="0 0 134 37" fill="none" xmlns="http://www.w3.org/2000/svg">
<path d="M4.61258 0.611328C3.68528 1.63435 0.111675 6.35462 0 6.72754C1.82868 6.72754 3.6434 6.72554 5.46012 6.72754C7.26885 6.73152 9.07959 6.71158 10.9462 6.74149C10.9462 12.5905 10.9462 18.3557 10.9462 24.1508C13.393 24.1508 15.7801 24.1508 18.2429 24.1508C18.2549 23.9036 18.2748 23.6902 18.2748 23.4768C18.2768 18.1204 18.2748 12.764 18.2788 7.40955C18.2788 7.19817 18.3027 6.98877 18.3187 6.73551C21.1285 6.73551 23.8905 6.73551 26.6585 6.73551C28.2299 4.69943 29.7814 2.69128 31.3867 0.611328C22.3889 0.611328 13.4947 0.611328 4.61258 0.611328Z" fill="white"/>
<path d="M121.973 14.2508C118.78 14.2508 115.619 14.2508 112.458 14.2508C112.443 14.2827 112.429 14.3146 112.413 14.3465C114.16 15.6826 115.906 17.0207 117.699 18.3907C117.139 18.3588 116.636 18.311 116.134 18.305C115.171 18.291 114.207 18.3389 113.246 18.289C112.305 18.2412 111.352 18.1813 110.43 17.9939C108.474 17.593 107.144 16.4424 106.655 14.4602C106.314 13.0762 106.366 11.6783 106.671 10.2883C107.008 8.75276 107.958 7.77162 109.403 7.22122C110.355 6.85827 111.346 6.67082 112.353 6.59105C115.127 6.3697 117.903 6.3677 120.677 6.58906C121.797 6.6788 122.898 6.88221 123.937 7.33289C125.152 7.85936 125.957 8.74479 126.312 10.037C126.613 11.1318 126.667 12.2466 126.581 13.3653C126.494 14.4921 126.049 15.4174 125.263 16.3048C125.213 16.3606 125.191 16.3965 125.12 16.4942C127.77 16.4942 130.36 16.4942 132.997 16.4942C133.667 15.3994 133.988 14.2169 133.998 12.9725C134.006 11.9535 133.95 10.9225 133.804 9.91339C133.531 8.00494 132.799 6.27796 131.525 4.80425C130.119 3.17699 128.29 2.21778 126.296 1.52978C124.302 0.839785 122.236 0.488806 120.138 0.32927C116.967 0.0899665 113.801 0.115891 110.648 0.598487C108.484 0.929524 106.39 1.48591 104.446 2.5189C102.063 3.78522 100.425 5.68569 99.6278 8.27017C99.0435 10.1627 98.9079 12.101 99.1193 14.0673C99.4882 17.5013 101.157 20.1416 104.037 22.0222C105.792 23.1688 107.748 23.787 109.792 24.1899C110.881 24.4052 111.978 24.5329 113.079 24.5348C120.022 24.5508 127.054 24.4331 134 24.4311L121.973 14.2508Z" fill="white"/>
<path d="M57.0717 1.81937C54.7066 0.814294 52.2218 0.347651 49.6812 0.150226C46.5124 -0.0950606 43.3456 -0.0631535 40.1968 0.419443C38.0331 0.750479 35.9412 1.30885 33.9988 2.34384C31.6516 3.5962 30.0244 5.46078 29.2207 8.00936C28.5267 10.2129 28.441 12.4624 28.774 14.7378C29.3404 18.6185 31.4383 21.3226 35.0458 22.8562C36.2064 23.3487 37.3909 23.7655 38.6373 23.9909C39.441 24.1364 40.2367 24.3698 41.0463 24.4396C42.7095 24.5851 44.3806 24.647 45.8723 24.7327C47.2044 24.6689 48.3531 24.5991 49.5037 24.5652C51.4381 24.5094 53.3226 24.1604 55.1513 23.5561C56.1943 23.2111 57.2312 22.8103 58.2064 22.3098C60.5775 21.0953 62.1709 19.1809 62.9626 16.6343C63.6525 14.4127 63.7204 12.1433 63.3774 9.85399C62.797 5.98924 60.6593 3.34294 57.0717 1.81937ZM55.939 14.5304C55.5561 16.2673 54.4114 17.3023 52.7463 17.8108C51.5458 18.1778 50.3034 18.2835 49.061 18.3652C48.0699 18.431 47.0748 18.433 46.1874 18.459C44.1114 18.4071 42.1372 18.4051 40.1948 18.0063C39.1758 17.7969 38.2305 17.42 37.4488 16.71C36.6511 15.9862 36.2802 15.0409 36.1246 14.0059C35.9152 12.6219 35.9432 11.2439 36.2981 9.87992C36.6411 8.55976 37.4787 7.68032 38.7031 7.14587C39.7541 6.68521 40.8728 6.48978 42.0095 6.40004C44.7356 6.18467 47.4637 6.18866 50.1877 6.40004C51.2447 6.4818 52.2816 6.67325 53.2747 7.05613C54.6487 7.58659 55.5501 8.53184 55.9011 9.98561C56.2641 11.5012 56.272 13.0188 55.939 14.5304Z" fill="white"/>
<path d="M91.5412 16.5128C91.5811 16.4749 91.597 16.445 91.623 16.437C91.8164 16.3772 92.0118 16.3273 92.2033 16.2655C93.9263 15.7131 95.374 14.7798 96.3711 13.2323C97.4061 11.623 97.7252 9.84819 97.5338 7.97364C97.4021 6.66944 96.9993 5.45696 96.1498 4.42596C95.2564 3.33912 94.1556 2.52549 92.8813 1.93321C90.8711 0.995942 88.7254 0.632998 86.5417 0.611061C81.2412 0.559212 75.9406 0.585137 70.642 0.581149C70.5343 0.581149 70.4266 0.595108 70.2831 0.603085C68.7336 2.59529 67.1761 4.59946 65.5488 6.69137C65.8699 6.70733 66.0813 6.72727 66.2907 6.72727C72.71 6.72926 79.1293 6.72727 85.5486 6.72926C85.9993 6.72926 86.456 6.70533 86.8987 6.77513C87.477 6.86686 88.0673 6.97255 88.6077 7.18992C89.9897 7.74231 90.2569 9.18412 89.9219 10.2051C89.6946 10.9031 89.1322 11.2621 88.522 11.5512C87.7223 11.9301 86.8688 12.0598 85.9854 12.0598C79.3945 12.0558 72.8057 12.0578 66.2149 12.0598C66.0035 12.0598 65.7941 12.0777 65.5847 12.0857C65.5847 16.1379 65.5847 20.1323 65.5847 24.1386C68.0216 24.1386 70.4207 24.1386 72.8775 24.1386C72.8775 22.0567 72.8775 20.0126 72.8775 17.9426C76.6445 17.9426 80.3538 17.9426 84.0689 17.9426C85.8159 20.0166 87.5568 22.0806 89.2937 24.1426C90.1153 24.2463 98.6346 24.2004 99.0254 24.0648C96.5427 21.5043 94.2354 18.8221 91.5412 16.5128Z" fill="white"/>
<path d="M10.3281 36.0012L11.6602 27.9766H13.114L11.9853 34.7828H15.519L15.3156 36.0012H10.3281Z" fill="white"/>
<path d="M27.929 27.9766H29.3828L28.5133 33.2193C28.4196 33.7936 28.2003 34.3002 27.8593 34.7349C27.5163 35.1716 27.0815 35.5106 26.551 35.7559C26.0206 35.9992 25.4283 36.1229 24.7762 36.1229C24.1201 36.1229 23.5697 36.0012 23.123 35.7559C22.6763 35.5126 22.3533 35.1716 22.1578 34.7349C21.9604 34.2982 21.9086 33.7936 22.0023 33.2193L22.8718 27.9766H24.3255L23.476 33.0977C23.4201 33.4327 23.4461 33.7298 23.5518 33.9911C23.6575 34.2523 23.8329 34.4557 24.0762 34.6053C24.3195 34.7528 24.6266 34.8266 24.9956 34.8266C25.3645 34.8266 25.6955 34.7528 25.9907 34.6053C26.2858 34.4577 26.5271 34.2523 26.7166 33.9911C26.904 33.7298 27.0257 33.4327 27.0815 33.0977L27.929 27.9766Z" fill="white"/>
<path d="M34.5977 36.0012L35.9298 27.9766H39.0009C39.5812 27.9766 40.0498 28.0683 40.4048 28.2498C40.7617 28.4312 41.009 28.6785 41.1466 28.9916C41.2842 29.3047 41.3201 29.6597 41.2523 30.0565C41.1965 30.3836 41.0868 30.6608 40.9232 30.8921C40.7577 31.1214 40.5583 31.3089 40.323 31.4544C40.0877 31.6 39.8364 31.7037 39.5712 31.7655L39.5552 31.8433C39.8384 31.8593 40.0957 31.945 40.333 32.1046C40.5683 32.2621 40.7478 32.4854 40.8674 32.7726C40.9871 33.0598 41.015 33.4068 40.9492 33.8156C40.8794 34.2304 40.7139 34.6033 40.4566 34.9343C40.1994 35.2654 39.8524 35.5246 39.4156 35.716C38.9789 35.9075 38.4544 36.0012 37.8402 36.0012H34.5977ZM36.2548 34.7867H37.8183C38.3428 34.7867 38.7396 34.685 39.0088 34.4836C39.278 34.2822 39.4376 34.021 39.4914 33.7019C39.5313 33.4646 39.5074 33.2492 39.4216 33.0578C39.3359 32.8663 39.1943 32.7148 38.9969 32.6031C38.7994 32.4914 38.5502 32.4376 38.247 32.4376H36.6437L36.2548 34.7867ZM36.8232 31.3906H38.261C38.5083 31.3906 38.7416 31.3448 38.961 31.251C39.1783 31.1593 39.3598 31.0257 39.5034 30.8562C39.647 30.6847 39.7367 30.4813 39.7706 30.248C39.8265 29.9369 39.7607 29.6816 39.5752 29.4802C39.3897 29.2788 39.0846 29.1791 38.6578 29.1791H37.1881L36.8232 31.3906Z" fill="white"/>
<path d="M46.8164 36.0012L48.1485 27.9766H51.1578C51.774 27.9766 52.2745 28.0823 52.6574 28.2956C53.0423 28.509 53.3095 28.8081 53.4611 29.193C53.6126 29.5779 53.6446 30.0286 53.5588 30.5431C53.475 31.0556 53.2936 31.5003 53.0124 31.8772C52.7312 32.2541 52.3623 32.5473 51.9036 32.7527C51.4449 32.9601 50.9085 33.0618 50.2903 33.0618H48.1465L48.3539 31.8553H50.3003C50.6612 31.8553 50.9643 31.8054 51.2096 31.7037C51.4549 31.604 51.6503 31.4564 51.7939 31.261C51.9375 31.0656 52.0312 30.8263 52.0771 30.5411C52.125 30.2539 52.109 30.0087 52.0292 29.8092C51.9515 29.6078 51.8059 29.4543 51.5945 29.3486C51.3831 29.2429 51.096 29.189 50.737 29.189H49.4049L48.2682 35.9992H46.8164V36.0012ZM51.5646 32.3658L52.9486 36.0012H51.3273L49.9792 32.3658H51.5646Z" fill="white"/>
<path d="M61.7878 27.9766L60.4557 36.0012H59.002L60.3341 27.9766H61.7878Z" fill="white"/>
<path d="M74.7415 30.685H73.2997C73.2978 30.4437 73.2578 30.2303 73.1801 30.0448C73.1023 29.8594 72.9946 29.6998 72.853 29.5682C72.7115 29.4386 72.5459 29.3389 72.3525 29.2731C72.1591 29.2072 71.9457 29.1733 71.7104 29.1733C71.2617 29.1733 70.8429 29.287 70.456 29.5144C70.0691 29.7417 69.7401 30.0707 69.4709 30.5035C69.1997 30.9362 69.0142 31.4607 68.9125 32.0769C68.8168 32.6772 68.8267 33.1797 68.9444 33.5845C69.0621 33.9893 69.2635 34.2944 69.5506 34.4998C69.8378 34.7053 70.1908 34.807 70.6076 34.807C70.8608 34.807 71.1041 34.7751 71.3354 34.7112C71.5668 34.6474 71.7822 34.5517 71.9776 34.4261C72.173 34.3004 72.3465 34.1449 72.4981 33.9614C72.6496 33.778 72.7673 33.5706 72.8511 33.3392H74.3128C74.1931 33.7201 74.0156 34.0791 73.7843 34.4141C73.551 34.7491 73.2718 35.0443 72.9468 35.2995C72.6197 35.5548 72.2548 35.7542 71.85 35.8978C71.4451 36.0414 71.0084 36.1132 70.5418 36.1132C69.8238 36.1132 69.2096 35.9456 68.6991 35.6106C68.1886 35.2756 67.8217 34.793 67.6003 34.1628C67.379 33.5327 67.3371 32.7809 67.4787 31.9054C67.6223 31.0519 67.9014 30.324 68.3123 29.7237C68.7251 29.1235 69.2276 28.6648 69.8219 28.3458C70.4161 28.0267 71.0563 27.8691 71.7443 27.8691C72.1989 27.8691 72.6117 27.931 72.9846 28.0566C73.3576 28.1822 73.6746 28.3657 73.9399 28.607C74.2051 28.8483 74.4085 29.1434 74.5481 29.4924C74.6877 29.8414 74.7555 30.2383 74.7415 30.685Z" fill="white"/>
<path d="M81.0984 36.0012H79.5469L83.7048 27.9766H85.4996L86.9952 36.0012H85.4437L84.3669 29.6218H84.305L81.0984 36.0012ZM81.6727 32.8544H85.9044L85.705 34.023H81.4733L81.6727 32.8544Z" fill="white"/>
<path d="M92.8223 29.195L93.0257 27.9766H99.4271L99.2237 29.195H96.7429L95.6141 36.0012H94.1723L95.3011 29.195H92.8223Z" fill="white"/>
<path d="M107.077 27.9766L105.745 36.0012H104.291L105.623 27.9766H107.077Z" fill="white"/>
<path d="M120.11 32.0829C119.968 32.9325 119.691 33.6563 119.278 34.2566C118.863 34.8569 118.361 35.3155 117.769 35.6346C117.176 35.9517 116.534 36.1112 115.844 36.1112C115.128 36.1112 114.514 35.9437 114.002 35.6087C113.489 35.2736 113.118 34.791 112.891 34.1649C112.663 33.5387 112.624 32.7849 112.769 31.9074C112.911 31.0579 113.188 30.332 113.601 29.7298C114.016 29.1255 114.52 28.6649 115.116 28.3458C115.713 28.0267 116.357 27.8672 117.051 27.8672C117.765 27.8672 118.375 28.0347 118.887 28.3697C119.398 28.7048 119.767 29.1873 119.992 29.8175C120.216 30.4477 120.255 31.2035 120.11 32.0829ZM118.68 31.9074C118.778 31.3152 118.768 30.8146 118.654 30.4078C118.54 30.001 118.341 29.6919 118.052 29.4845C117.765 29.2771 117.41 29.1734 116.987 29.1734C116.534 29.1734 116.115 29.2871 115.731 29.5124C115.346 29.7377 115.019 30.0688 114.751 30.5015C114.484 30.9343 114.299 31.4627 114.197 32.0849C114.095 32.6812 114.103 33.1817 114.221 33.5846C114.339 33.9894 114.542 34.2945 114.831 34.4999C115.12 34.7053 115.475 34.807 115.892 34.807C116.345 34.807 116.762 34.6953 117.146 34.47C117.531 34.2446 117.856 33.9176 118.122 33.4868C118.389 33.0561 118.574 32.5296 118.68 31.9074Z" fill="white"/>
<path d="M133.73 27.9766L132.398 36.0012H131.105L128.238 30.5351H128.172L127.258 36.0012H125.805L127.137 27.9766H128.437L131.309 33.4466H131.378L132.284 27.9766H133.73Z" fill="white"/>
</svg>
