<svg width="32" height="33" viewBox="0 0 32 33" fill="none" xmlns="http://www.w3.org/2000/svg">
<path d="M27.3531 24.99C27.273 24.9899 27.1944 24.9687 27.125 24.9286C27.0557 24.8885 26.9982 24.8309 26.9582 24.7615C26.9181 24.6922 26.8971 24.6135 26.8971 24.5334C26.8971 24.4533 26.9182 24.3746 26.9583 24.3053C27.9883 22.5194 28.6052 20.5254 28.7636 18.4698C28.922 16.4143 28.6179 14.3493 27.8736 12.4267C27.1293 10.5041 25.9637 8.77265 24.4624 7.35958C22.9612 5.94651 21.1625 4.88772 19.1984 4.26099C19.083 4.22431 18.9869 4.1433 18.9313 4.03578C18.8756 3.92826 18.865 3.80304 18.9017 3.68767C18.9383 3.5723 19.0194 3.47622 19.1269 3.42058C19.2344 3.36494 19.3596 3.35428 19.475 3.39097C21.5693 4.05896 23.4873 5.18768 25.0881 6.69421C26.689 8.20074 27.9319 10.0468 28.7257 12.0967C29.5195 14.1467 29.8439 16.3484 29.6751 18.5401C29.5062 20.7319 28.8485 22.858 27.7502 24.7622C27.71 24.8318 27.652 24.8895 27.5823 24.9295C27.5126 24.9695 27.4335 24.9903 27.3531 24.99Z" fill="#2950A3"/>
<path d="M15.0113 32.1143C12.4308 32.1092 9.89664 31.4277 7.66159 30.1379C5.42654 28.848 3.56867 26.9947 2.27321 24.7629C2.24106 24.7109 2.21967 24.6531 2.21031 24.5927C2.20095 24.5323 2.20381 24.4706 2.21872 24.4114C2.23363 24.3521 2.26028 24.2965 2.29709 24.2477C2.33391 24.1989 2.38015 24.1581 2.43305 24.1275C2.48596 24.0969 2.54447 24.0773 2.60511 24.0698C2.66574 24.0622 2.72727 24.0669 2.78605 24.0836C2.84483 24.1003 2.89966 24.1286 2.9473 24.1669C2.99493 24.2052 3.03439 24.2526 3.06335 24.3064C4.08947 26.0824 5.49866 27.6071 7.18835 28.7698C8.87803 29.9325 10.8057 30.7037 12.831 31.0275C14.8564 31.3513 16.9284 31.2194 18.8964 30.6415C20.8643 30.0635 22.6786 29.0541 24.2073 27.6866C24.2977 27.6071 24.4158 27.5666 24.5359 27.5738C24.656 27.581 24.7684 27.6353 24.8487 27.725C24.9289 27.8146 24.9705 27.9323 24.9645 28.0525C24.9584 28.1727 24.9051 28.2856 24.8162 28.3667C22.1214 30.7814 18.6297 32.116 15.0113 32.1143Z" fill="#2950A3"/>
<path d="M1.00376 20.5027C0.897341 20.5026 0.794302 20.4654 0.712453 20.3973C0.630605 20.3293 0.575092 20.2349 0.555511 20.1303C0.157546 18.0057 0.232375 15.8196 0.774681 13.7273C1.31699 11.6349 2.31346 9.68766 3.6933 8.0239C5.07313 6.36015 6.80246 5.0207 8.7584 4.10075C10.7143 3.18079 12.8489 2.70291 15.0104 2.70105C15.1314 2.70105 15.2476 2.74914 15.3332 2.83475C15.4188 2.92035 15.4669 3.03645 15.4669 3.15751C15.4669 3.27858 15.4188 3.39468 15.3332 3.48028C15.2476 3.56589 15.1314 3.61398 15.0104 3.61398C12.983 3.61585 10.981 4.06419 9.14642 4.92715C7.31189 5.79011 5.68992 7.0465 4.39576 8.60706C3.10161 10.1676 2.16702 11.9941 1.6584 13.9566C1.14979 15.9191 1.07964 17.9696 1.45292 19.9623C1.46527 20.0282 1.46292 20.0961 1.44605 20.161C1.42918 20.226 1.39819 20.2864 1.3553 20.338C1.31242 20.3896 1.25868 20.4311 1.19791 20.4596C1.13715 20.4881 1.07086 20.5028 1.00376 20.5027Z" fill="#2950A3"/>
<path d="M12.4692 6.15337C12.3789 6.15335 12.2907 6.12657 12.2156 6.07641C12.1406 6.02625 12.0821 5.95497 12.0475 5.87157C12.013 5.78818 12.0039 5.69641 12.0216 5.60788C12.0392 5.51934 12.0826 5.43802 12.1464 5.37418L14.3635 3.15713L12.1464 0.940081C12.0633 0.85399 12.0173 0.738686 12.0183 0.619002C12.0194 0.499319 12.0674 0.384832 12.152 0.300199C12.2366 0.215567 12.3511 0.167561 12.4708 0.166521C12.5905 0.165481 12.7058 0.21149 12.7919 0.294639L15.3326 2.83441C15.4181 2.92001 15.4662 3.03609 15.4662 3.15713C15.4662 3.27817 15.4181 3.39425 15.3326 3.47985L12.7928 6.01962C12.7503 6.06212 12.6998 6.09581 12.6443 6.11876C12.5888 6.14172 12.5292 6.15348 12.4692 6.15337Z" fill="#2950A3"/>
<path d="M1.73884 28.4571C1.66881 28.4571 1.59972 28.441 1.53691 28.41C1.4741 28.379 1.41926 28.334 1.37664 28.2785C1.33401 28.2229 1.30473 28.1583 1.29108 28.0896C1.27742 28.0209 1.27976 27.95 1.29789 27.8824L2.22771 24.4133C2.24323 24.3553 2.27001 24.3011 2.30651 24.2535C2.34301 24.2059 2.38852 24.166 2.44045 24.1361C2.49237 24.1061 2.54969 24.0867 2.60914 24.0788C2.66858 24.071 2.72898 24.075 2.78688 24.0905L6.25602 25.0204C6.31392 25.0359 6.3682 25.0627 6.41576 25.0992C6.46332 25.1357 6.50322 25.1812 6.53319 25.2331C6.56315 25.285 6.5826 25.3423 6.59042 25.4018C6.59823 25.4612 6.59426 25.5216 6.57874 25.5795C6.56321 25.6374 6.53643 25.6917 6.49993 25.7393C6.46343 25.7868 6.41791 25.8267 6.36599 25.8567C6.31407 25.8867 6.25675 25.9061 6.19731 25.9139C6.13787 25.9217 6.07747 25.9178 6.01957 25.9022L2.99092 25.0897L2.17978 28.1184C2.15385 28.2155 2.09656 28.3014 2.01683 28.3626C1.9371 28.4239 1.83938 28.4571 1.73884 28.4571Z" fill="#2950A3"/>
<path d="M27.3524 24.9876C27.2519 24.9874 27.1543 24.9542 27.0747 24.893C26.995 24.8317 26.9378 24.7459 26.9119 24.6489L25.9821 21.1797C25.9666 21.1218 25.9626 21.0614 25.9704 21.002C25.9782 20.9425 25.9977 20.8852 26.0276 20.8333C26.0576 20.7814 26.0975 20.7359 26.1451 20.6994C26.1926 20.6629 26.2469 20.6361 26.3048 20.6206C26.3627 20.605 26.4231 20.6011 26.4826 20.6089C26.542 20.6167 26.5993 20.6361 26.6512 20.6661C26.7561 20.7266 26.8326 20.8263 26.864 20.9433L27.6756 23.9719L30.7042 23.1603C30.7621 23.1448 30.8225 23.1408 30.882 23.1486C30.9414 23.1565 30.9987 23.1759 31.0507 23.2059C31.1026 23.2358 31.1481 23.2757 31.1846 23.3233C31.2211 23.3709 31.2479 23.4251 31.2634 23.483C31.2789 23.541 31.2829 23.6013 31.2751 23.6608C31.2673 23.7202 31.2478 23.7775 31.2178 23.8295C31.1879 23.8814 31.148 23.9269 31.1004 23.9634C31.0529 23.9999 30.9986 24.0267 30.9407 24.0422L27.4715 24.972C27.4327 24.9825 27.3926 24.9877 27.3524 24.9876Z" fill="#2950A3"/>
</svg>
