<svg width="31" height="31" viewBox="0 0 31 31" fill="none" xmlns="http://www.w3.org/2000/svg">
<path d="M29.8349 23.8379L23.8007 19.8139C23.035 19.3073 22.0085 19.474 21.4424 20.1969L19.6847 22.4568C19.4588 22.7547 19.0482 22.8411 18.7214 22.6595L18.3871 22.4752C17.2787 21.8711 15.8996 21.119 13.121 18.3394C10.3424 15.5598 9.5888 14.1796 8.98466 13.0733L8.80133 12.739C8.6173 12.4122 8.70207 11.9999 9.00003 11.7722L11.2584 10.015C11.9811 9.44884 12.148 8.42268 11.642 7.6567L7.61792 1.62256C7.09936 0.842548 6.059 0.608392 5.25622 1.09097L2.73296 2.60669C1.94014 3.07279 1.35848 3.82765 1.10994 4.7131C0.201324 8.02376 0.884869 13.7375 9.30166 22.1552C15.997 28.8501 20.9814 30.6505 24.4074 30.6505C25.1958 30.6539 25.9812 30.5513 26.7423 30.3455C27.628 30.0973 28.383 29.5155 28.8488 28.7225L30.366 26.2007C30.8493 25.3978 30.6152 24.3568 29.8349 23.8379ZM29.51 25.691L27.9962 28.2142C27.6617 28.7866 27.1187 29.2075 26.4809 29.3887C23.4246 30.2278 18.0851 29.5328 10.0046 21.4523C1.92413 13.3719 1.22917 8.03273 2.06828 4.97596C2.24969 4.33742 2.67108 3.79371 3.24418 3.45872L5.76744 1.94498C6.11576 1.73539 6.5673 1.83698 6.79232 2.17546L8.97826 5.45731L10.813 8.20907C11.0327 8.54133 10.9605 8.98664 10.647 9.2325L8.38809 10.9897C7.70065 11.5153 7.50433 12.4664 7.92758 13.2213L8.10696 13.5472C8.74189 14.7117 9.53128 16.1603 12.4132 19.0418C15.2952 21.9232 16.7433 22.7127 17.9073 23.3476L18.2337 23.5274C18.9885 23.9506 19.9397 23.7543 20.4653 23.0669L22.2225 20.8079C22.4684 20.4947 22.9135 20.4225 23.2459 20.642L29.2795 24.6661C29.6182 24.8909 29.7198 25.3427 29.51 25.691Z" fill="#2950A3"/>
<path d="M17.697 5.8096C22.3592 5.81478 26.1374 9.593 26.1426 14.2552C26.1426 14.5296 26.365 14.752 26.6394 14.752C26.9138 14.752 27.1362 14.5296 27.1362 14.2552C27.1304 9.04446 22.9078 4.82175 17.697 4.81604C17.4227 4.81604 17.2003 5.03844 17.2003 5.31282C17.2003 5.58721 17.4227 5.8096 17.697 5.8096Z" fill="#2950A3"/>
<path d="M17.697 8.79153C20.7137 8.79508 23.1583 11.2397 23.1619 14.2563C23.1619 14.5307 23.3843 14.7531 23.6586 14.7531C23.933 14.7531 24.1554 14.5307 24.1554 14.2563C24.1513 10.6912 21.2622 7.80205 17.697 7.79797C17.4227 7.79797 17.2003 8.02037 17.2003 8.29475C17.2003 8.56914 17.4227 8.79153 17.697 8.79153Z" fill="#2950A3"/>
<path d="M17.697 11.7718C19.0682 11.7734 20.1794 12.8846 20.1811 14.2558C20.1811 14.5302 20.4035 14.7526 20.6778 14.7526C20.9522 14.7526 21.1746 14.5302 21.1746 14.2558C21.1724 12.3361 19.6167 10.7804 17.697 10.7782C17.4227 10.7782 17.2003 11.0006 17.2003 11.275C17.2003 11.5494 17.4227 11.7718 17.697 11.7718Z" fill="#2950A3"/>
</svg>
