<svg width="52" height="33" viewBox="0 0 52 33" fill="none" xmlns="http://www.w3.org/2000/svg">
<mask id="path-1-inside-1" fill="white">
<path fill-rule="evenodd" clip-rule="evenodd" d="M46.4585 8.51954L47.7655 13.7475C49.7632 14.0517 51.2987 15.7808 51.2986 17.8619V26.2913C51.2986 26.7278 50.9447 27.0816 50.5083 27.0816H47.9253L47.9255 27.0917L47.926 27.1055L47.9266 27.1233L47.9267 27.1342C47.9267 29.894 45.6814 32.1392 42.9218 32.1392C40.1621 32.1392 37.9169 29.894 37.9169 27.1342C37.9169 27.1246 37.9172 27.115 37.9176 27.1054V27.1054L37.918 27.0931L37.9182 27.0816H20.1084C20.1085 27.0896 20.1088 27.0975 20.1091 27.1054L20.1095 27.1181L20.1098 27.1342C20.1098 29.894 17.8645 32.1392 15.1049 32.1392C12.3452 32.1392 10.0999 29.894 10.0999 27.1342C10.0999 27.1246 10.1003 27.1151 10.1006 27.1055L10.1007 27.1055V27.1054V27.1054L10.1011 27.0938L10.1013 27.0816H5.83257C4.93198 27.0816 4.19935 26.349 4.19935 25.4484V23.7098H1.61783C1.18134 23.7098 0.827545 23.356 0.827545 22.9195C0.827545 22.483 1.18143 22.1292 1.61783 22.1292H9.20428C9.64078 22.1292 9.99457 22.483 9.99457 22.9195C9.99457 23.356 9.64068 23.7098 9.20428 23.7098H5.77983V25.4484C5.77983 25.4775 5.80339 25.501 5.83247 25.501H10.375C11.0537 23.541 12.917 22.1292 15.1049 22.1292C17.2928 22.1292 19.156 23.541 19.8348 25.501H36.2308V19.5479C36.2308 19.1114 36.5847 18.7576 37.0211 18.7576C37.4576 18.7576 37.8114 19.1115 37.8114 19.5479V25.5012H38.1919C38.8706 23.5412 40.7339 22.1294 42.9218 22.1294C45.1097 22.1294 46.9729 23.5412 47.6517 25.5012H49.718V22.0241H48.8224C47.457 22.0241 46.3462 20.9134 46.3462 19.548V17.8621C46.3462 17.4256 46.7001 17.0718 47.1365 17.0718H49.5938C49.2593 16.0343 48.2852 15.2814 47.1381 15.2806L47.1359 15.2807L47.1339 15.2805H37.8116V16.1764C37.8116 16.6129 37.4577 16.9667 37.0213 16.9667C36.5848 16.9667 36.231 16.6128 36.231 16.1764V1.84611C36.231 1.81703 36.2074 1.79347 36.1784 1.79347H5.83247C5.80339 1.79347 5.77983 1.81703 5.77983 1.84611V16.1762C5.77983 16.6127 5.42594 16.9665 4.98954 16.9665C4.55305 16.9665 4.19926 16.6126 4.19926 16.1762V1.84611C4.19926 0.945511 4.93188 0.212891 5.83247 0.212891H36.1785C37.0791 0.212891 37.8117 0.945511 37.8117 1.84611V3.5848H43.7649C45.595 3.5848 47.084 5.0737 47.084 6.90387V7.7468C47.084 8.12661 46.8158 8.44364 46.4585 8.51954ZM43.7649 5.16528H37.8117V6.95651H45.5035V6.90387C45.5035 5.94521 44.7236 5.16528 43.7649 5.16528ZM37.8117 8.53699V13.7H46.1245L44.8338 8.53699H37.8117ZM11.6804 27.1344C11.6804 29.0228 13.2166 30.5589 15.1049 30.5589C16.9931 30.5589 18.5293 29.0228 18.5293 27.1344C18.5293 25.2461 16.9931 23.71 15.1049 23.71C13.2166 23.71 11.6804 25.2461 11.6804 27.1344ZM39.4975 27.1344C39.4975 29.0228 41.0337 30.5589 42.922 30.5589C44.8102 30.5589 46.3464 29.0228 46.3464 27.1344C46.3464 25.2461 44.8102 23.71 42.922 23.71C41.0337 23.71 39.4975 25.2461 39.4975 27.1344ZM48.8226 20.4436H49.7181V18.6522H47.9269V19.5479C47.9269 20.0418 48.3287 20.4436 48.8226 20.4436ZM13.4712 27.1342C13.4712 26.2336 14.2038 25.5009 15.1044 25.5009C16.005 25.5009 16.7376 26.2336 16.7376 27.1342C16.7376 28.0347 16.005 28.7674 15.1044 28.7674C14.2038 28.7674 13.4712 28.0347 13.4712 27.1342ZM42.9208 25.5009C42.0202 25.5009 41.2876 26.2336 41.2876 27.1342C41.2876 28.0347 42.0202 28.7674 42.9208 28.7674C43.8214 28.7674 44.554 28.0347 44.554 27.1342C44.554 26.2336 43.8214 25.5009 42.9208 25.5009ZM21.8473 22.1281H33.6485C34.085 22.1281 34.4388 22.4819 34.4388 22.9184C34.4388 23.3549 34.0849 23.7087 33.6485 23.7087H21.8473C21.4108 23.7087 21.057 23.3549 21.057 22.9184C21.057 22.4819 21.4109 22.1281 21.8473 22.1281ZM13.4172 18.7577H3.30184C2.86544 18.7577 2.51155 19.1115 2.51155 19.548C2.51155 19.9844 2.86535 20.3382 3.30184 20.3382H13.4172C13.8536 20.3382 14.2075 19.9844 14.2075 19.548C14.2075 19.1115 13.8536 18.7577 13.4172 18.7577ZM27.1897 8.02996C27.4982 7.72132 27.9987 7.72132 28.3073 8.02986C28.6158 8.33851 28.6158 8.83878 28.3072 9.14752L20.7207 16.734C20.5665 16.8883 20.3642 16.9654 20.162 16.9654C19.9598 16.9654 19.7575 16.8883 19.6032 16.734L15.3885 12.5192C15.0799 12.2106 15.0799 11.7103 15.3885 11.4017C15.6971 11.093 16.1974 11.093 16.5061 11.4017L20.162 15.0576L27.1897 8.02996Z"/>
</mask>
<path fill-rule="evenodd" clip-rule="evenodd" d="M46.4585 8.51954L47.7655 13.7475C49.7632 14.0517 51.2987 15.7808 51.2986 17.8619V26.2913C51.2986 26.7278 50.9447 27.0816 50.5083 27.0816H47.9253L47.9255 27.0917L47.926 27.1055L47.9266 27.1233L47.9267 27.1342C47.9267 29.894 45.6814 32.1392 42.9218 32.1392C40.1621 32.1392 37.9169 29.894 37.9169 27.1342C37.9169 27.1246 37.9172 27.115 37.9176 27.1054V27.1054L37.918 27.0931L37.9182 27.0816H20.1084C20.1085 27.0896 20.1088 27.0975 20.1091 27.1054L20.1095 27.1181L20.1098 27.1342C20.1098 29.894 17.8645 32.1392 15.1049 32.1392C12.3452 32.1392 10.0999 29.894 10.0999 27.1342C10.0999 27.1246 10.1003 27.1151 10.1006 27.1055L10.1007 27.1055V27.1054V27.1054L10.1011 27.0938L10.1013 27.0816H5.83257C4.93198 27.0816 4.19935 26.349 4.19935 25.4484V23.7098H1.61783C1.18134 23.7098 0.827545 23.356 0.827545 22.9195C0.827545 22.483 1.18143 22.1292 1.61783 22.1292H9.20428C9.64078 22.1292 9.99457 22.483 9.99457 22.9195C9.99457 23.356 9.64068 23.7098 9.20428 23.7098H5.77983V25.4484C5.77983 25.4775 5.80339 25.501 5.83247 25.501H10.375C11.0537 23.541 12.917 22.1292 15.1049 22.1292C17.2928 22.1292 19.156 23.541 19.8348 25.501H36.2308V19.5479C36.2308 19.1114 36.5847 18.7576 37.0211 18.7576C37.4576 18.7576 37.8114 19.1115 37.8114 19.5479V25.5012H38.1919C38.8706 23.5412 40.7339 22.1294 42.9218 22.1294C45.1097 22.1294 46.9729 23.5412 47.6517 25.5012H49.718V22.0241H48.8224C47.457 22.0241 46.3462 20.9134 46.3462 19.548V17.8621C46.3462 17.4256 46.7001 17.0718 47.1365 17.0718H49.5938C49.2593 16.0343 48.2852 15.2814 47.1381 15.2806L47.1359 15.2807L47.1339 15.2805H37.8116V16.1764C37.8116 16.6129 37.4577 16.9667 37.0213 16.9667C36.5848 16.9667 36.231 16.6128 36.231 16.1764V1.84611C36.231 1.81703 36.2074 1.79347 36.1784 1.79347H5.83247C5.80339 1.79347 5.77983 1.81703 5.77983 1.84611V16.1762C5.77983 16.6127 5.42594 16.9665 4.98954 16.9665C4.55305 16.9665 4.19926 16.6126 4.19926 16.1762V1.84611C4.19926 0.945511 4.93188 0.212891 5.83247 0.212891H36.1785C37.0791 0.212891 37.8117 0.945511 37.8117 1.84611V3.5848H43.7649C45.595 3.5848 47.084 5.0737 47.084 6.90387V7.7468C47.084 8.12661 46.8158 8.44364 46.4585 8.51954ZM43.7649 5.16528H37.8117V6.95651H45.5035V6.90387C45.5035 5.94521 44.7236 5.16528 43.7649 5.16528ZM37.8117 8.53699V13.7H46.1245L44.8338 8.53699H37.8117ZM11.6804 27.1344C11.6804 29.0228 13.2166 30.5589 15.1049 30.5589C16.9931 30.5589 18.5293 29.0228 18.5293 27.1344C18.5293 25.2461 16.9931 23.71 15.1049 23.71C13.2166 23.71 11.6804 25.2461 11.6804 27.1344ZM39.4975 27.1344C39.4975 29.0228 41.0337 30.5589 42.922 30.5589C44.8102 30.5589 46.3464 29.0228 46.3464 27.1344C46.3464 25.2461 44.8102 23.71 42.922 23.71C41.0337 23.71 39.4975 25.2461 39.4975 27.1344ZM48.8226 20.4436H49.7181V18.6522H47.9269V19.5479C47.9269 20.0418 48.3287 20.4436 48.8226 20.4436ZM13.4712 27.1342C13.4712 26.2336 14.2038 25.5009 15.1044 25.5009C16.005 25.5009 16.7376 26.2336 16.7376 27.1342C16.7376 28.0347 16.005 28.7674 15.1044 28.7674C14.2038 28.7674 13.4712 28.0347 13.4712 27.1342ZM42.9208 25.5009C42.0202 25.5009 41.2876 26.2336 41.2876 27.1342C41.2876 28.0347 42.0202 28.7674 42.9208 28.7674C43.8214 28.7674 44.554 28.0347 44.554 27.1342C44.554 26.2336 43.8214 25.5009 42.9208 25.5009ZM21.8473 22.1281H33.6485C34.085 22.1281 34.4388 22.4819 34.4388 22.9184C34.4388 23.3549 34.0849 23.7087 33.6485 23.7087H21.8473C21.4108 23.7087 21.057 23.3549 21.057 22.9184C21.057 22.4819 21.4109 22.1281 21.8473 22.1281ZM13.4172 18.7577H3.30184C2.86544 18.7577 2.51155 19.1115 2.51155 19.548C2.51155 19.9844 2.86535 20.3382 3.30184 20.3382H13.4172C13.8536 20.3382 14.2075 19.9844 14.2075 19.548C14.2075 19.1115 13.8536 18.7577 13.4172 18.7577ZM27.1897 8.02996C27.4982 7.72132 27.9987 7.72132 28.3073 8.02986C28.6158 8.33851 28.6158 8.83878 28.3072 9.14752L20.7207 16.734C20.5665 16.8883 20.3642 16.9654 20.162 16.9654C19.9598 16.9654 19.7575 16.8883 19.6032 16.734L15.3885 12.5192C15.0799 12.2106 15.0799 11.7103 15.3885 11.4017C15.6971 11.093 16.1974 11.093 16.5061 11.4017L20.162 15.0576L27.1897 8.02996Z" fill="#2950A3"/>
<path d="M47.7655 13.7475L47.4794 13.8191L47.527 14.0096L47.7212 14.0391L47.7655 13.7475ZM46.4585 8.51954L46.3972 8.23106L46.0983 8.29456L46.1724 8.59107L46.4585 8.51954ZM51.2986 17.8619L51.0037 17.8619V17.8619H51.2986ZM47.9253 27.0816V26.7867H47.6244L47.6305 27.0876L47.9253 27.0816ZM47.9255 27.0917L47.6307 27.0977L47.6308 27.1018L47.9255 27.0917ZM47.926 27.1055L48.2208 27.096L48.2208 27.0954L47.926 27.1055ZM47.9266 27.1233L48.2215 27.1198L48.2213 27.1138L47.9266 27.1233ZM47.9267 27.1342H48.2216L48.2216 27.1307L47.9267 27.1342ZM37.9176 27.1054L38.2125 27.1163V27.1054H37.9176ZM37.9176 27.1054L37.6226 27.0952V27.1054H37.9176ZM37.918 27.0931L38.2127 27.1034L38.2128 27.0996L37.918 27.0931ZM37.9182 27.0816L38.2131 27.088L38.2197 26.7867H37.9182V27.0816ZM20.1084 27.0816V26.7867H19.8102L19.8135 27.0849L20.1084 27.0816ZM20.1091 27.1054L20.4038 27.0953L20.4038 27.0945L20.1091 27.1054ZM20.1095 27.1181L20.4045 27.1132L20.4043 27.108L20.1095 27.1181ZM20.1098 27.1342H20.4048L20.4047 27.1293L20.1098 27.1342ZM10.1006 27.1055L9.80621 27.0871L9.80593 27.0947L10.1006 27.1055ZM10.1007 27.1055L10.395 27.1239L10.3956 27.1147V27.1055H10.1007ZM10.1007 27.1054L9.80574 27.0951V27.1054H10.1007ZM10.1011 27.0938L10.3958 27.1041L10.3959 27.1004L10.1011 27.0938ZM10.1013 27.0816L10.3962 27.0881L10.4029 26.7867H10.1013V27.0816ZM4.19935 23.7098H4.49427V23.4149H4.19935V23.7098ZM5.77983 23.7098V23.4149H5.48492V23.7098H5.77983ZM10.375 25.501V25.7959H10.585L10.6537 25.5975L10.375 25.501ZM19.8348 25.501L19.5561 25.5975L19.6248 25.7959H19.8348V25.501ZM36.2308 25.501V25.7959H36.5257V25.501H36.2308ZM37.8114 25.5012H37.5165V25.7961H37.8114V25.5012ZM38.1919 25.5012V25.7961H38.4019L38.4706 25.5977L38.1919 25.5012ZM47.6517 25.5012L47.373 25.5977L47.4417 25.7961H47.6517V25.5012ZM49.718 25.5012V25.7961H50.013V25.5012H49.718ZM49.718 22.0241H50.013V21.7292H49.718V22.0241ZM49.5938 17.0718V17.3668H49.9988L49.8745 16.9813L49.5938 17.0718ZM47.1381 15.2806L47.1383 14.9854L47.1246 14.986L47.1381 15.2806ZM47.1359 15.2807L47.108 15.5743L47.1287 15.5763L47.1494 15.5753L47.1359 15.2807ZM47.1339 15.2805L47.1618 14.9869L47.1478 14.9856H47.1339V15.2805ZM37.8116 15.2805V14.9856H37.5167V15.2805H37.8116ZM37.8117 3.5848H37.5168V3.87972H37.8117V3.5848ZM37.8117 5.16528V4.87036H37.5168V5.16528H37.8117ZM37.8117 6.95651H37.5168V7.25143H37.8117V6.95651ZM45.5035 6.95651V7.25143H45.7984V6.95651H45.5035ZM37.8117 13.7H37.5168V13.9949H37.8117V13.7ZM37.8117 8.53699V8.24207H37.5168V8.53699H37.8117ZM46.1245 13.7V13.9949H46.5023L46.4106 13.6285L46.1245 13.7ZM44.8338 8.53699L45.1199 8.46546L45.064 8.24207H44.8338V8.53699ZM49.7181 20.4436V20.7385H50.0131V20.4436H49.7181ZM49.7181 18.6522H50.0131V18.3573H49.7181V18.6522ZM47.9269 18.6522V18.3573H47.632V18.6522H47.9269ZM28.3073 8.02986L28.5158 7.82136L28.5158 7.82133L28.3073 8.02986ZM27.1897 8.02996L27.3982 8.2385L27.3983 8.23847L27.1897 8.02996ZM28.3072 9.14752L28.5157 9.35606L28.5157 9.35603L28.3072 9.14752ZM20.7207 16.734L20.5122 16.5254L20.512 16.5256L20.7207 16.734ZM19.6032 16.734L19.8119 16.5255L19.8118 16.5254L19.6032 16.734ZM15.3885 12.5192L15.18 12.7278L15.3885 12.5192ZM15.3885 11.4017L15.597 11.6102L15.5971 11.6102L15.3885 11.4017ZM16.5061 11.4017L16.2975 11.6102H16.2975L16.5061 11.4017ZM20.162 15.0576L19.9534 15.2661L20.162 15.4747L20.3705 15.2661L20.162 15.0576ZM48.0516 13.676L46.7446 8.44801L46.1724 8.59107L47.4794 13.8191L48.0516 13.676ZM51.5935 17.8619C51.5936 15.6326 49.9493 13.7817 47.8099 13.456L47.7212 14.0391C49.5771 14.3216 51.0038 15.9289 51.0037 17.8619L51.5935 17.8619ZM51.5935 26.2913V17.8619H51.0037V26.2913H51.5935ZM50.5083 27.3765C51.1076 27.3765 51.5935 26.8907 51.5935 26.2913H51.0037C51.0037 26.5649 50.7819 26.7867 50.5083 26.7867V27.3765ZM47.9253 27.3765H50.5083V26.7867H47.9253V27.3765ZM48.2204 27.0857L48.2202 27.0756L47.6305 27.0876L47.6307 27.0977L48.2204 27.0857ZM48.2208 27.0954L48.2203 27.0816L47.6308 27.1018L47.6313 27.1156L48.2208 27.0954ZM48.2213 27.1138L48.2208 27.096L47.6312 27.115L47.6318 27.1328L48.2213 27.1138ZM48.2216 27.1307L48.2215 27.1198L47.6317 27.1268L47.6318 27.1377L48.2216 27.1307ZM42.9218 32.4341C45.8443 32.4341 48.2216 30.0569 48.2216 27.1342H47.6318C47.6318 29.7311 45.5186 31.8442 42.9218 31.8442V32.4341ZM37.6219 27.1342C37.6219 30.0569 39.9993 32.4341 42.9218 32.4341V31.8442C40.325 31.8442 38.2118 29.7311 38.2118 27.1342H37.6219ZM37.6228 27.0946C37.6225 27.1033 37.6219 27.1183 37.6219 27.1342H38.2118C38.2118 27.1309 38.2119 27.1267 38.2123 27.1162L37.6228 27.0946ZM37.6226 27.1054V27.1054H38.2125V27.1054H37.6226ZM37.6232 27.0829L37.6228 27.0952L38.2123 27.1157L38.2127 27.1034L37.6232 27.0829ZM37.6234 27.0752L37.6231 27.0867L38.2128 27.0996L38.2131 27.088L37.6234 27.0752ZM20.1084 27.3765H37.9182V26.7867H20.1084V27.3765ZM20.4038 27.0945C20.4035 27.086 20.4034 27.0818 20.4033 27.0783L19.8135 27.0849C19.8137 27.0973 19.8141 27.1089 19.8144 27.1162L20.4038 27.0945ZM20.4043 27.108L20.4038 27.0953L19.8144 27.1155L19.8148 27.1282L20.4043 27.108ZM20.4047 27.1293L20.4044 27.1132L19.8147 27.123L19.8149 27.1392L20.4047 27.1293ZM15.1049 32.4341C18.0274 32.4341 20.4047 30.0569 20.4047 27.1342H19.8149C19.8149 29.7311 17.7016 31.8442 15.1049 31.8442V32.4341ZM9.80503 27.1342C9.80503 30.0569 12.1824 32.4341 15.1049 32.4341V31.8442C12.5081 31.8442 10.3949 29.7311 10.3949 27.1342H9.80503ZM9.80593 27.0947C9.80561 27.1034 9.80503 27.1183 9.80503 27.1342H10.3949C10.3949 27.1309 10.395 27.1267 10.3954 27.1163L9.80593 27.0947ZM9.80631 27.0871L9.80631 27.0871L10.395 27.1239L10.395 27.1239L9.80631 27.0871ZM9.80574 27.1054V27.1055H10.3956V27.1054H9.80574ZM9.80574 27.1054V27.1054H10.3956V27.1054H9.80574ZM9.80632 27.0836L9.80592 27.0951L10.3954 27.1157L10.3958 27.1041L9.80632 27.0836ZM9.80648 27.0751L9.80621 27.0873L10.3959 27.1004L10.3962 27.0881L9.80648 27.0751ZM5.83257 27.3765H10.1013V26.7867H5.83257V27.3765ZM3.90444 25.4484C3.90444 26.5119 4.7691 27.3765 5.83257 27.3765V26.7867C5.09485 26.7867 4.49427 26.1861 4.49427 25.4484H3.90444ZM3.90444 23.7098V25.4484H4.49427V23.7098H3.90444ZM1.61783 24.0047H4.19935V23.4149H1.61783V24.0047ZM0.532629 22.9195C0.532629 23.5189 1.01846 24.0047 1.61783 24.0047V23.4149C1.34421 23.4149 1.12246 23.1931 1.12246 22.9195H0.532629ZM1.61783 21.8343C1.01858 21.8343 0.532629 22.3201 0.532629 22.9195H1.12246C1.12246 22.6459 1.34429 22.4241 1.61783 22.4241V21.8343ZM9.20428 21.8343H1.61783V22.4241H9.20428V21.8343ZM10.2895 22.9195C10.2895 22.3201 9.80366 21.8343 9.20428 21.8343V22.4241C9.4779 22.4241 9.69965 22.6459 9.69965 22.9195H10.2895ZM9.20428 24.0047C9.80353 24.0047 10.2895 23.5189 10.2895 22.9195H9.69965C9.69965 23.1931 9.47783 23.4149 9.20428 23.4149V24.0047ZM5.77983 24.0047H9.20428V23.4149H5.77983V24.0047ZM6.07475 25.4484V23.7098H5.48492V25.4484H6.07475ZM5.83247 25.2061C5.96628 25.2061 6.07475 25.3146 6.07475 25.4484H5.48492C5.48492 25.6403 5.6405 25.7959 5.83247 25.7959V25.2061ZM10.375 25.2061H5.83247V25.7959H10.375V25.2061ZM15.1049 21.8343C12.787 21.8343 10.8147 23.3299 10.0963 25.4045L10.6537 25.5975C11.2927 23.7522 13.0469 22.4241 15.1049 22.4241V21.8343ZM20.1134 25.4045C19.3949 23.3299 17.4228 21.8343 15.1049 21.8343V22.4241C17.1628 22.4241 18.917 23.7522 19.5561 25.5975L20.1134 25.4045ZM36.2308 25.2061H19.8348V25.7959H36.2308V25.2061ZM35.9359 19.5479V25.501H36.5257V19.5479H35.9359ZM37.0211 18.4627C36.4218 18.4627 35.9359 18.9485 35.9359 19.5479H36.5257C36.5257 19.2743 36.7475 19.0525 37.0211 19.0525V18.4627ZM38.1063 19.5479C38.1063 18.9486 37.6205 18.4627 37.0211 18.4627V19.0525C37.2947 19.0525 37.5165 19.2743 37.5165 19.5479H38.1063ZM38.1063 25.5012V19.5479H37.5165V25.5012H38.1063ZM38.1919 25.2063H37.8114V25.7961H38.1919V25.2063ZM42.9218 21.8345C40.6039 21.8345 38.6316 23.3301 37.9132 25.4047L38.4706 25.5977C39.1096 23.7524 40.8638 22.4243 42.9218 22.4243V21.8345ZM47.9304 25.4047C47.2119 23.3301 45.2397 21.8345 42.9218 21.8345V22.4243C44.9797 22.4243 46.7339 23.7524 47.373 25.5977L47.9304 25.4047ZM49.718 25.2063H47.6517V25.7961H49.718V25.2063ZM49.4231 22.0241V25.5012H50.013V22.0241H49.4231ZM48.8224 22.319H49.718V21.7292H48.8224V22.319ZM46.0513 19.548C46.0513 21.0762 47.2941 22.319 48.8224 22.319V21.7292C47.6199 21.7292 46.6412 20.7505 46.6412 19.548H46.0513ZM46.0513 17.8621V19.548H46.6412V17.8621H46.0513ZM47.1365 16.7769C46.5373 16.7769 46.0513 17.2627 46.0513 17.8621H46.6412C46.6412 17.5885 46.863 17.3668 47.1365 17.3668V16.7769ZM49.5938 16.7769H47.1365V17.3668H49.5938V16.7769ZM47.1379 15.5755C48.153 15.5762 49.0166 16.2427 49.3131 17.1624L49.8745 16.9813C49.502 15.826 48.4175 14.9866 47.1383 14.9857L47.1379 15.5755ZM47.1494 15.5753L47.1516 15.5752L47.1246 14.986L47.1225 14.9861L47.1494 15.5753ZM47.106 15.5741L47.108 15.5743L47.1638 14.9871L47.1618 14.9869L47.106 15.5741ZM37.8116 15.5754H47.1339V14.9856H37.8116V15.5754ZM38.1065 16.1764V15.2805H37.5167V16.1764H38.1065ZM37.0213 17.2616C37.6205 17.2616 38.1065 16.7758 38.1065 16.1764H37.5167C37.5167 16.45 37.2948 16.6717 37.0213 16.6717V17.2616ZM35.9361 16.1764C35.9361 16.7756 36.4219 17.2616 37.0213 17.2616V16.6717C36.7477 16.6717 36.5259 16.4499 36.5259 16.1764H35.9361ZM35.9361 1.84611V16.1764H36.5259V1.84611H35.9361ZM36.1784 2.08838C36.0446 2.08838 35.9361 1.9799 35.9361 1.84611H36.5259C36.5259 1.65415 36.3703 1.49855 36.1784 1.49855V2.08838ZM5.83247 2.08838H36.1784V1.49855H5.83247V2.08838ZM6.07475 1.84611C6.07475 1.9799 5.96627 2.08838 5.83247 2.08838V1.49855C5.64051 1.49855 5.48492 1.65415 5.48492 1.84611H6.07475ZM6.07475 16.1762V1.84611H5.48492V16.1762H6.07475ZM4.98954 17.2614C5.5888 17.2614 6.07475 16.7756 6.07475 16.1762H5.48492C5.48492 16.4498 5.26309 16.6715 4.98954 16.6715V17.2614ZM3.90434 16.1762C3.90434 16.7754 4.39015 17.2614 4.98954 17.2614V16.6715C4.71595 16.6715 4.49417 16.4497 4.49417 16.1762H3.90434ZM3.90434 1.84611V16.1762H4.49417V1.84611H3.90434ZM5.83247 -0.0820259C4.769 -0.0820259 3.90434 0.782634 3.90434 1.84611H4.49417C4.49417 1.10839 5.09475 0.507807 5.83247 0.507807V-0.0820259ZM36.1785 -0.0820259H5.83247V0.507807H36.1785V-0.0820259ZM38.1066 1.84611C38.1066 0.782634 37.2419 -0.0820259 36.1785 -0.0820259V0.507807C36.9162 0.507807 37.5168 1.10839 37.5168 1.84611H38.1066ZM38.1066 3.5848V1.84611H37.5168V3.5848H38.1066ZM43.7649 3.28988H37.8117V3.87972H43.7649V3.28988ZM47.3789 6.90387C47.3789 4.91082 45.7579 3.28988 43.7649 3.28988V3.87972C45.4321 3.87972 46.7891 5.23658 46.7891 6.90387H47.3789ZM47.3789 7.7468V6.90387H46.7891V7.7468H47.3789ZM46.5198 8.80802C47.0103 8.70382 47.3789 8.26894 47.3789 7.7468H46.7891C46.7891 7.98429 46.6214 8.18345 46.3972 8.23106L46.5198 8.80802ZM37.8117 5.46019H43.7649V4.87036H37.8117V5.46019ZM38.1066 6.95651V5.16528H37.5168V6.95651H38.1066ZM45.5035 6.66159H37.8117V7.25143H45.5035V6.66159ZM45.2086 6.90387V6.95651H45.7984V6.90387H45.2086ZM43.7649 5.46019C44.5607 5.46019 45.2086 6.10809 45.2086 6.90387H45.7984C45.7984 5.78234 44.8864 4.87036 43.7649 4.87036V5.46019ZM38.1066 13.7V8.53699H37.5168V13.7H38.1066ZM46.1245 13.4051H37.8117V13.9949H46.1245V13.4051ZM44.5477 8.60852L45.8384 13.7716L46.4106 13.6285L45.1199 8.46546L44.5477 8.60852ZM37.8117 8.8319H44.8338V8.24207H37.8117V8.8319ZM15.1049 30.264C13.3795 30.264 11.9753 28.8599 11.9753 27.1344H11.3855C11.3855 29.1857 13.0538 30.8538 15.1049 30.8538V30.264ZM18.2344 27.1344C18.2344 28.8599 16.8302 30.264 15.1049 30.264V30.8538C17.156 30.8538 18.8242 29.1857 18.8242 27.1344H18.2344ZM15.1049 24.0049C16.8302 24.0049 18.2344 25.409 18.2344 27.1344H18.8242C18.8242 25.0832 17.156 23.4151 15.1049 23.4151V24.0049ZM11.9753 27.1344C11.9753 25.409 13.3795 24.0049 15.1049 24.0049V23.4151C13.0538 23.4151 11.3855 25.0832 11.3855 27.1344H11.9753ZM42.922 30.264C41.1966 30.264 39.7924 28.8599 39.7924 27.1344H39.2026C39.2026 29.1857 40.8709 30.8538 42.922 30.8538V30.264ZM46.0515 27.1344C46.0515 28.8599 44.6473 30.264 42.922 30.264V30.8538C44.9731 30.8538 46.6413 29.1857 46.6413 27.1344H46.0515ZM42.922 24.0049C44.6473 24.0049 46.0515 25.409 46.0515 27.1344H46.6413C46.6413 25.0832 44.9731 23.4151 42.922 23.4151V24.0049ZM39.7924 27.1344C39.7924 25.409 41.1966 24.0049 42.922 24.0049V23.4151C40.8709 23.4151 39.2026 25.0832 39.2026 27.1344H39.7924ZM49.7181 20.1486H48.8226V20.7385H49.7181V20.1486ZM49.4232 18.6522V20.4436H50.0131V18.6522H49.4232ZM47.9269 18.9471H49.7181V18.3573H47.9269V18.9471ZM48.2218 19.5479V18.6522H47.632V19.5479H48.2218ZM48.8226 20.1486C48.4916 20.1486 48.2218 19.8789 48.2218 19.5479H47.632C47.632 20.2046 48.1658 20.7385 48.8226 20.7385V20.1486ZM15.1044 25.206C14.041 25.206 13.1763 26.0707 13.1763 27.1342H13.7661C13.7661 26.3964 14.3667 25.7959 15.1044 25.7959V25.206ZM17.0326 27.1342C17.0326 26.0707 16.1679 25.206 15.1044 25.206V25.7959C15.8421 25.7959 16.4427 26.3964 16.4427 27.1342H17.0326ZM15.1044 29.0623C16.1679 29.0623 17.0326 28.1976 17.0326 27.1342H16.4427C16.4427 27.8719 15.8421 28.4725 15.1044 28.4725V29.0623ZM13.1763 27.1342C13.1763 28.1976 14.041 29.0623 15.1044 29.0623V28.4725C14.3667 28.4725 13.7661 27.8719 13.7661 27.1342H13.1763ZM41.5825 27.1342C41.5825 26.3964 42.1831 25.7959 42.9208 25.7959V25.206C41.8573 25.206 40.9927 26.0707 40.9927 27.1342H41.5825ZM42.9208 28.4725C42.1831 28.4725 41.5825 27.8719 41.5825 27.1342H40.9927C40.9927 28.1976 41.8573 29.0623 42.9208 29.0623V28.4725ZM44.2591 27.1342C44.2591 27.8719 43.6585 28.4725 42.9208 28.4725V29.0623C43.9843 29.0623 44.8489 28.1976 44.8489 27.1342H44.2591ZM42.9208 25.7959C43.6585 25.7959 44.2591 26.3964 44.2591 27.1342H44.8489C44.8489 26.0707 43.9843 25.206 42.9208 25.206V25.7959ZM33.6485 21.8332H21.8473V22.423H33.6485V21.8332ZM34.7337 22.9184C34.7337 22.319 34.2479 21.8332 33.6485 21.8332V22.423C33.9221 22.423 34.1439 22.6448 34.1439 22.9184H34.7337ZM33.6485 24.0036C34.2477 24.0036 34.7337 23.5178 34.7337 22.9184H34.1439C34.1439 23.192 33.922 23.4138 33.6485 23.4138V24.0036ZM21.8473 24.0036H33.6485V23.4138H21.8473V24.0036ZM20.7621 22.9184C20.7621 23.5178 21.2479 24.0036 21.8473 24.0036V23.4138C21.5737 23.4138 21.3519 23.192 21.3519 22.9184H20.7621ZM21.8473 21.8332C21.2481 21.8332 20.7621 22.319 20.7621 22.9184H21.3519C21.3519 22.6448 21.5738 22.423 21.8473 22.423V21.8332ZM3.30184 19.0526H13.4172V18.4627H3.30184V19.0526ZM2.80647 19.548C2.80647 19.2744 3.0283 19.0526 3.30184 19.0526V18.4627C2.70259 18.4627 2.21664 18.9486 2.21664 19.548H2.80647ZM3.30184 20.0433C3.02822 20.0433 2.80647 19.8216 2.80647 19.548H2.21664C2.21664 20.1473 2.70247 20.6332 3.30184 20.6332V20.0433ZM13.4172 20.0433H3.30184V20.6332H13.4172V20.0433ZM13.9125 19.548C13.9125 19.8215 13.6907 20.0433 13.4172 20.0433V20.6332C14.0164 20.6332 14.5024 20.1473 14.5024 19.548H13.9125ZM13.4172 19.0526C13.6907 19.0526 13.9125 19.2744 13.9125 19.548H14.5024C14.5024 18.9486 14.0164 18.4627 13.4172 18.4627V19.0526ZM28.5158 7.82133C28.0921 7.3976 27.4048 7.3976 26.9811 7.82146L27.3983 8.23847C27.5916 8.04503 27.9054 8.04503 28.0987 8.2384L28.5158 7.82133ZM28.5157 9.35603C28.9395 8.93215 28.9395 8.24519 28.5158 7.82136L28.0987 8.23837C28.2921 8.43182 28.2921 8.74542 28.0986 8.93902L28.5157 9.35603ZM20.9292 16.9425L28.5157 9.35606L28.0986 8.93899L20.5122 16.5254L20.9292 16.9425ZM20.162 17.2603C20.4391 17.2603 20.7175 17.1545 20.9294 16.9424L20.512 16.5256C20.4155 16.6222 20.2893 16.6705 20.162 16.6705V17.2603ZM19.3946 16.9424C19.6065 17.1544 19.8848 17.2603 20.162 17.2603V16.6705C20.0348 16.6705 19.9085 16.6222 19.8119 16.5255L19.3946 16.9424ZM15.18 12.7278L19.3947 16.9425L19.8118 16.5254L15.597 12.3107L15.18 12.7278ZM15.18 11.1931C14.7562 11.6169 14.7562 12.304 15.18 12.7278L15.597 12.3107C15.4036 12.1172 15.4036 11.8037 15.597 11.6102L15.18 11.1931ZM16.7146 11.1931C16.2908 10.7693 15.6037 10.7693 15.1799 11.1932L15.5971 11.6102C15.7904 11.4168 16.104 11.4167 16.2975 11.6102L16.7146 11.1931ZM20.3705 14.849L16.7146 11.1931L16.2975 11.6102L19.9534 15.2661L20.3705 14.849ZM26.9812 7.82142L19.9534 14.849L20.3705 15.2661L27.3982 8.2385L26.9812 7.82142Z" fill="white" mask="url(#path-1-inside-1)"/>
</svg>
