<svg width="88" height="115" viewBox="0 0 88 115" fill="none" xmlns="http://www.w3.org/2000/svg">
<path d="M58.6751 13.927C45.986 7.49993 30.7007 9.95733 20.6403 20.0417C8.94781 31.7616 7.77754 50.4493 17.9183 63.5107C18.2768 63.9724 18.8126 64.214 19.3542 64.214C19.7445 64.214 20.1377 64.0887 20.4695 63.8296C21.262 63.2115 21.4044 62.0667 20.7879 61.2724C11.7712 49.6591 12.8132 33.0415 23.2116 22.6186C32.1587 13.6499 45.7512 11.4642 57.0357 17.1796C57.9316 17.634 59.0252 17.2731 59.4781 16.3749C59.9308 15.4767 59.5716 14.3807 58.6751 13.927Z" fill="#F68527"/>
<path d="M72.9933 28.8764C72.5393 27.9921 71.4438 27.6373 70.5449 28.0837C69.6467 28.5304 69.286 29.6092 69.7398 30.4939C75.4511 41.6276 73.2643 55.0389 64.298 63.8657C53.8749 74.1265 37.2575 75.1546 25.6441 66.2573C24.8496 65.649 23.705 65.7895 23.0869 66.5713C22.4687 67.3532 22.6117 68.4803 23.406 69.0888C29.3556 73.6471 36.4722 75.8892 43.5662 75.8892C52.046 75.8892 60.4937 72.6851 66.8754 66.4025C76.9573 56.4774 79.4158 41.3968 72.9933 28.8764Z" fill="#F68527"/>
<path d="M68.2924 21.5761C67.8345 21.058 67.3534 20.5462 66.8625 20.0555C66.3716 19.5646 65.8601 19.0835 65.342 18.6256C64.5771 17.9493 63.4089 18.0217 62.7333 18.7866C62.0569 19.5513 62.1288 20.7194 62.8937 21.3954C63.3553 21.8032 63.8111 22.232 64.2486 22.6693C64.6857 23.1069 65.1145 23.5625 65.5225 24.0241C65.8876 24.4374 66.3966 24.6484 66.9081 24.6484C67.3431 24.6484 67.7797 24.4956 68.1313 24.1849C68.8964 23.5091 68.9684 22.3411 68.2924 21.5761Z" fill="#F68527"/>
<path d="M86.6544 46.7323C87.868 44.753 87.868 42.2945 86.654 40.3157L84.2596 36.4125C83.9443 35.8981 83.8222 35.2873 83.9165 34.6926L84.6302 30.1849C84.994 27.8876 84.0446 25.611 82.1531 24.2429L78.4423 21.5598C77.9517 21.2048 77.603 20.687 77.4602 20.1009L76.3795 15.6613C75.831 13.4062 74.0808 11.6666 71.8125 11.1208L67.3464 10.0463C66.7568 9.90438 66.2355 9.55771 65.8789 9.07001L63.1793 5.38026C61.8034 3.49985 59.513 2.5556 57.2028 2.91752L52.6667 3.62699C52.0685 3.72049 51.4538 3.59941 50.9368 3.28593L47.0098 0.90503C45.0189 -0.301789 42.5458 -0.301565 40.555 0.90503L36.6284 3.28526C36.1114 3.59896 35.4972 3.7196 34.8983 3.62632L30.3636 2.91684C28.0534 2.55538 25.7628 3.49918 24.3868 5.37959L21.6877 9.06844C21.3307 9.55614 20.8096 9.90281 20.2198 10.0447L15.7538 11.119C13.4858 11.6644 11.7354 13.4042 11.1864 15.6591L10.1055 20.0989C9.96268 20.685 9.61418 21.2032 9.12336 21.5577L5.4117 24.2413C3.52012 25.6089 2.57095 27.8853 2.93433 30.1826L3.64802 34.6921C3.74208 35.287 3.62027 35.8978 3.30494 36.4118L0.910122 40.3159C-0.303412 42.295 -0.303412 44.7535 0.910348 46.7323L3.30471 50.6357C3.62005 51.1501 3.74208 51.7609 3.64779 52.3556L2.93411 56.8636C2.57027 59.1606 3.51967 61.4375 5.41125 62.8053L9.122 65.4885C9.61261 65.843 9.96133 66.3612 10.1041 66.9473L11.1848 71.3869C11.7334 73.642 13.4835 75.3816 15.7518 75.9274L17.6167 76.3761L4.99554 104.363C4.72734 104.958 4.80155 105.65 5.1902 106.175C5.57862 106.701 6.2208 106.978 6.87223 106.9L17.0276 105.693L22.8778 114.032C23.2202 114.52 23.7789 114.807 24.3701 114.807C24.4267 114.807 24.484 114.804 24.5409 114.799C25.1937 114.738 25.7632 114.332 26.0314 113.738L38.9213 85.1527L40.5546 86.1427C41.55 86.7461 42.6658 87.0477 43.7819 87.0477C44.898 87.0477 46.0139 86.7459 47.0093 86.1427L48.7015 85.1171L61.6076 113.738C61.8758 114.333 62.4451 114.738 63.0981 114.799C63.1552 114.804 63.2122 114.807 63.2689 114.807C63.8601 114.807 64.419 114.52 64.7612 114.033L70.6114 105.693L80.7668 106.9C81.4177 106.977 82.0604 106.701 82.4488 106.176C82.8372 105.65 82.9119 104.959 82.6434 104.364L70.0157 76.3608L71.8105 75.9292C74.0786 75.3838 75.8289 73.644 76.378 71.3891L77.4589 66.9493C77.6016 66.3632 77.9504 65.845 78.441 65.4905L82.1526 62.8069C84.0442 61.4393 84.9934 59.1629 84.63 56.8656L83.9163 52.3561C83.8222 51.7612 83.944 51.1504 84.2594 50.6364L86.6544 46.7323ZM24.0248 109.342L19.3885 102.733C19.0042 102.185 18.3469 101.891 17.6797 101.971L9.63178 102.928L21.1308 77.4275C21.341 77.5811 21.5296 77.7652 21.685 77.978L24.3846 81.6677C24.641 82.0182 24.9293 82.3359 25.2435 82.6189L19.191 96.0408C18.78 96.9528 19.1901 98.023 20.1072 98.4318C20.349 98.5396 20.6019 98.5905 20.8504 98.5905C21.5456 98.5905 22.2097 98.1923 22.5122 97.521L28.5433 84.1468C29.1367 84.2278 29.7478 84.2264 30.3611 84.1305L34.8972 83.421C35.1688 83.3786 35.4433 83.3824 35.7106 83.4264L24.0248 109.342ZM78.0077 102.927L69.9595 101.971C69.2916 101.892 68.635 102.185 68.2507 102.733L63.6144 109.342L51.9237 83.4163C52.1689 83.3831 52.419 83.3831 52.6664 83.4217L57.201 84.1311C57.8391 84.2309 58.4749 84.2278 59.091 84.1365L65.1266 97.5214C65.4295 98.193 66.0931 98.591 66.7883 98.591C67.0371 98.591 67.29 98.5401 67.5316 98.4322C68.4487 98.0237 68.859 96.953 68.4478 96.0412L62.3722 82.5682C62.6652 82.2978 62.9361 81.9985 63.1777 81.6684L65.8768 77.9795C66.0469 77.747 66.2553 77.5477 66.4895 77.3865L78.0077 102.927ZM83.5464 44.8483L81.1516 48.7524C80.388 49.9978 80.0925 51.4773 80.3206 52.9182L81.0343 57.4275C81.1843 58.3758 80.7922 59.3156 80.0116 59.8802L76.2997 62.564C75.1116 63.4233 74.2667 64.6783 73.9211 66.0979L72.8402 70.5377C72.6135 71.4685 71.8913 72.1867 70.9547 72.4121L66.4886 73.4864C65.0603 73.8299 63.7976 74.6699 62.9332 75.8511L60.2341 79.54C59.6661 80.3165 58.721 80.7058 57.7667 80.5564L53.2319 79.847C51.7822 79.6203 50.2937 79.9136 49.0407 80.673L45.1143 83.0533C44.2926 83.5511 43.2713 83.5511 42.45 83.0533L38.5227 80.6728C37.546 80.0806 36.4263 79.7721 35.2933 79.7721C34.973 79.7721 34.6511 79.7967 34.3319 79.8467L29.7956 80.5562C28.8415 80.7055 27.8964 80.3156 27.3284 79.5395L24.6286 75.8498C23.7643 74.6688 22.5018 73.8288 21.0737 73.4853L16.6076 72.4107C15.6713 72.1854 14.9488 71.4674 14.7221 70.5364L13.6414 66.0968C13.2958 64.677 12.4511 63.4215 11.2626 62.5622L7.55208 59.8788C6.77118 59.3142 6.37937 58.3742 6.5296 57.426L7.24328 52.918C7.47133 51.4768 7.17629 49.9974 6.4123 48.7517L4.01794 44.8481C3.51697 44.0312 3.51697 43.0161 4.01794 42.1995L6.41276 38.2953C7.17652 37.05 7.47178 35.5705 7.24373 34.1295L6.53005 29.6202C6.38005 28.672 6.77208 27.7322 7.55276 27.1676L11.2646 24.4837C12.4527 23.6245 13.2976 22.3695 13.6432 20.9498L14.7241 16.51C14.9508 15.5792 15.6731 14.861 16.6096 14.6357L21.0758 13.5614C22.504 13.2179 23.7667 12.3779 24.6309 11.1966L27.33 7.50778C27.8979 6.73149 28.8431 6.34155 29.7974 6.49111L34.3322 7.20058C35.7821 7.42773 37.2706 7.13398 38.5234 6.37451L42.4498 3.99428C43.2715 3.49648 44.2928 3.49648 45.1141 3.99428L49.0414 6.37473C50.2942 7.13443 51.7829 7.42795 53.2322 7.20103L57.7685 6.49156C58.7222 6.34289 59.6677 6.73216 60.2357 7.50823L62.9355 11.198C63.7998 12.379 65.0623 13.219 66.4904 13.5625L70.9565 14.637C71.8928 14.8624 72.6153 15.5804 72.842 16.5114L73.9227 20.951C74.2683 22.3708 75.113 23.6263 76.3015 24.4855L80.0122 27.1687C80.7931 27.7333 81.185 28.6733 81.0347 29.6216L80.321 34.1295C80.093 35.5707 80.388 37.0502 81.152 38.2958L83.5464 42.1995C84.0476 43.0163 84.0476 44.0314 83.5464 44.8483Z" fill="#F68527"/>
<path d="M65.0507 37.7386C64.6511 36.5084 63.605 35.6495 62.3204 35.4971L51.4096 34.2033L46.8075 24.2264C46.2657 23.052 45.1256 22.3223 43.8321 22.3223C42.5388 22.3223 41.3985 23.052 40.8567 24.2264L36.2546 34.2035L25.3437 35.4973C24.0592 35.6497 23.0128 36.5086 22.6135 37.7388C22.2139 38.9683 22.5555 40.2782 23.5048 41.1563L31.5715 48.6162L29.4302 59.3929C29.1783 60.6617 29.6718 61.922 30.7184 62.6821C31.2957 63.1014 31.9657 63.3138 32.6398 63.3138C33.188 63.3138 33.7386 63.1735 34.2444 62.8904L43.8319 57.524L53.4193 62.8904C54.5481 63.5223 55.899 63.4426 56.9456 62.6823C57.9921 61.922 58.4856 60.6615 58.2335 59.3929L56.0923 48.6164L64.159 41.1565C65.1087 40.2785 65.4503 38.9687 65.0507 37.7386ZM52.8851 46.643C52.4222 47.0712 52.215 47.7092 52.3377 48.3276L54.5288 59.3554L44.7175 53.8636C44.4425 53.7097 44.1373 53.6326 43.8319 53.6326C43.5265 53.6326 43.2215 53.7095 42.9462 53.8636L33.1349 59.3554L35.326 48.3276C35.4492 47.7089 35.2418 47.0712 34.7786 46.643L26.5238 39.009L37.6898 37.6851C38.3159 37.6109 38.8586 37.2165 39.1229 36.6441L43.8321 26.4344L48.5413 36.6441C48.8056 37.2165 49.3481 37.6109 49.9744 37.6851L61.1399 39.009L52.8851 46.643Z" fill="#F68527"/>
</svg>
