<svg width="113" height="110" viewBox="0 0 113 110" fill="none" xmlns="http://www.w3.org/2000/svg">
<path d="M9.08426 98.6457H56.3235V95.0112H9.08426C6.07408 95.0112 3.63361 92.5707 3.63361 89.5605V9.61746C3.63361 6.60637 6.07408 4.16681 9.08426 4.16681H89.0273C92.0389 4.16681 94.478 6.60637 94.478 9.61746V51.4056H98.1125V9.61746C98.1066 4.60263 94.0426 0.539123 89.0273 0.533203H9.08426C4.07034 0.539123 0.00637555 4.60263 0 9.61746V89.5605C0.00637555 94.5754 4.07034 98.6389 9.08426 98.6457Z" fill="#F68527"/>
<path d="M7.26587 7.80154H10.899V11.4347H7.26587V7.80154Z" fill="#F68527"/>
<path d="M14.5352 7.80078H18.1697V11.4339H14.5352V7.80078Z" fill="#F68527"/>
<path d="M21.8047 7.80078H25.4388V11.4339H21.8047V7.80078Z" fill="#F68527"/>
<path d="M7.26587 15.0676H90.8421V18.7021H7.26587V15.0676Z" fill="#F68527"/>
<path d="M25.9666 22.8672L21.3516 27.4822C17.4507 24.8996 12.2268 25.692 9.2663 29.3152C6.30623 32.9378 6.57172 38.215 9.87972 41.5225C13.1873 44.8314 18.4649 45.0969 22.088 42.1364C25.7107 39.1763 26.5035 33.9515 23.9205 30.0515L28.5351 25.4365L25.9666 22.8672ZM16.3491 40.5033C13.3394 40.5033 10.8989 38.0633 10.8989 35.0532C10.8989 32.0425 13.3394 29.603 16.3491 29.603C17.1597 29.6057 17.9571 29.7915 18.6844 30.1472L15.0653 33.7667L17.6338 36.336L21.2555 32.7188C21.6112 33.4456 21.7975 34.243 21.8002 35.0532C21.8002 38.0633 19.3606 40.5033 16.3491 40.5033Z" fill="#F68527"/>
<path d="M30.886 29.6044H61.7724V33.2375H30.886V29.6044Z" fill="#F68527"/>
<path d="M30.886 36.8704H43.6039V40.5035H30.886V36.8704Z" fill="#F68527"/>
<path d="M47.2388 36.8704H72.6745V40.5035H47.2388V36.8704Z" fill="#F68527"/>
<path d="M65.407 29.6044H83.5759V33.2375H65.407V29.6044Z" fill="#F68527"/>
<path d="M25.9666 44.6699L21.3516 49.2849C17.4507 46.7024 12.2268 47.4947 9.2663 51.1179C6.30623 54.741 6.57172 60.0177 9.87972 63.3262C13.1873 66.6342 18.4649 66.8997 22.088 63.9391C25.7107 60.9786 26.5035 55.7556 23.9205 51.8543L28.5351 47.2393L25.9666 44.6699ZM16.3491 62.3065C13.3394 62.3065 10.8989 59.8661 10.8989 56.8559C10.8989 53.8453 13.3394 51.4048 16.3491 51.4048C17.1597 51.408 17.9571 51.5942 18.6844 51.9499L15.0653 55.5703L17.6338 58.1387L21.2555 54.5211C21.6112 55.2483 21.7975 56.0457 21.8002 56.8559C21.8002 59.8661 19.3606 62.3065 16.3491 62.3065Z" fill="#F68527"/>
<path d="M30.886 51.4049H61.7724V55.039H30.886V51.4049Z" fill="#F68527"/>
<path d="M30.886 58.6731H43.6039V62.3067H30.886V58.6731Z" fill="#F68527"/>
<path d="M47.2388 58.6731H61.7732V62.3067H47.2388V58.6731Z" fill="#F68527"/>
<path d="M65.407 51.4049H72.6742V55.039H65.407V51.4049Z" fill="#F68527"/>
<path d="M25.9666 66.4727L21.3516 71.0876C17.4507 68.5051 12.2268 69.2975 9.2663 72.9206C6.30623 76.5438 6.57172 81.8204 9.87972 85.1289C13.1873 88.4374 18.4649 88.7019 22.088 85.7419C25.7107 82.7813 26.5035 77.5579 23.9205 73.6565L28.5351 69.042L25.9666 66.4727ZM16.3491 84.1093C13.3394 84.1093 10.8989 81.6688 10.8989 78.6586C10.8989 75.648 13.3394 73.208 16.3491 73.208C17.1597 73.2107 17.9571 73.3965 18.6844 73.7526L15.0653 77.373L17.6338 79.9415L21.2555 76.3238C21.6112 77.0511 21.7975 77.8489 21.8002 78.6586C21.8002 81.6688 19.3606 84.1093 16.3491 84.1093Z" fill="#F68527"/>
<path d="M30.886 73.2099H54.5051V76.8444H30.886V73.2099Z" fill="#F68527"/>
<path d="M30.886 80.4759H43.6039V84.1095H30.886V80.4759Z" fill="#F68527"/>
<path d="M47.2388 80.4759H54.506V84.1095H47.2388V80.4759Z" fill="#F68527"/>
<path d="M85.3943 109.546C100.447 109.546 112.647 97.3436 112.647 82.2927C112.647 67.2405 100.447 55.0391 85.3943 55.0391C70.3421 55.0391 58.1406 67.2405 58.1406 82.2927C58.1584 97.3368 70.3494 109.528 85.3943 109.546ZM85.3943 58.6731C98.4382 58.6731 109.014 69.2479 109.014 82.2927C109.014 95.3376 98.4382 105.912 85.3943 105.912C72.349 105.912 61.7738 95.3376 61.7738 82.2927C61.7893 69.2543 72.3549 58.6877 85.3943 58.6731Z" fill="#F68527"/>
<path d="M74.311 83.2982L71.0586 84.9221L74.6927 92.1898C74.9531 92.7126 75.4504 93.0783 76.0274 93.1716C76.1212 93.1862 76.2151 93.1939 76.3093 93.1953C76.7907 93.1953 77.2529 93.0036 77.5944 92.6629L99.3961 70.8604L96.8277 68.291L76.8066 88.3112L74.311 83.2982Z" fill="#F68527"/>
</svg>
