<svg width="198" height="198" viewBox="0 0 198 198" fill="none" xmlns="http://www.w3.org/2000/svg">
<g clip-path="url(#clip0)">
<path d="M194.7 1.64941H9.9001C8.07767 1.64941 6.6001 3.12699 6.6001 4.94941V37.9494H13.2001V8.24941H39.6001V24.7494C39.6001 26.5718 41.0777 28.0494 42.9001 28.0494H69.3001C71.1225 28.0494 72.6001 26.5718 72.6001 24.7494V8.24941H99.0001V37.9494H105.6V8.24941H132V24.7494C132 26.5718 133.478 28.0494 135.3 28.0494H161.7C163.523 28.0494 165 26.5718 165 24.7494V8.24941H191.4V67.6494H135.3C133.478 67.6494 132 69.127 132 70.9494V90.7494C132 92.5718 133.478 94.0494 135.3 94.0494H161.7C163.523 94.0494 165 92.5718 165 90.7494V74.2494H191.4V133.649H155.1V140.249H194.7C196.523 140.249 198 138.772 198 136.949V4.94941C198 3.12699 196.523 1.64941 194.7 1.64941ZM66.0001 21.4494H46.2001V8.24941H66.0001V21.4494ZM158.4 21.4494H138.6V8.24941H158.4V21.4494ZM158.4 87.4494H138.6V74.2494H158.4V87.4494Z" fill="#F68527"/>
<path d="M178.199 54.4495H184.799V61.0495H178.199V54.4495Z" fill="#F68527"/>
<path d="M165 54.4495H171.6V61.0495H165V54.4495Z" fill="#F68527"/>
<path d="M178.199 120.45H184.799V127.05H178.199V120.45Z" fill="#F68527"/>
<path d="M165 120.45H171.6V127.05H165V120.45Z" fill="#F68527"/>
<path d="M148.5 127.05C148.492 119.764 142.587 113.859 135.3 113.85H125.4V47.8504C125.4 46.028 123.922 44.5504 122.1 44.5504H3.3C1.47757 44.5504 0 46.028 0 47.8504V193.05C0 194.873 1.47757 196.35 3.3 196.35H122.1C123.922 196.35 125.4 194.873 125.4 193.05V184.517L136.266 195.384L140.934 190.717L121.134 170.917C115.142 164.911 115.142 155.19 121.134 149.184C122.422 147.895 122.422 145.806 121.134 144.517L106.284 129.667C104.839 128.222 104.839 125.879 106.284 124.434C107.729 122.989 110.072 122.989 111.516 124.434L126.366 139.284L131.034 134.617L125.4 128.984V120.45H135.3C138.943 120.455 141.896 123.407 141.9 127.05V156.75C141.9 157.626 142.248 158.465 142.866 159.084L159.366 175.584L164.034 170.917L148.5 155.384V127.05ZM42.9 51.1504H82.5V62.7004C82.5 63.6116 81.7612 64.3504 80.85 64.3504H44.55C43.6388 64.3504 42.9 63.6116 42.9 62.7004V51.1504ZM116.184 119.767C112.179 115.727 105.657 115.698 101.616 119.704C97.5765 123.709 97.548 130.231 101.553 134.271C101.574 134.292 101.595 134.313 101.616 134.334L114.308 147.025C107.885 155.774 108.802 167.899 116.466 175.584L118.8 177.917V189.75H6.6V51.1504H36.3V57.7504H16.5C14.6776 57.7504 13.2 59.228 13.2 61.0504V179.85C13.2 181.673 14.6776 183.15 16.5 183.15H108.9V176.55H19.8V64.3504H36.465C37.2541 68.1891 40.6308 70.9459 44.55 70.9504H80.85C84.7692 70.9459 88.1459 68.1891 88.935 64.3504H105.6V110.55H112.2V61.0504C112.2 59.228 110.722 57.7504 108.9 57.7504H89.1V51.1504H118.8V122.384L116.184 119.767Z" fill="#F68527"/>
<path d="M36.3002 95.9831L32.0337 91.7162L27.3667 96.3832L33.9667 102.983C35.2554 104.272 37.3447 104.272 38.6337 102.983L51.8337 89.7832L47.1667 85.1162L36.3002 95.9831Z" fill="#F68527"/>
<path d="M36.3002 122.384L32.0337 118.117L27.3667 122.784L33.9667 129.384C35.2554 130.673 37.3447 130.673 38.6337 129.384L51.8337 116.184L47.1667 111.517L36.3002 122.384Z" fill="#F68527"/>
<path d="M36.3002 148.783L32.0337 144.516L27.3667 149.183L33.9667 155.783C35.2554 157.072 37.3447 157.072 38.6337 155.783L51.8337 142.583L47.1667 137.916L36.3002 148.783Z" fill="#F68527"/>
<path d="M59.4001 84.1503H95.7001V90.7503H59.4001V84.1503Z" fill="#F68527"/>
<path d="M59.4001 97.3506H89.1002V103.951H59.4001V97.3506Z" fill="#F68527"/>
<path d="M59.4001 110.55H95.7001V117.15H59.4001V110.55Z" fill="#F68527"/>
<path d="M59.4001 123.75H89.1002V130.35H59.4001V123.75Z" fill="#F68527"/>
<path d="M59.4001 136.95H95.7001V143.55H59.4001V136.95Z" fill="#F68527"/>
<path d="M59.4001 150.149H89.1002V156.749H59.4001V150.149Z" fill="#F68527"/>
</g>
<defs>
<clipPath id="clip0">
<rect width="198" height="198" fill="white"/>
</clipPath>
</defs>
</svg>
