<svg width="98" height="110" viewBox="0 0 98 110" fill="none" xmlns="http://www.w3.org/2000/svg">
<path d="M87.763 53.467C88.9394 53.467 89.8931 52.5133 89.8931 51.3368C89.8931 50.1604 88.9394 49.2067 87.763 49.2067C86.5865 49.2067 85.6328 50.1604 85.6328 51.3368C85.6328 52.5133 86.5865 53.467 87.763 53.467Z" fill="#F68527"/>
<path d="M91.6725 44.9759C92.7433 45.4631 94.0065 44.99 94.4936 43.9196C96.8447 38.7542 97.9875 33.5157 97.9875 27.905C97.9875 14.2639 87.6269 0.212891 73.7463 0.212891C62.4161 0.212891 53.2577 8.77466 48.9938 14.8433C44.7298 8.77466 35.5714 0.212891 24.2413 0.212891C10.3679 0.212891 0 14.2562 0 27.905C0 42.6696 8.10229 55.7017 26.2472 70.0916C27.4763 74.373 30.2726 78.0041 34.0826 80.2868V107.147C34.0826 108.323 35.0365 109.277 36.2128 109.277H61.7748C62.951 109.277 63.9049 108.323 63.9049 107.147V79.5319C64.578 78.1262 65.4028 76.7458 66.3124 74.218C73.0836 69.2632 78.547 64.6205 82.992 60.0398C83.8113 59.1954 83.7911 57.8468 82.9467 57.0275C82.1025 56.2083 80.7537 56.2287 79.9344 57.0729C76.5864 60.5234 72.6192 64.0236 67.9003 67.6897C68.0756 66.3504 68.1652 64.9988 68.1652 63.6406C68.1652 58.7061 68.1652 45.9194 68.1652 40.686C68.1652 37.1623 65.2985 34.2955 61.7748 34.2955C60.9431 34.2955 60.1488 34.457 59.4194 34.7473C58.6803 32.0354 56.1969 30.0352 53.2541 30.0352C52.4225 30.0352 51.6281 30.1966 50.8988 30.487C50.1596 27.7751 47.6763 25.7749 44.7334 25.7749C41.7906 25.7749 39.3073 27.7751 38.5681 30.487C37.8387 30.1966 37.0444 30.0352 36.2128 30.0352C32.6891 30.0352 29.8223 32.902 29.8223 36.4257V51.7032C27.343 52.5825 25.562 54.9502 25.562 57.7273V64.029C10.8683 51.6165 4.26033 40.3435 4.26033 27.905C4.26033 16.8222 12.4661 4.47322 24.2413 4.47322C34.0605 4.47322 43.9359 13.353 47.0741 19.8811C47.4285 20.6192 48.1749 21.0885 48.9938 21.0885C49.8126 21.0885 50.559 20.6192 50.9137 19.8811C54.0082 13.4431 63.815 4.47322 73.7463 4.47322C85.5212 4.47322 93.7272 16.8222 93.7272 27.905C93.7272 32.8941 92.7096 37.5551 90.6163 42.1547C90.1287 43.2256 90.6018 44.4886 91.6725 44.9759ZM59.6446 105.017H38.3429V81.1591H59.6446V105.017ZM42.6033 32.1653C42.6033 30.9908 43.5589 30.0352 44.7334 30.0352C45.908 30.0352 46.8636 30.9908 46.8636 32.1653V51.3368H42.6033V32.1653ZM36.2128 34.2955C37.3874 34.2955 38.3429 35.2511 38.3429 36.4257V51.3368H34.0826V36.4257C34.0826 35.2511 35.0382 34.2955 36.2128 34.2955ZM29.8223 57.7273C29.8223 56.5527 30.7779 55.5971 31.9525 55.595H46.4985C45.6194 58.0769 43.2502 59.8575 40.4731 59.8575H36.2128C35.0365 59.8575 34.0826 60.8114 34.0826 61.9876C34.0826 63.1639 35.0365 64.1178 36.2128 64.1178C39.7365 64.1178 42.6033 66.9846 42.6033 70.5083C42.6033 71.6846 43.5572 72.6385 44.7334 72.6385C45.9097 72.6385 46.8636 71.6846 46.8636 70.5083C46.8636 67.803 45.8482 65.3318 44.1805 63.4511C48.2307 61.9423 51.1239 58.0366 51.1239 53.467V36.4257C51.1239 35.2511 52.0795 34.2955 53.2541 34.2955C54.4287 34.2955 55.3843 35.2511 55.3843 36.4257V53.467C55.3843 54.6433 56.3382 55.5971 57.5144 55.5971C58.6907 55.5971 59.6446 54.6433 59.6446 53.467V40.686C59.6446 39.5114 60.6002 38.5558 61.7748 38.5558C62.9493 38.5558 63.9049 39.5114 63.9049 40.686V63.6406C63.9049 70.0137 61.8738 73.8944 60.4583 76.8988H36.7449C32.3698 74.5117 29.8223 69.9909 29.8223 65.2425V57.7273Z" fill="#F68527"/>
</svg>
