<svg width="100" height="100" viewBox="0 0 100 100" fill="none" xmlns="http://www.w3.org/2000/svg">
<path d="M23.9248 29.557C24.2873 29.5568 24.635 29.4127 24.8913 29.1564C25.1477 28.9 25.2918 28.5524 25.292 28.1898V23.0469C25.292 22.6843 25.1479 22.3365 24.8916 22.0801C24.6352 21.8237 24.2874 21.6797 23.9248 21.6797C23.5622 21.6797 23.2145 21.8237 22.9581 22.0801C22.7017 22.3365 22.5576 22.6843 22.5576 23.0469V28.1898C22.5576 28.3694 22.593 28.5472 22.6617 28.713C22.7304 28.8789 22.8311 29.0296 22.9581 29.1566C23.085 29.2835 23.2357 29.3843 23.4016 29.453C23.5675 29.5217 23.7453 29.557 23.9248 29.557Z" fill="#2950A3"/>
<path d="M47.1609 63.0758C47.0857 62.7809 46.9142 62.5195 46.6736 62.3331C46.4331 62.1467 46.1371 62.046 45.8328 62.0469H11.3836C11.0792 62.0458 10.7832 62.1465 10.5425 62.3329C10.3019 62.5193 10.1305 62.7808 10.0554 63.0758C9.66335 64.6109 9.46519 66.1891 9.46558 67.7734C9.46312 70.4883 10.0382 73.1727 11.1527 75.6483C12.2672 78.1239 13.8956 80.3341 15.9298 82.1321C17.964 83.9301 20.3573 85.2748 22.951 86.077C25.5447 86.8791 28.2794 87.1203 30.9735 86.7845C33.6675 86.4487 36.2593 85.5437 38.5768 84.1295C40.8943 82.7152 42.8844 80.8242 44.415 78.5819C45.9456 76.3396 46.9816 73.7973 47.4544 71.1239C47.9272 68.4504 47.8258 65.707 47.157 63.0758H47.1609ZM28.6101 84.1797C24.2604 84.1747 20.0903 82.4446 17.0146 79.3689C13.9389 76.2932 12.2088 72.1231 12.2039 67.7734C12.2037 66.7696 12.2965 65.7679 12.4812 64.7813H44.7398C45.1802 67.1489 45.0938 69.5845 44.4867 71.915C43.8795 74.2454 42.7665 76.4136 41.2268 78.2653C39.6871 80.1171 37.7584 81.607 35.5779 82.6292C33.3973 83.6513 31.0184 84.1807 28.6101 84.1797Z" fill="#2950A3"/>
<path d="M94.9219 88.8668H89.7953V85.5465C89.7953 85.1839 89.6513 84.8361 89.3949 84.5797C89.1385 84.3233 88.7907 84.1793 88.4281 84.1793H87.4531V24.9543H93.0672C93.4298 24.9543 93.7775 24.8102 94.0339 24.5538C94.2903 24.2974 94.4344 23.9497 94.4344 23.5871V18.8996C94.4342 18.5371 94.2901 18.1894 94.0337 17.9331C93.7774 17.6767 93.4297 17.5326 93.0672 17.5324H87.4531V11.8668C87.4529 11.5042 87.3088 11.1566 87.0525 10.9003C86.7961 10.6439 86.4485 10.4998 86.0859 10.4996H81.3984C81.0359 10.4998 80.6883 10.6439 80.4319 10.9003C80.1756 11.1566 80.0315 11.5042 80.0312 11.8668V17.5324H74.125V11.1121C75.0909 11.0636 75.9995 10.6391 76.6565 9.92939C77.3136 9.21972 77.6669 8.28116 77.641 7.31438C77.615 6.34761 77.2119 5.42933 76.5178 4.75588C75.8237 4.08242 74.8937 3.70724 73.9266 3.71053H57.5203C56.5507 3.70429 55.6174 4.07859 54.9207 4.75301C54.2241 5.42743 53.8198 6.34818 53.7946 7.31746C53.7695 8.28674 54.1255 9.22723 54.7861 9.9369C55.4468 10.6466 56.3595 11.0688 57.3281 11.1129V17.5324H55.1766C54.814 17.5326 54.4664 17.6767 54.21 17.9331C53.9537 18.1894 53.8096 18.5371 53.8094 18.8996V23.5871C53.8094 23.9497 53.9534 24.2974 54.2098 24.5538C54.4662 24.8102 54.814 24.9543 55.1766 24.9543H57.3281V60.2496C57.3272 61.9104 57.819 63.5341 58.7413 64.9152C59.6636 66.2964 60.9748 67.3729 62.5091 68.0086C64.0434 68.6443 65.7318 68.8105 67.3606 68.4863C68.9894 68.162 70.4855 67.3619 71.6594 66.1871C72.444 65.4107 73.0661 64.4858 73.4894 63.4663C73.9127 62.4469 74.1288 61.3534 74.125 60.2496V24.9543H80.0312V84.1793H79.0531C78.6906 84.1795 78.343 84.3236 78.0866 84.5799C77.8303 84.8363 77.6861 85.1839 77.6859 85.5465V88.8668H39.6742C43.5514 86.8354 46.7938 83.7748 49.0454 80.0212C51.2969 76.2676 52.4704 71.966 52.4371 67.589C52.4037 63.212 51.1648 58.9289 48.8564 55.21C46.5479 51.4911 43.2593 48.4802 39.3516 46.5082V42.0176C39.3516 42.0082 39.3516 42.0004 39.3516 41.991C39.3516 41.9816 39.3516 41.9738 39.3516 41.9644V36.7441C39.3516 36.7347 39.3516 36.7269 39.3516 36.7176C39.3516 36.7082 39.3516 36.7004 39.3516 36.691V31.4707C39.3516 31.4613 39.3516 31.4535 39.3516 31.4441C39.3516 31.4347 39.3516 31.4269 39.3516 31.4176V26.1972C39.3516 26.1879 39.3516 26.1801 39.3516 26.1707C39.3516 26.1613 39.3516 26.1535 39.3516 26.1441V20.9238C39.3516 20.9144 39.3516 20.9066 39.3516 20.8972C39.3516 20.8879 39.3516 20.8801 39.3516 20.8707V16.4058C40.3202 16.3618 41.2328 15.9395 41.8935 15.2299C42.5542 14.5202 42.9102 13.5797 42.8851 12.6104C42.8599 11.6411 42.4556 10.7204 41.7589 10.046C41.0623 9.37155 40.129 8.99726 39.1594 9.00349H18.0656C17.101 9.00421 16.1746 9.38126 15.4837 10.0544C14.7927 10.7276 14.3916 11.6438 14.3658 12.6081C14.3399 13.5725 14.6913 14.5088 15.3452 15.2181C15.9991 15.9273 16.9039 16.3534 17.8672 16.4058V46.5082C13.9595 48.4803 10.6709 51.4912 8.36255 55.2102C6.05418 58.9291 4.81534 63.2123 4.78208 67.5893C4.74882 71.9663 5.92243 76.2678 8.17401 80.0214C10.4256 83.775 13.6681 86.8355 17.5453 88.8668H5.07812C4.71559 88.867 4.36796 89.0111 4.11161 89.2674C3.85525 89.5238 3.71114 89.8714 3.71094 90.234V94.9215C3.71114 95.284 3.85525 95.6316 4.11161 95.888C4.36796 96.1443 4.71559 96.2884 5.07812 96.2887H94.9219C95.2844 96.2884 95.632 96.1443 95.8884 95.888C96.1447 95.6316 96.2889 95.284 96.2891 94.9215V90.234C96.2889 89.8714 96.1447 89.5238 95.8884 89.2674C95.632 89.0111 95.2844 88.867 94.9219 88.8668ZM82.7656 13.234H84.7188V17.5308H82.7656V13.234ZM56.5438 7.42146C56.5442 7.16259 56.6472 6.91444 56.8302 6.73139C57.0133 6.54833 57.2614 6.44531 57.5203 6.4449H73.9266C74.1856 6.4449 74.434 6.54779 74.6171 6.73093C74.8002 6.91407 74.9031 7.16246 74.9031 7.42146C74.9031 7.68046 74.8002 7.92886 74.6171 8.112C74.434 8.29514 74.1856 8.39803 73.9266 8.39803H57.5203C57.2614 8.39761 57.0133 8.29459 56.8302 8.11154C56.6472 7.92849 56.5442 7.68034 56.5438 7.42146ZM60.0594 11.1324H71.3875V17.5324H60.0625L60.0594 11.1324ZM56.5438 20.2668H91.7V22.2199H56.5438V20.2668ZM71.3875 27.4933H68.0672C67.7046 27.4933 67.3568 27.6374 67.1004 27.8938C66.844 28.1502 66.7 28.4979 66.7 28.8605C66.7 29.2231 66.844 29.5709 67.1004 29.8273C67.3568 30.0837 67.7046 30.2277 68.0672 30.2277H71.3906V32.7668H68.0672C67.7046 32.7668 67.3568 32.9108 67.1004 33.1672C66.844 33.4236 66.7 33.7714 66.7 34.134C66.7 34.4966 66.844 34.8443 67.1004 35.1007C67.3568 35.3571 67.7046 35.5012 68.0672 35.5012H71.3906V38.0402H68.0672C67.7046 38.0402 67.3568 38.1843 67.1004 38.4407C66.844 38.6971 66.7 39.0448 66.7 39.4074C66.7 39.77 66.844 40.1178 67.1004 40.3741C67.3568 40.6305 67.7046 40.7746 68.0672 40.7746H71.3906V43.3137H68.0672C67.7046 43.3137 67.3568 43.4577 67.1004 43.7141C66.844 43.9705 66.7 44.3182 66.7 44.6808C66.7 45.0434 66.844 45.3912 67.1004 45.6476C67.3568 45.904 67.7046 46.048 68.0672 46.048H71.3906V48.5871H68.0672C67.7046 48.5871 67.3568 48.7311 67.1004 48.9875C66.844 49.2439 66.7 49.5917 66.7 49.9543C66.7 50.3169 66.844 50.6646 67.1004 50.921C67.3568 51.1774 67.7046 51.3215 68.0672 51.3215H71.3906V60.2496C71.3877 61.7509 70.7901 63.1899 69.7285 64.2515C68.6669 65.3131 67.2279 65.9108 65.7266 65.9137C64.2249 65.912 62.7852 65.3147 61.7233 64.2529C60.6614 63.191 60.0642 61.7513 60.0625 60.2496V24.9543H71.3906L71.3875 27.4933ZM82.7625 24.9543H84.7156V84.1793H82.7625V24.9543ZM80.4187 86.9137H87.0594V88.8668H80.4187V86.9137ZM17.0891 12.7144C17.0893 12.4555 17.1922 12.2072 17.3753 12.0241C17.5584 11.841 17.8067 11.7381 18.0656 11.7379H39.1594C39.4184 11.7379 39.6668 11.8408 39.8499 12.0239C40.0331 12.207 40.1359 12.4554 40.1359 12.7144C40.1359 12.9734 40.0331 13.2218 39.8499 13.405C39.6668 13.5881 39.4184 13.691 39.1594 13.691H18.0656C17.8066 13.691 17.5582 13.5881 17.3751 13.405C17.1919 13.2218 17.0891 12.9734 17.0891 12.7144ZM7.51562 67.773C7.52347 63.7393 8.68463 59.7919 10.8622 56.3964C13.0397 53.0009 16.1428 50.2989 19.8055 48.609C20.0431 48.4997 20.2444 48.3246 20.3855 48.1045C20.5266 47.8843 20.6016 47.6283 20.6016 47.3668V16.4254H36.6172V19.5308H33.3C32.9374 19.5308 32.5896 19.6749 32.3333 19.9313C32.0769 20.1877 31.9328 20.5354 31.9328 20.898C31.9328 21.2606 32.0769 21.6084 32.3333 21.8648C32.5896 22.1212 32.9374 22.2652 33.3 22.2652H36.6172V24.8043H33.3C32.9374 24.8043 32.5896 24.9483 32.3333 25.2047C32.0769 25.4611 31.9328 25.8089 31.9328 26.1715C31.9328 26.5341 32.0769 26.8818 32.3333 27.1382C32.5896 27.3946 32.9374 27.5387 33.3 27.5387H36.6172V30.0777H33.3C32.9374 30.0777 32.5896 30.2218 32.3333 30.4782C32.0769 30.7346 31.9328 31.0823 31.9328 31.4449C31.9328 31.8075 32.0769 32.1553 32.3333 32.4116C32.5896 32.668 32.9374 32.8121 33.3 32.8121H36.6172V35.3512H33.3C32.9374 35.3512 32.5896 35.4952 32.3333 35.7516C32.0769 36.008 31.9328 36.3557 31.9328 36.7183C31.9328 37.0809 32.0769 37.4287 32.3333 37.6851C32.5896 37.9415 32.9374 38.0855 33.3 38.0855H36.6172V40.6246H33.3C32.9374 40.6246 32.5896 40.7686 32.3333 41.025C32.0769 41.2814 31.9328 41.6292 31.9328 41.9918C31.9328 42.3544 32.0769 42.7021 32.3333 42.9585C32.5896 43.2149 32.9374 43.359 33.3 43.359H36.6172V47.3668C36.6173 47.6284 36.6924 47.8844 36.8336 48.1046C36.9749 48.3248 37.1763 48.4998 37.4141 48.609C40.8546 50.1893 43.8063 52.6665 45.9596 55.7807C48.1128 58.8949 49.3882 62.5312 49.6519 66.3081C49.9156 70.085 49.1579 73.8633 47.4583 77.2464C45.7587 80.6296 43.1798 83.493 39.9923 85.5361C36.8048 87.5792 33.1261 88.7267 29.3423 88.8583C25.5585 88.9898 21.809 88.1005 18.4873 86.2837C15.1656 84.4669 12.3941 81.7896 10.4636 78.5326C8.53314 75.2756 7.51486 71.5591 7.51562 67.773ZM93.5547 93.5543H6.44531V91.6012H93.5547V93.5543Z" fill="#2950A3"/>
<path d="M25.1064 70.1499C24.3725 70.1499 23.655 70.3675 23.0448 70.7753C22.4345 71.1831 21.9589 71.7626 21.678 72.4407C21.3971 73.1188 21.3236 73.865 21.4668 74.5848C21.61 75.3047 21.9634 75.9659 22.4824 76.4849C23.0014 77.0039 23.6626 77.3573 24.3825 77.5005C25.1023 77.6437 25.8485 77.5702 26.5266 77.2893C27.2046 77.0084 27.7842 76.5328 28.192 75.9225C28.5997 75.3123 28.8174 74.5948 28.8174 73.8608C28.8164 72.877 28.425 71.9337 27.7293 71.238C27.0336 70.5422 26.0903 70.1509 25.1064 70.1499ZM25.1064 74.8374C24.9133 74.8374 24.7245 74.7801 24.5639 74.6728C24.4033 74.5655 24.2781 74.413 24.2042 74.2346C24.1303 74.0561 24.111 73.8598 24.1486 73.6703C24.1863 73.4809 24.2793 73.3069 24.4159 73.1703C24.5525 73.0337 24.7265 72.9407 24.9159 72.903C25.1054 72.8654 25.3017 72.8847 25.4802 72.9586C25.6586 73.0325 25.8111 73.1577 25.9184 73.3183C26.0257 73.4789 26.083 73.6677 26.083 73.8608C26.0828 74.1198 25.9798 74.3681 25.7968 74.5512C25.6137 74.7342 25.3654 74.8372 25.1064 74.8374Z" fill="#2950A3"/>
<path d="M37.9873 65.5601C37.2534 65.5601 36.5359 65.7777 35.9256 66.1855C35.3154 66.5932 34.8397 67.1728 34.5588 67.8509C34.278 68.529 34.2045 69.2751 34.3477 69.995C34.4909 70.7148 34.8443 71.3761 35.3633 71.895C35.8823 72.414 36.5435 72.7675 37.2633 72.9106C37.9832 73.0538 38.7293 72.9803 39.4074 72.6995C40.0855 72.4186 40.6651 71.943 41.0728 71.3327C41.4806 70.7224 41.6982 70.005 41.6982 69.271C41.6974 68.2871 41.3062 67.3436 40.6104 66.6479C39.9147 65.9521 38.9713 65.5609 37.9873 65.5601ZM37.9873 70.2476C37.7942 70.2476 37.6054 70.1903 37.4448 70.083C37.2842 69.9757 37.159 69.8232 37.0851 69.6447C37.0112 69.4663 36.9918 69.2699 37.0295 69.0805C37.0672 68.891 37.1602 68.717 37.2968 68.5805C37.4333 68.4439 37.6074 68.3509 37.7968 68.3132C37.9862 68.2755 38.1826 68.2949 38.361 68.3688C38.5395 68.4427 38.692 68.5679 38.7993 68.7285C38.9066 68.889 38.9639 69.0779 38.9639 69.271C38.9637 69.5299 38.8607 69.7782 38.6776 69.9613C38.4945 70.1444 38.2462 70.2474 37.9873 70.2476Z" fill="#2950A3"/>
<path d="M23.7393 52.6462C23.7393 53.3802 23.9569 54.0977 24.3647 54.7079C24.7724 55.3182 25.352 55.7938 26.0301 56.0747C26.7082 56.3556 27.4543 56.4291 28.1742 56.2859C28.894 56.1427 29.5552 55.7893 30.0742 55.2703C30.5932 54.7513 30.9466 54.0901 31.0898 53.3702C31.233 52.6504 31.1595 51.9042 30.8787 51.2261C30.5978 50.548 30.1221 49.9685 29.5119 49.5607C28.9016 49.1529 28.1842 48.9353 27.4502 48.9353C26.4664 48.9365 25.5232 49.3279 24.8275 50.0236C24.1319 50.7193 23.7405 51.6624 23.7393 52.6462ZM27.4502 51.6697C27.6433 51.6697 27.8322 51.727 27.9927 51.8343C28.1533 51.9416 28.2785 52.0941 28.3524 52.2725C28.4263 52.451 28.4457 52.6473 28.408 52.8368C28.3703 53.0262 28.2773 53.2002 28.1407 53.3368C28.0042 53.4734 27.8301 53.5664 27.6407 53.604C27.4513 53.6417 27.2549 53.6224 27.0765 53.5485C26.898 53.4746 26.7455 53.3494 26.6382 53.1888C26.5309 53.0282 26.4736 52.8394 26.4736 52.6462C26.4738 52.3873 26.5768 52.139 26.7599 51.9559C26.943 51.7728 27.1913 51.6699 27.4502 51.6697Z" fill="#2950A3"/>
</svg>
