<svg width="87" height="104" viewBox="0 0 87 104" fill="none" xmlns="http://www.w3.org/2000/svg">
<g clip-path="url(#clip0)">
<path d="M12.21 86.3457L20.3904 90.4355V99.5812C20.3904 100.52 21.1513 101.281 22.0896 101.281H40.1013C41.0396 101.281 41.8005 100.52 41.8005 99.5812V77.3963C41.8005 72.1898 37.8952 67.8723 32.7293 67.3543L32.5903 67.3394C29.6001 67.0396 24.3057 64.9943 22.2152 62.9038L18.3991 59.0889C17.115 57.8049 15.4084 57.0976 13.5935 57.0976V43.5028C13.5935 39.7548 10.5444 36.7054 6.79663 36.7054C3.04883 36.7054 -0.000244141 39.7548 -0.000244141 43.5028V66.5867C-0.000244141 74.9499 4.72324 82.6012 12.21 86.3457ZM3.39819 43.5028C3.39819 41.6288 4.92273 40.1041 6.79663 40.1041C8.67053 40.1041 10.1951 41.6288 10.1951 43.5028V58.0086C8.1227 59.207 6.79663 61.4413 6.79663 63.895C6.79663 65.7101 7.50385 67.4167 8.78795 68.7007L17.4896 77.4048C18.153 78.0685 19.229 78.0685 19.8927 77.405C20.5562 76.7415 20.5564 75.6655 19.8929 75.0017L11.1912 66.2975C10.5487 65.6553 10.1951 64.8021 10.1951 63.895C10.1951 62.4567 11.1053 61.1686 12.4605 60.6898C12.4606 60.6898 12.461 60.6897 12.4611 60.6895C12.4615 60.6893 12.462 60.6893 12.4623 60.6892C13.6345 60.2732 15.0248 60.5209 15.9962 61.4926L19.8123 65.3075C23.7521 69.2476 32.3599 70.7301 32.377 70.7348C35.8118 71.0791 38.4019 73.943 38.4019 77.3963V97.8819H23.7886V89.3852C23.7886 88.7415 23.4248 88.153 22.8493 87.8653L13.7298 83.3059C7.3572 80.1185 3.39819 73.7121 3.39819 66.5867V43.5028Z" fill="#2950A3"/>
<path d="M77.9949 83.9484C78.9333 83.9484 79.6941 83.1876 79.6941 82.249C79.6941 81.3105 78.9333 80.5497 77.9949 80.5497C77.0564 80.5497 76.2957 81.3105 76.2957 82.249C76.2957 83.1876 77.0564 83.9484 77.9949 83.9484Z" fill="#2950A3"/>
<path d="M80.2036 36.7057C76.4558 36.7057 73.4067 39.755 73.4067 43.5031V57.0978C71.5918 57.0978 69.8853 57.8051 68.6015 59.0891L64.7847 62.9043C62.6945 64.9947 57.4001 67.04 54.3967 67.341L54.2842 67.3532C49.105 67.8725 45.1997 72.1903 45.1997 77.3965V99.5815C45.1997 100.52 45.9606 101.281 46.8989 101.281H64.9106C65.849 101.281 66.6099 100.52 66.6099 99.5815V90.4358L72.1714 87.6553C73.0107 87.2356 73.351 86.215 72.9315 85.3755C72.5118 84.5362 71.491 84.1954 70.6518 84.6154L64.1508 87.8655C63.5752 88.1532 63.2114 88.7417 63.2114 89.3854V97.8822H48.5981V77.3965C48.5981 73.9433 51.1883 71.0794 54.6363 70.7337L54.7488 70.7215C58.4346 70.3519 64.5373 67.9582 67.1874 65.3079L71.0042 61.4927C71.9784 60.5181 73.3714 60.2756 74.5377 60.6894C74.5381 60.6896 74.5386 60.6896 74.5389 60.6898C74.5391 60.6898 74.5394 60.6899 74.5396 60.6901C75.8949 61.1688 76.8052 62.4569 76.8052 63.8952C76.8052 64.8023 76.4516 65.6556 75.8093 66.2981L67.1076 75.0022C66.444 75.6657 66.4442 76.7418 67.1077 77.4054C67.7709 78.069 68.8472 78.069 69.5108 77.4052L78.2125 68.7013C79.4964 67.417 80.2036 65.7103 80.2036 63.8952C80.2036 61.4415 78.8775 59.2072 76.8052 58.0089V43.5031C76.8052 41.629 78.3297 40.1044 80.2036 40.1044C82.0775 40.1044 83.602 41.629 83.602 43.5031V66.587C83.602 69.6961 82.8175 72.7828 81.3331 75.5133C80.8847 76.338 81.1897 77.3697 82.0143 77.818C82.8386 78.2663 83.8707 77.9616 84.3188 77.1367C86.0732 73.9095 87.0005 70.2615 87.0005 66.587V43.5031C87.0005 39.755 83.9514 36.7057 80.2036 36.7057Z" fill="#2950A3"/>
<path d="M31.4532 33.8355C38.1063 33.8355 42.7466 29.3182 42.7466 23.0646C42.7466 17.0108 38.5365 12.6471 32.8207 12.6471C30.2701 12.6471 28.0115 13.6612 26.8437 15.044H26.6593L27.5659 6.70082H41.1025V1.93766H22.8488L21.2048 18.1631L26.352 19.0082C27.4122 17.8405 29.4097 17.0569 31.2996 17.0722C34.7567 17.0876 37.2459 19.6382 37.2305 23.2029C37.2459 26.7215 34.8182 29.226 31.4532 29.226C28.6107 29.226 26.3213 27.4283 26.1216 24.8469H20.5902C20.7438 30.0711 25.3072 33.8355 31.4532 33.8355ZM57.1454 34.0045C64.7358 34.0199 69.2685 28.0275 69.2685 17.7022C69.2685 7.43835 64.705 1.50744 57.1454 1.50744C49.5858 1.50744 45.0378 7.42298 45.0224 17.7022C45.0224 28.0121 49.5551 34.0045 57.1454 34.0045ZM57.1454 29.1953C53.2274 29.1953 50.7689 25.2618 50.7843 17.7022C50.7997 10.2041 53.2427 6.25524 57.1454 6.25524C61.0635 6.25524 63.5066 10.2041 63.5219 17.7022C63.5219 25.2618 61.0789 29.1953 57.1454 29.1953Z" fill="#2950A3"/>
<path d="M25.4207 54.5281C27.1953 54.5281 28.2211 53.6157 28.7685 52.0739L32.6512 41.2502L30.2159 41.2376L27.9819 48.5373H27.8812L25.6536 41.2376H23.2371L26.7422 51.1048L26.5472 51.6271C26.1255 52.7284 25.4585 52.8039 24.4642 52.5144L23.9356 54.289C24.244 54.4149 24.7977 54.5281 25.4207 54.5281ZM37.208 51.0922C39.4608 51.0922 41.0089 49.991 41.4116 48.3108L39.2846 48.0717C38.9763 48.8897 38.2211 49.3176 37.2395 49.3176C35.7669 49.3176 34.7915 48.3485 34.7727 46.6935H41.506V45.995C41.506 42.6032 39.4671 41.1118 37.0884 41.1118C34.3196 41.1118 32.5135 43.1444 32.5135 46.1272C32.5135 49.1603 34.2944 51.0922 37.208 51.0922ZM34.779 45.1581C34.8482 43.9247 35.7606 42.8863 37.1199 42.8863C38.4288 42.8863 39.3098 43.8429 39.3224 45.1581H34.779ZM45.24 51.0985C46.7566 51.0985 47.6628 50.3874 48.0781 49.5757H48.1536V50.9034H50.3435V44.4344C50.3435 41.8795 48.2606 41.1118 46.4168 41.1118C44.3842 41.1118 42.8236 42.0179 42.3201 43.7799L44.4471 44.082C44.6736 43.4212 45.3155 42.8549 46.4294 42.8549C47.4866 42.8549 48.0655 43.3961 48.0655 44.3463V44.384C48.0655 45.0385 47.3796 45.07 45.6742 45.2525C43.7989 45.4538 42.0055 46.0139 42.0055 48.1912C42.0055 50.0917 43.3962 51.0985 45.24 51.0985ZM45.8315 49.4246C44.8813 49.4246 44.2017 48.9904 44.2017 48.1535C44.2017 47.2788 44.9631 46.9138 45.9826 46.769C46.5804 46.6872 47.776 46.5362 48.0718 46.2971V47.4361C48.0718 48.5122 47.2034 49.4246 45.8315 49.4246ZM51.6595 50.9034H53.9375V45.221C53.9375 43.9939 54.8625 43.1255 56.1148 43.1255C56.4987 43.1255 56.9769 43.1947 57.172 43.2576V41.1621C56.9643 41.1244 56.6057 41.0992 56.3539 41.0992C55.2464 41.0992 54.3213 41.7285 53.9689 42.8486H53.8683V41.2376H51.6595V50.9034ZM65.3503 43.7925C65.0357 42.1564 63.7268 41.1118 61.4613 41.1118C59.133 41.1118 57.5472 42.2571 57.5535 44.0442C57.5472 45.4538 58.4156 46.3852 60.272 46.769L61.9207 47.1151C62.808 47.3102 63.2233 47.6689 63.2233 48.2164C63.2233 48.8771 62.506 49.3743 61.4236 49.3743C60.379 49.3743 59.6993 48.9212 59.5043 48.0528L57.2829 48.2667C57.5661 50.0413 59.0575 51.0922 61.4299 51.0922C63.8463 51.0922 65.5517 49.84 65.558 48.0087C65.5517 46.6306 64.6644 45.7874 62.8395 45.3909L61.1908 45.0385C60.2091 44.8183 59.8189 44.4784 59.8252 43.9184C59.8189 43.2639 60.5426 42.8108 61.4928 42.8108C62.5437 42.8108 63.0975 43.3835 63.2737 44.0191L65.3503 43.7925Z" fill="#2950A3"/>
</g>
<defs>
<clipPath id="clip0">
<rect width="87" height="104" fill="white"/>
</clipPath>
</defs>
</svg>
