<svg width="100" height="100" viewBox="0 0 100 100" fill="none" xmlns="http://www.w3.org/2000/svg">
<path d="M94.4445 90.4762C91.8194 90.4762 89.6826 92.613 89.6826 95.2381C89.6826 97.8632 91.8194 100 94.4445 100C97.0696 100 99.2064 97.8632 99.2064 95.2381C99.2064 92.613 97.0696 90.4762 94.4445 90.4762ZM94.4445 96.8254C93.5703 96.8254 92.8572 96.1139 92.8572 95.2381C92.8572 94.3623 93.5703 93.6508 94.4445 93.6508C95.3188 93.6508 96.0318 94.3623 96.0318 95.2381C96.0318 96.1139 95.3188 96.8254 94.4445 96.8254Z" fill="#2950A3"/>
<path d="M10.3175 4.7619C10.3175 2.13681 8.1807 0 5.55561 0C2.93051 0 0.793701 2.13681 0.793701 4.7619C0.793701 7.387 2.93051 9.52381 5.55561 9.52381C8.1807 9.52381 10.3175 7.387 10.3175 4.7619ZM3.9683 4.7619C3.9683 3.88765 4.68135 3.1746 5.55561 3.1746C6.42986 3.1746 7.14291 3.88765 7.14291 4.7619C7.14291 5.63616 6.42986 6.34921 5.55561 6.34921C4.68135 6.34921 3.9683 5.63616 3.9683 4.7619Z" fill="#2950A3"/>
<path d="M86.0654 62.9031L82.9304 56.6338C83.5954 55.2844 84.165 53.9211 84.6332 52.564L91.2699 50.3512V32.1887L84.6332 29.9759C84.1666 28.6188 83.5954 27.2555 82.9304 25.9061L86.0685 19.6306L73.2267 6.78876L66.9512 9.92694C65.6018 9.26194 64.2385 8.69073 62.8814 8.22415L60.6686 1.5874H42.5061L40.2933 8.22415C38.9362 8.69073 37.5729 9.26194 36.2236 9.92694L29.948 6.78876L17.1062 19.6306L20.2444 25.9061C19.5794 27.2555 19.0082 28.6188 18.5416 29.9759L11.9048 32.1887V50.3496L18.5416 52.5616C19.0051 53.9095 19.5685 55.2604 20.2273 56.5989L18.1858 60.3176H8.73022V92.0636H19.8413V87.3017H31.8825L36.6444 92.0636H45.2382V93.6509C45.2382 97.1526 48.0857 100 51.5874 100C55.089 100 57.9366 97.1526 57.9366 93.6509V92.0636H69.0492C71.6743 92.0636 73.8111 89.9268 73.8111 87.3017C73.8111 86.0779 73.3337 84.9719 72.5734 84.1271C73.3353 83.2823 73.8111 82.1763 73.8111 80.9525C73.8111 79.7287 73.3337 78.6227 72.5734 77.7779C73.1795 77.1051 73.5933 76.265 73.7383 75.3287L86.0654 62.9031ZM23.4306 55.8951C22.5571 54.2179 21.8448 52.5128 21.3124 50.8302L21.0682 50.059L15.0794 48.0617V34.4766L21.0682 32.4809L21.3108 31.7082C21.841 30.0271 22.554 28.322 23.4283 26.6448L23.8018 25.9255L20.9683 20.2576L30.5734 10.6524L36.2414 13.486L36.9606 13.1132C38.6394 12.2381 40.3429 11.5259 42.024 10.995L42.7968 10.7524L44.7956 4.76201H58.3807L60.3764 10.7508L61.1492 10.9934C62.8302 11.5235 64.5353 12.2366 66.2126 13.1108L66.9318 13.4844L72.5997 10.6508L82.2049 20.256L79.3713 25.924L79.7441 26.6432C80.6192 28.322 81.3314 30.0255 81.8624 31.7066L82.1049 32.4793L88.0953 34.4782V48.0633L82.1065 50.059L81.8624 50.8302C81.3299 52.5128 80.6176 54.2179 79.7441 55.8951L79.3713 56.6144L82.208 62.2862L72.8284 71.7379C72.7478 71.6317 72.6617 71.5271 72.5734 71.4287C73.3353 70.5839 73.8111 69.4779 73.8111 68.2541C73.8111 65.7778 71.9045 63.7619 69.4871 63.5363C76.2208 58.1397 80.1588 50.0412 80.1588 41.2699C80.1588 25.5163 67.341 12.6985 51.5874 12.6985C35.8337 12.6985 23.0159 25.5163 23.0159 41.2699C23.0159 49.935 26.9555 58.0862 33.6426 63.4922H20.0653L23.822 56.6477L23.4306 55.8951ZM70.6365 80.9525C70.6365 81.8283 69.9235 82.5398 69.0492 82.5398H56.3493C55.475 82.5398 54.762 81.8283 54.762 80.9525C54.762 80.0767 55.475 79.3652 56.3493 79.3652H69.0492C69.9235 79.3652 70.6365 80.0767 70.6365 80.9525ZM47.7555 41.2699H55.4192L57.9366 38.7526V31.7461C59.6874 31.7461 61.1112 33.1699 61.1112 34.9207V42.2L55.692 47.6191H47.4827L42.0636 42.2V34.9207C42.0636 33.1699 43.4873 31.7461 45.2382 31.7461V38.7526L47.7555 41.2699ZM48.4128 50.7938H54.762V57.143H48.4128V50.7938ZM57.9366 49.8637L64.2858 43.5145V34.9207C64.2858 31.4191 61.4382 28.5715 57.9366 28.5715H54.762V37.4381L54.1047 38.0953H49.07L48.4128 37.4381V28.5715H45.2382C41.7365 28.5715 38.889 31.4191 38.889 34.9207V43.5145L45.2382 49.8637V57.143H41.4063L41.3063 57.2429C35.8872 53.7459 32.5397 47.7509 32.5397 41.2699C32.5397 30.7665 41.0839 22.2223 51.5874 22.2223C62.0908 22.2223 70.635 30.7665 70.635 41.2699C70.635 47.7036 67.4209 53.5956 62.0412 57.143H57.9366V49.8637ZM73.8096 41.2699C73.8096 29.0156 63.8417 19.0477 51.5874 19.0477C39.3331 19.0477 29.3651 29.0156 29.3651 41.2699C29.3651 48.6019 33.0125 55.4286 38.9951 59.5541L36.7095 61.8398C30.1177 57.0655 26.1905 49.4242 26.1905 41.2699C26.1905 27.2671 37.5845 15.8731 51.5874 15.8731C65.5902 15.8731 76.9842 27.2671 76.9842 41.2699C76.9842 49.1142 73.4383 56.3524 67.3844 61.1507C67.2031 60.0254 66.6287 59.0411 65.8033 58.3257C70.8621 54.1257 73.8096 47.9416 73.8096 41.2699ZM69.0492 66.6668C69.9235 66.6668 70.6365 67.3783 70.6365 68.2541C70.6365 69.1299 69.9235 69.8414 69.0492 69.8414H56.3493C55.475 69.8414 54.762 69.1299 54.762 68.2541C54.762 67.3783 55.475 66.6668 56.3493 66.6668H69.0492ZM56.3493 76.1906C55.475 76.1906 54.762 75.4791 54.762 74.6033C54.762 73.7275 55.475 73.016 56.3493 73.016H69.0492C69.9235 73.016 70.6365 73.7275 70.6365 74.6033C70.6365 75.4791 69.9235 76.1906 69.0492 76.1906H56.3493ZM16.6667 88.889H11.9048V63.4922H16.6667V88.889ZM37.9589 88.889L33.197 84.1271H19.8413V66.6668H36.3716L42.7208 60.3176H62.6985C63.5727 60.3176 64.2858 61.0291 64.2858 61.9049C64.2858 62.7807 63.5727 63.4922 62.6985 63.4922H46.1682L39.354 70.3064L41.5985 72.5509L45.2382 68.9113V88.889H37.9589ZM51.5874 96.8255C49.8365 96.8255 48.4128 95.4017 48.4128 93.6509V66.6668H51.8796C51.7013 67.1651 51.5874 67.6953 51.5874 68.2541C51.5874 69.4779 52.0648 70.5839 52.8251 71.4287C52.0632 72.2735 51.5874 73.3795 51.5874 74.6033C51.5874 75.8271 52.0648 76.9331 52.8251 77.7779C52.0632 78.6227 51.5874 79.7287 51.5874 80.9525C51.5874 82.1763 52.0648 83.2823 52.8251 84.1271C52.0632 84.9719 51.5874 86.0779 51.5874 87.3017C51.5874 89.368 52.9189 91.1142 54.762 91.7714V93.6509C54.762 95.4017 53.3382 96.8255 51.5874 96.8255ZM69.0492 88.889H56.3493C55.475 88.889 54.762 88.1775 54.762 87.3017C54.762 86.4259 55.475 85.7144 56.3493 85.7144H69.0492C69.9235 85.7144 70.6365 86.4259 70.6365 87.3017C70.6365 88.1775 69.9235 88.889 69.0492 88.889Z" fill="#2950A3"/>
<path d="M3.96826 14.2858H7.14287V17.4604H3.96826V14.2858Z" fill="#2950A3"/>
<path d="M3.96826 22.2222H7.14287V25.3968H3.96826V22.2222Z" fill="#2950A3"/>
<path d="M3.96826 30.1587H7.14287V33.3333H3.96826V30.1587Z" fill="#2950A3"/>
<path d="M92.8572 66.6666H96.0318V69.8412H92.8572V66.6666Z" fill="#2950A3"/>
<path d="M92.8572 74.6031H96.0318V77.7777H92.8572V74.6031Z" fill="#2950A3"/>
<path d="M92.8572 82.5397H96.0318V85.7143H92.8572V82.5397Z" fill="#2950A3"/>
</svg>
