<svg width="100" height="100" viewBox="0 0 100 100" fill="none" xmlns="http://www.w3.org/2000/svg">
<g clip-path="url(#clip0)">
<path d="M100 85.0006C99.9973 82.8827 98.6627 80.9956 96.6667 80.2873V36.6672C96.6667 35.7468 95.9204 35.0006 95 35.0006H91.6667V13.3339C91.6625 9.6537 88.6802 6.6714 85 6.66724H41.6667C37.9865 6.6714 35.0042 9.6537 35 13.3339V45.2872C32.3979 46.2056 31.0331 49.0595 31.9515 51.6614C32.2581 52.5302 32.799 53.2972 33.5142 53.8779L22.2358 63.7462C21.8742 64.0627 21.6667 64.52 21.6667 65.0006V76.6673C21.6667 76.926 21.7269 77.1812 21.8427 77.4127L23.5094 80.746C23.7917 81.3106 24.3687 81.6673 25 81.6673H30C30.9204 81.6673 31.6667 80.921 31.6667 80.0006H35V76.6673H31.6667V73.3339H35V70.0006H31.6667V69.0241L37.3571 63.3339H45.9762L51.6667 69.0241V70.0006H48.3333V73.3339H51.6667V76.6673H48.3333V80.0006H51.6667C51.6667 80.921 52.4129 81.6673 53.3333 81.6673H58.3333C58.9646 81.6673 59.5417 81.3106 59.824 80.746L61.4906 77.4127C61.6065 77.1812 61.6667 76.926 61.6667 76.6673V65.0006C61.6667 64.52 61.4592 64.0627 61.0975 63.7462L49.8192 53.8779C51.9617 52.1389 52.2887 48.9925 50.5496 46.85C49.969 46.1347 49.2019 45.5939 48.3333 45.2872V20.0006H78.3333V35.0006H75C74.0796 35.0006 73.3333 35.7468 73.3333 36.6672V50.0006H76.6667V38.3339H78.5444C79.4635 41.8993 83.0987 44.0445 86.6642 43.1254C89.0144 42.5195 90.8498 40.6841 91.4556 38.3339H93.3333V80.0006H81.6667V63.3339H85C85.9204 63.3339 86.6667 62.5877 86.6667 61.6672V55.0006C86.6667 54.0802 85.9204 53.3339 85 53.3339H56.6667V56.6672H83.3333V60.0006H63.3333V63.3339H78.3333V96.6673H26.6667V88.3339C26.6667 87.4135 25.9204 86.6673 25 86.6673H15C14.0796 86.6673 13.3333 87.4135 13.3333 88.3339V96.6673H8.33333V63.3339H20V60.0006H3.33333V56.6672H26.6667V53.3339H1.66667C0.74625 53.3339 0 54.0802 0 55.0006V61.6672C0 62.5877 0.74625 63.3339 1.66667 63.3339H5V98.3339C5 99.2543 5.74625 100.001 6.66667 100.001H95C95.9204 100.001 96.6667 99.2543 96.6667 98.3339V89.7139C98.6627 89.0056 99.9973 87.1185 100 85.0006ZM88.3333 13.3339C88.3333 15.1749 86.841 16.6672 85 16.6672C83.159 16.6672 81.6667 15.1749 81.6667 13.3339C81.6667 11.4929 83.159 10.0006 85 10.0006C86.84 10.0027 88.3312 11.4939 88.3333 13.3339ZM41.6667 10.0006C43.5077 10.0006 45 11.4929 45 13.3339C45 15.1749 43.5077 16.6672 41.6667 16.6672C39.8256 16.6672 38.3333 15.1749 38.3333 13.3339C38.3354 11.4939 39.8267 10.0027 41.6667 10.0006ZM38.3333 45.0006V19.1047C40.3946 20.3006 42.9387 20.3006 45 19.1047V45.0006H38.3333ZM36.6667 48.3339H46.6667C47.5871 48.3339 48.3333 49.0802 48.3333 50.0006C48.3333 50.921 47.5871 51.6672 46.6667 51.6672H36.6667C35.7463 51.6672 35 50.921 35 50.0006C35 49.0802 35.7463 48.3339 36.6667 48.3339ZM28.8215 67.1554C28.509 67.4679 28.3333 67.8918 28.3333 68.3339V78.3339H26.03L25 76.2737V65.7568L35 57.0068V60.9768L28.8215 67.1554ZM45 60.0006H38.3333V55.0006H45V60.0006ZM58.3333 76.2737L57.3033 78.3339H55V68.3339C55 67.8918 54.8244 67.4679 54.5119 67.1554L48.3333 60.9768V57.0068L58.3333 65.7568V76.2737ZM48.3333 13.3339C48.3346 12.1631 48.0254 11.0131 47.4375 10.0006H79.2312C78.0354 12.0618 78.0354 14.606 79.2312 16.6672H48.3333V13.3339ZM85 20.0006C86.1708 20.0014 87.321 19.692 88.3333 19.1037V30.8974C86.2721 29.7016 83.7279 29.7016 81.6667 30.8974V20.0006H85ZM85 40.0006C83.159 40.0006 81.6667 38.5083 81.6667 36.6672C81.6667 34.8262 83.159 33.3339 85 33.3339C86.841 33.3339 88.3333 34.8262 88.3333 36.6672C88.3312 38.5072 86.84 39.9985 85 40.0006ZM16.6667 90.0006H23.3333V96.6673H16.6667V90.0006ZM81.6667 96.6673V90.0006H93.3333V96.6673H81.6667ZM95 86.6673H81.6667V83.3339H95C95.9204 83.3339 96.6667 84.0802 96.6667 85.0006C96.6667 85.921 95.9204 86.6673 95 86.6673Z" fill="#2950A3"/>
<path d="M46.6665 0H78.3332V3.33333H46.6665V0Z" fill="#2950A3"/>
<path d="M81.6672 0H85.0006V3.33333H81.6672V0Z" fill="#2950A3"/>
<path d="M30 86.667H33.3333V90.0003H30V86.667Z" fill="#2950A3"/>
<path d="M38.333 86.667H41.6663V90.0003H38.333V86.667Z" fill="#2950A3"/>
<path d="M46.6665 86.667H49.9998V90.0003H46.6665V86.667Z" fill="#2950A3"/>
<path d="M55 86.667H58.3333V90.0003H55V86.667Z" fill="#2950A3"/>
<path d="M63.333 86.667H66.6663V90.0003H63.333V86.667Z" fill="#2950A3"/>
<path d="M71.6665 86.667H74.9998V90.0003H71.6665V86.667Z" fill="#2950A3"/>
</g>
<defs>
<clipPath id="clip0">
<rect width="100" height="100" fill="white"/>
</clipPath>
</defs>
</svg>
