<svg width="100" height="100" viewBox="0 0 100 100" fill="none" xmlns="http://www.w3.org/2000/svg">
<path d="M50 100C63.3438 100 85.9375 98.1875 85.9375 91.4062C85.9375 91.4062 85.9375 91.3281 85.9375 91.2812C85.9375 91.2344 85.9375 91.1719 85.9375 91.1094C85.9398 90.6208 85.8141 90.1401 85.5729 89.7151C85.3316 89.2902 84.9833 88.9359 84.5625 88.6875C84.0311 88.2201 83.4432 87.8212 82.8125 87.5V79.6875C82.8125 79.2731 82.6479 78.8757 82.3549 78.5826C82.0618 78.2896 81.6644 78.125 81.25 78.125C80.8356 78.125 80.4382 78.2896 80.1451 78.5826C79.8521 78.8757 79.6875 79.2731 79.6875 79.6875V87.5C79.6929 87.6654 79.7245 87.8289 79.7812 87.9844C79.7392 88.1906 79.7392 88.4032 79.7812 88.6094C79.7519 88.9316 79.8234 89.255 79.9857 89.5349C80.148 89.8147 80.3933 90.0373 80.6875 90.1719L81.1562 90.375C81.7031 90.625 82.3438 90.9062 82.7188 91.1094L82.8281 91.2344C81.7812 93.1875 70.2344 96.5469 50.0156 96.5469C29.7969 96.5469 18.3125 93.1875 17.2813 91.25L17.4063 91.0938C17.7656 90.875 18.3906 90.6094 18.9688 90.375L19.4375 90.1719C19.7288 90.0349 19.9707 89.8113 20.1302 89.5316C20.2896 89.2519 20.3587 88.9298 20.3281 88.6094C20.3681 88.4082 20.3681 88.2012 20.3281 88C20.3498 87.8336 20.3445 87.6647 20.3125 87.5V55.9844C27.9844 58.5625 41.0625 59.375 50 59.375C52.6562 59.375 55.3125 59.375 57.8125 59.1875C58.2269 59.1689 58.6169 58.9863 58.8968 58.6801C59.1766 58.3739 59.3233 57.9691 59.3047 57.5547C59.286 57.1403 59.1035 56.7503 58.7973 56.4704C58.4911 56.1906 58.0863 56.0439 57.6719 56.0625C55.1406 56.1875 52.5469 56.25 49.8594 56.25C34.3281 56.25 23.9062 54.25 19.4688 52.4375C19.3079 52.3269 19.1277 52.2474 18.9375 52.2031C18.2385 51.946 17.6301 51.4897 17.1875 50.8906C17.7438 50.5531 18.3234 50.2555 18.9219 50L19.3594 49.8125C19.4196 49.775 19.4771 49.7333 19.5312 49.6875C19.644 49.6276 19.7489 49.5542 19.8437 49.4688C19.9588 49.3059 20.0683 49.1391 20.1719 48.9688C20.1869 48.8442 20.1869 48.7183 20.1719 48.5938C20.2224 48.5451 20.2694 48.4929 20.3125 48.4375V13.7969C27.9844 16.375 41.0625 17.1875 50 17.1875C58.9375 17.1875 72.0156 16.375 79.6875 13.7969V48.4375C79.6828 48.5051 79.6828 48.573 79.6875 48.6406C79.6724 48.7652 79.6724 48.8911 79.6875 49.0156C79.7911 49.186 79.9006 49.3528 80.0156 49.5156C80.1105 49.601 80.2154 49.6745 80.3281 49.7344C80.3823 49.7801 80.4398 49.8219 80.5 49.8594L80.9375 50.0469C81.5171 50.2807 82.0808 50.5521 82.625 50.8594C82.052 51.4843 81.3324 51.9569 80.5312 52.2344C78.2031 53.2656 73.6719 54.5625 65.3906 55.3594C64.9762 55.3801 64.587 55.5646 64.3087 55.8723C64.0303 56.1799 63.8855 56.5856 63.9063 57C63.927 57.4144 64.1115 57.8036 64.4191 58.082C64.7268 58.3603 65.1325 58.5051 65.5469 58.4844H65.7031C70.4382 58.1249 75.124 57.282 79.6875 55.9688V73.4375C79.6875 73.8519 79.8521 74.2493 80.1451 74.5424C80.4382 74.8354 80.8356 75 81.25 75C81.6644 75 82.0618 74.8354 82.3549 74.5424C82.6479 74.2493 82.8125 73.8519 82.8125 73.4375V54.6875C84.7344 53.6406 85.9375 52.375 85.9375 50.8125C85.9375 49 84.5312 48.2188 82.8125 47.4531V12.5C84.7656 11.4375 85.9375 10.1562 85.9375 8.60938C85.9375 1.8125 63.3438 0 50 0C46.2188 0 42.5 0.125 38.9531 0.359375C38.5387 0.388383 38.1528 0.580823 37.8803 0.89436C37.6078 1.2079 37.471 1.61685 37.5 2.03125C37.529 2.44565 37.7214 2.83156 38.035 3.10407C38.3485 3.37658 38.7575 3.51338 39.1719 3.48438C42.6406 3.25 46.2969 3.125 50 3.125C70.7344 3.125 82.3906 6.6875 82.8125 8.57812C82.7188 9 82.0469 9.5 80.875 10.0312C80.6968 10.0743 80.5275 10.1483 80.375 10.25C75.9375 12.0625 65.5156 14.0625 50 14.0625C34.4844 14.0625 24.125 12.0781 19.6562 10.2812C19.4792 10.152 19.2769 10.0615 19.0625 10.0156C17.9375 9.5 17.2812 9.01562 17.1875 8.59375C17.0938 8.17188 20.0781 5.75 31.4531 4.23438C31.6583 4.2077 31.8562 4.14087 32.0356 4.0377C32.215 3.93454 32.3723 3.79705 32.4985 3.6331C32.6247 3.46914 32.7174 3.28193 32.7713 3.08215C32.8252 2.88238 32.8392 2.67394 32.8125 2.46875C32.7858 2.26356 32.719 2.06563 32.6158 1.88627C32.5127 1.70691 32.3752 1.54962 32.2112 1.42339C32.0473 1.29716 31.8601 1.20446 31.6603 1.15058C31.4605 1.0967 31.2521 1.0827 31.0469 1.10938C19.7813 2.65625 14.0625 5.15625 14.0625 8.59375C14.0625 10.1562 15.2344 11.4062 17.1875 12.4844V47.4219C15.4688 48.1875 14.0625 48.9844 14.0625 50.7812C14.0625 52.3438 15.2344 53.5938 17.1875 54.6719V87.5C16.5559 87.8259 15.9679 88.2301 15.4375 88.7031C15.019 88.9502 14.6721 89.302 14.431 89.724C14.1899 90.1459 14.0629 90.6234 14.0625 91.1094C14.0625 91.1094 14.0625 91.2188 14.0625 91.2812C14.0625 91.3438 14.0625 91.3594 14.0625 91.4062C14.0625 98.1875 36.6562 100 50 100Z" fill="#2950A3"/>
<path d="M48.6719 24.1879C47.8437 25.5473 40.625 37.5004 40.625 42.1879C40.625 44.6743 41.6127 47.0589 43.3709 48.817C45.129 50.5752 47.5136 51.5629 50 51.5629C52.4864 51.5629 54.871 50.5752 56.6291 48.817C58.3873 47.0589 59.375 44.6743 59.375 42.1879C59.375 37.5004 52.1562 25.5473 51.3281 24.1879C51.188 23.9618 50.9925 23.7752 50.76 23.6458C50.5276 23.5164 50.266 23.4485 50 23.4485C49.734 23.4485 49.4724 23.5164 49.24 23.6458C49.0075 23.7752 48.812 23.9618 48.6719 24.1879ZM56.25 42.1879C56.25 43.8455 55.5915 45.4352 54.4194 46.6073C53.2473 47.7794 51.6576 48.4379 50 48.4379C48.3424 48.4379 46.7527 47.7794 45.5806 46.6073C44.4085 45.4352 43.75 43.8455 43.75 42.1879C43.75 39.766 47.1719 33.0004 50 28.1254C52.8281 33.0004 56.25 39.766 56.25 42.1879Z" fill="#2950A3"/>
<path d="M47.3902 42.6246C47.1561 42.9665 47.0674 43.3874 47.1436 43.7946C47.2198 44.2019 47.4546 44.5623 47.7965 44.7965C48.4972 45.2864 49.332 45.5483 50.1871 45.5465C51.0754 45.5434 51.9438 45.2829 52.6871 44.7965C53.0253 44.5676 53.2604 44.2154 53.3422 43.8153C53.424 43.4152 53.3459 42.999 53.1246 42.6558C53.0135 42.4794 52.8683 42.327 52.6974 42.2075C52.5265 42.0881 52.3335 42.0041 52.1296 41.9604C51.9258 41.9167 51.7153 41.9143 51.5105 41.9532C51.3056 41.9921 51.1107 42.0716 50.9371 42.1871C50.7323 42.3196 50.4935 42.3901 50.2496 42.3901C50.0057 42.3901 49.7669 42.3196 49.5621 42.1871C49.3909 42.0727 49.1989 41.9932 48.9969 41.9533C48.7949 41.9133 48.587 41.9137 48.3852 41.9544C48.1834 41.995 47.9916 42.0751 47.8208 42.1902C47.6501 42.3052 47.5037 42.4528 47.3902 42.6246Z" fill="#2950A3"/>
</svg>
