<svg width="100" height="100" viewBox="0 0 100 100" fill="none" xmlns="http://www.w3.org/2000/svg">
<g clip-path="url(#clip0)">
<path d="M79.4068 26.5365L79.4442 26.551C79.6379 26.6281 79.8439 26.667 80.0522 26.667H80.0545C80.2521 26.6624 80.4474 26.6227 80.6313 26.5502C80.6877 26.5266 80.7434 26.5006 80.7976 26.4709C81.1188 26.3168 81.3767 26.0574 81.53 25.7362C81.5491 25.698 81.5766 25.6675 81.5926 25.6278L81.6048 25.6072C81.6315 25.5096 81.649 25.4096 81.6574 25.3082C81.688 25.2082 81.7086 25.1045 81.7185 24.9999V9.99979C81.7169 8.15958 80.2254 6.66879 78.3852 6.6665H61.7188C59.8786 6.66879 58.3878 8.15958 58.3855 9.99979V17.1668L58.3901 17.1882C58.3992 17.3309 58.4282 17.4713 58.474 17.6063C58.4862 17.6803 58.5022 17.7535 58.5236 17.826C58.5686 17.9077 58.6212 17.9847 58.68 18.058C58.7365 18.1625 58.8044 18.2609 58.8822 18.3517C58.931 18.3883 58.9814 18.4219 59.034 18.4532C59.1523 18.5562 59.285 18.6424 59.4284 18.7072L59.4445 18.7179L79.4022 26.5342L79.4068 26.5365ZM78.3852 9.99979V22.5578L61.7188 16.0301V9.99979H78.3852Z" fill="#2950A3"/>
<path d="M11.7188 86.6669V93.3334C11.7226 97.0139 14.7049 99.9962 18.3853 100H81.7184C85.3989 99.9962 88.382 97.0139 88.3858 93.3334V86.6669C88.3621 84.9388 87.5648 83.3122 86.2129 82.2365C85.408 81.4552 85.0525 81.0745 85.0525 80.2002C85.0525 79.3259 85.408 78.9436 86.2129 78.1624C87.5832 77.1019 88.3858 75.4669 88.3858 73.7343C88.385 72.0016 87.5824 70.3667 86.2122 69.3062C85.408 68.5287 85.0525 68.148 85.0525 67.2768C85.0525 66.4062 85.408 66.0255 86.2122 65.2473C87.5824 64.1884 88.3858 62.5542 88.3858 60.8223C88.3858 59.0897 87.5824 57.4554 86.2122 56.3965C85.408 55.6183 85.0525 55.2376 85.0525 54.3663C85.0525 53.4958 85.408 53.1151 86.2122 52.3369C87.5824 51.2779 88.3858 49.6437 88.3858 47.9118C88.3858 46.1792 87.5824 44.545 86.2122 43.486C85.408 42.7086 85.0525 42.3279 85.0525 41.4551C85.0525 40.5823 85.408 40.2039 86.2122 39.4257C87.5633 38.3514 88.3614 36.7264 88.3858 34.9998V9.99985C88.3797 4.47998 83.9058 0.00610352 78.3852 0H61.7188C56.1981 0.00610352 51.725 4.47998 51.7189 9.99985V12.1239L43.3853 8.86154V5.00031C43.3823 2.23999 41.1453 0.00305176 38.3858 0H28.3852C25.6256 0.00305176 23.3887 2.23999 23.3856 5.00031V9.51385L13.5429 24.9825C12.3505 26.8532 11.7172 29.026 11.7188 31.2454V34.9998C11.7424 36.7294 12.542 38.3575 13.8962 39.4333C14.698 40.2077 15.052 40.5869 15.052 41.4497C15.052 42.3241 14.6965 42.7048 13.8916 43.486C12.5214 44.5435 11.7188 46.1761 11.7188 47.9073C11.7188 49.6376 12.5206 51.2711 13.8901 52.3293C14.6957 53.109 15.052 53.4912 15.052 54.3663C15.052 55.2422 14.6957 55.6229 13.8901 56.4026C12.5206 57.4608 11.7188 59.0942 11.7188 60.8246C11.7188 62.5557 12.5214 64.1884 13.8916 65.2458C14.6965 66.0271 15.052 66.4078 15.052 67.2836C15.052 68.1458 14.698 68.5249 13.8962 69.3001C12.5237 70.3598 11.7195 71.9955 11.7188 73.7297C11.718 75.4639 12.5206 77.1011 13.8916 78.1624C14.6965 78.9436 15.052 79.3243 15.052 80.2002C15.052 81.0753 14.6965 81.4545 13.8916 82.2365C12.5397 83.3122 11.7416 84.9388 11.7188 86.6669ZM26.7189 5.00031C26.7197 4.0802 27.4651 3.33405 28.3852 3.33328H38.3858C39.3059 3.33405 40.0513 4.0802 40.052 5.00031V8.33359H26.7189V5.00031ZM58.3855 84.9998H15.8371C15.95 84.8846 16.0751 84.7626 16.2125 84.6291C17.5835 83.5678 18.3853 81.9328 18.3853 80.1994C18.3853 78.466 17.5835 76.8303 16.2125 75.7698C15.4076 74.9886 15.052 74.6078 15.052 73.7335C15.052 72.8592 15.4083 72.4754 16.214 71.6957C17.5842 70.6375 18.3861 69.0048 18.3853 67.2737C18.3853 65.5434 17.5827 63.9107 16.2125 62.8525C15.4076 62.072 15.052 61.6913 15.052 60.817C15.052 59.9525 15.4068 59.5734 16.2087 58.7967C17.5812 57.7362 18.3853 56.0997 18.3853 54.3648C18.3853 52.6299 17.5812 50.9933 16.2087 49.9329C15.406 49.1585 15.052 48.7793 15.052 47.9164C15.052 47.0413 15.4076 46.6599 16.2125 45.8786C17.5827 44.8219 18.3853 43.1892 18.3853 41.4589C18.3861 39.7285 17.5842 38.0959 16.214 37.0377C16.0759 36.9041 15.9515 36.7821 15.8394 36.6669H58.3855C59.3056 36.6669 60.0525 35.9207 60.0525 34.9998C60.0525 34.0797 59.3056 33.3336 58.3855 33.3336H15.052V31.2454C15.0505 29.6608 15.5029 28.1082 16.3551 26.7723L25.9674 11.6669H41.4024L52.7779 16.1201C52.9717 16.1957 53.1776 16.2338 53.3852 16.2331H53.3875C53.5851 16.2292 53.7804 16.1896 53.9642 16.1163C54.0215 16.0934 54.0772 16.0675 54.1313 16.0378C54.2526 15.976 54.3663 15.8997 54.4685 15.8104C54.5166 15.7715 54.5616 15.7303 54.6043 15.686C54.7089 15.5708 54.7958 15.4419 54.863 15.303C54.8821 15.2649 54.9095 15.2344 54.9263 15.1947L54.9377 15.1741C54.9652 15.0764 54.9828 14.9765 54.9904 14.875C55.0209 14.7743 55.0415 14.6713 55.0522 14.5668V9.99985C55.056 6.31943 58.0383 3.3371 61.7188 3.33328H78.3852C82.0656 3.3371 85.0479 6.31943 85.0525 9.99985V34.9998C85.0525 35.8711 84.6962 36.2518 83.8928 37.03C82.5211 38.089 81.7184 39.7232 81.7184 41.4558C81.7184 43.1885 82.5211 44.8235 83.8928 45.8824C84.6954 46.6599 85.051 47.0413 85.051 47.9118C85.051 48.7823 84.6954 49.1631 83.8913 49.9413C82.5211 51.0002 81.7177 52.6344 81.7177 54.3671C81.7177 56.0989 82.5211 57.7332 83.8913 58.7921C84.6954 59.5703 85.051 59.951 85.051 60.8223C85.051 61.6928 84.6954 62.0735 83.8913 62.8517C82.5211 63.9107 81.7177 65.5449 81.7177 67.2768C81.7177 69.0094 82.5211 70.6436 83.8913 71.7026C84.6954 72.4808 85.051 72.8615 85.051 73.732C85.051 74.6078 84.6954 74.9886 83.8905 75.7698C82.5203 76.8303 81.7177 78.466 81.7177 80.1994C81.7177 81.9328 82.5203 83.5678 83.8905 84.6291C84.6962 85.4103 85.0525 85.791 85.0525 86.6669V93.3334C85.0502 95.1736 83.5587 96.6644 81.7184 96.6667H18.3853C16.5451 96.6644 15.0543 95.1736 15.052 93.3334V88.3331H58.3855C59.3056 88.3331 60.0525 87.587 60.0525 86.6669C60.0525 85.746 59.3056 84.9998 58.3855 84.9998Z" fill="#2950A3"/>
<path d="M73.3857 75.0001V46.6668C73.3827 43.9065 71.1457 41.6696 68.3854 41.6665H31.7185C28.959 41.6696 26.722 43.9065 26.719 46.6668V75.0001C26.722 77.7604 28.959 79.9973 31.7185 80.0004H68.3854C71.1457 79.9973 73.3827 77.7604 73.3857 75.0001ZM30.0523 75.0001V46.6668C30.053 45.7467 30.7984 45.0005 31.7185 44.9998H68.3854C69.3055 45.0005 70.0517 45.7467 70.0524 46.6668V75.0001C70.0517 75.9202 69.3055 76.6656 68.3854 76.6671H31.7185C30.7984 76.6656 30.053 75.9202 30.0523 75.0001Z" fill="#2950A3"/>
</g>
<defs>
<clipPath id="clip0">
<rect width="100" height="100" fill="white"/>
</clipPath>
</defs>
</svg>
