<svg width="100" height="100" viewBox="0 0 100 100" fill="none" xmlns="http://www.w3.org/2000/svg">
<path d="M98.3332 16.6666H58.3332C57.4128 16.6666 56.6665 17.4129 56.6665 18.3333V33.3333C56.6671 34.2537 57.414 34.9993 58.3344 34.9987C58.513 34.9985 58.6905 34.9698 58.8598 34.9133L60.9548 34.215C63.2294 33.4704 65.6767 34.7108 66.4211 36.9854C67.1655 39.26 65.9252 41.7073 63.6507 42.4516C62.7748 42.7383 61.8305 42.7383 60.9546 42.4516L58.8596 41.7533C57.9863 41.4625 57.0425 41.9345 56.7517 42.8079C56.6952 42.9773 56.6665 43.1548 56.6663 43.3333V56.6666H43.333C42.4125 56.6673 41.6669 57.4141 41.6675 58.3345C41.6678 58.5131 41.6965 58.6906 41.753 58.86L42.4513 60.955C43.1959 63.2295 41.9555 65.6768 39.6809 66.4212C37.4063 67.1658 34.959 65.9254 34.2146 63.6508C33.928 62.775 33.928 61.8306 34.2146 60.9548L34.913 58.8598C35.2038 57.9864 34.7317 57.0427 33.8584 56.7518C33.689 56.6954 33.5115 56.6666 33.333 56.6664H18.3332C17.4128 56.6664 16.6665 57.4127 16.6665 58.3331V98.3331C16.6665 99.2535 17.4128 99.9998 18.3332 99.9998H98.3332C99.2536 99.9998 99.9998 99.2535 99.9998 98.3331V18.3333C99.9998 17.4129 99.2536 16.6666 98.3332 16.6666ZM56.7519 82.8079C56.6955 82.9773 56.6667 83.1548 56.6665 83.3333V96.6666H19.9998V60H31.0215C29.748 64.0381 31.9892 68.3441 36.0273 69.6175C40.0655 70.891 44.3715 68.6497 45.6448 64.6116C46.1182 63.1108 46.1182 61.5006 45.6448 59.9998H56.6665V73.3331C56.6671 74.2535 57.414 74.9991 58.3344 74.9985C58.513 74.9983 58.6905 74.9695 58.8598 74.9131L60.9548 74.2148C63.2294 73.4704 65.6767 74.7106 66.4211 76.9852C67.1655 79.2598 65.9252 81.707 63.6507 82.4514C62.7748 82.7381 61.8305 82.7381 60.9546 82.4514L58.8596 81.7531C57.9865 81.4625 57.0428 81.9345 56.7519 82.8079ZM96.6665 96.6666H59.9998V85.645C64.038 86.9185 68.344 84.6773 69.6173 80.6391C70.8909 76.601 68.6496 72.295 64.6115 71.0216C63.1107 70.5483 61.5005 70.5483 59.9996 71.0216V60H73.333C74.2534 59.9993 74.999 59.2525 74.9984 58.332C74.9982 58.1535 74.9694 57.976 74.913 57.8066L74.2146 55.7116C73.4702 53.437 74.7105 50.9897 76.985 50.2454C79.2596 49.501 81.7069 50.7412 82.4513 53.0158C82.738 53.8916 82.738 54.836 82.4513 55.7118L81.753 57.8068C81.4621 58.6802 81.9342 59.6239 82.8075 59.9148C82.9769 59.9712 83.1544 60 83.333 60.0002H96.6663V96.6666H96.6665ZM96.6665 56.6666H85.6448C86.9184 52.6285 84.6771 48.3225 80.639 47.0491C76.6009 45.7756 72.2948 48.0168 71.0215 52.055C70.5482 53.5558 70.5482 55.166 71.0215 56.6668H59.9998V45.6452C62.3146 46.3954 64.8488 45.9906 66.8148 44.5568C70.2619 42.0981 71.0632 37.3104 68.6044 33.8633C66.6628 31.1412 63.1809 29.9914 59.9998 31.0218V20H96.6665V56.6666Z" fill="#2950A3"/>
<path d="M47.9452 14.355C46.4444 13.8817 44.8342 13.8817 43.3333 14.355V1.66667C43.3333 0.74625 42.5871 0 41.6667 0H1.66667C0.74625 0 0 0.74625 0 1.66667V41.6667C0 42.5871 0.74625 43.3333 1.66667 43.3333H14.355C13.0815 47.3715 15.3227 51.6775 19.3608 52.9508C23.399 54.2242 27.705 51.9831 28.9783 47.945C29.4517 46.4442 29.4517 44.834 28.9783 43.3331H41.6667C42.5871 43.3331 43.3333 42.5869 43.3333 41.6665V28.9781C47.3715 30.2517 51.6775 28.0104 52.9508 23.9723C54.2244 19.9344 51.9833 15.6285 47.9452 14.355ZM46.9844 25.785C46.1085 26.0717 45.1642 26.0717 44.2883 25.785L42.1933 25.0867C41.32 24.7958 40.3763 25.2679 40.0854 26.1413C40.029 26.3106 40.0002 26.4881 40 26.6667V40H26.6667C25.7463 40.0006 25.0006 40.7475 25.0013 41.6679C25.0015 41.8465 25.0302 42.024 25.0867 42.1933L25.785 44.2883C26.5296 46.5629 25.2892 49.0102 23.0146 49.7546C20.74 50.499 18.2927 49.2588 17.5483 46.9842C17.2617 46.1083 17.2617 45.164 17.5483 44.2881L18.2467 42.1931C18.5375 41.3198 18.0654 40.376 17.1921 40.0852C17.0227 40.0288 16.8452 40 16.6667 39.9998H3.33333V3.33333H40V16.6667C40.0006 17.5871 40.7475 18.3327 41.6679 18.3321C41.8465 18.3319 42.024 18.3031 42.1933 18.2467L44.2883 17.5483C46.5629 16.804 49.0102 18.0442 49.7546 20.3188C50.4992 22.5931 49.2588 25.0406 46.9844 25.785Z" fill="#2950A3"/>
</svg>
