<svg width="198" height="198" viewBox="0 0 198 198" fill="none" xmlns="http://www.w3.org/2000/svg">
<g clip-path="url(#clip0)">
<path d="M192.906 131.391L197.586 120.081C198.28 118.404 198.093 116.502 197.084 114.993C196.075 113.484 194.39 112.584 192.575 112.584H174.95C175.777 107.235 176.204 101.806 176.204 96.3928V37.363C176.204 34.1624 173.924 31.3933 170.783 30.7783L163.564 29.3638C158.561 28.3836 153.546 27.1013 148.66 25.5534C147.115 25.0636 145.466 25.9195 144.977 27.4643C144.488 29.0091 145.343 30.6579 146.888 31.1472C151.985 32.762 157.216 34.0994 162.437 35.122L169.656 36.5365C170.05 36.6135 170.336 36.9613 170.336 37.363V96.3928C170.336 101.808 169.892 107.243 169.017 112.584H162.276C163.207 107.261 163.686 101.832 163.686 96.3928V44.5579C163.686 43.1556 162.694 41.9492 161.317 41.6789L161.158 41.6476C140.788 37.6572 121.828 29.6111 104.806 17.733L100.835 14.9623C99.8306 14.2613 98.4971 14.2582 97.4898 14.9537L92.9306 18.0999C76.0658 29.7378 57.3191 37.6365 37.2118 41.5756L36.6841 41.6789C35.3072 41.9484 34.314 43.1552 34.314 44.5579V69.7755C34.314 71.3958 35.6275 72.7094 37.2478 72.7094C38.8681 72.7094 40.1816 71.3958 40.1816 69.7755V46.9613C60.3886 42.7519 79.2469 34.6717 96.2635 22.9286L99.1468 20.9387L101.448 22.5441C118.527 34.4621 137.481 42.6686 157.818 46.9559V96.3924C157.818 101.837 157.316 107.272 156.323 112.583H150.502C147.358 112.583 144.801 115.141 144.801 118.285V134.724H132.872C140.045 126.536 144.055 116.024 144.055 104.947C144.055 100.841 143.502 96.7648 142.411 92.8319C141.978 91.2703 140.36 90.3573 138.8 90.7884C137.239 91.2214 136.324 92.8382 136.757 94.3993C137.706 97.8217 138.187 101.37 138.187 104.947C138.187 116.431 133.239 127.224 124.577 134.724H116.716C115.096 134.724 113.782 136.037 113.782 137.658C113.782 139.278 115.096 140.591 116.716 140.591H168.32V165.906C168.32 166.217 168.067 166.47 167.756 166.47H30.2446C29.9332 166.47 29.6801 166.217 29.6801 165.906V140.591H104.213C105.833 140.591 107.147 139.278 107.147 137.658C107.147 136.037 105.833 134.724 104.213 134.724H73.0319C64.3697 127.224 59.4221 116.431 59.4221 104.947C59.4221 83.2309 77.0892 65.5637 98.8049 65.5637C104.627 65.5637 110.235 66.8065 115.473 69.2572C116.941 69.943 118.687 69.3108 119.374 67.8431C120.06 66.3758 119.427 64.6292 117.96 63.9423C111.938 61.1247 105.493 59.6961 98.8053 59.6961C73.8541 59.6961 53.5548 79.9954 53.5548 104.947C53.5548 116.023 57.5643 126.536 64.737 134.724H53.2V118.284C53.2 115.14 50.6425 112.583 47.499 112.583H41.6978C40.6917 107.237 40.1824 101.763 40.1824 96.2789V82.2779C40.1824 80.6577 38.8688 79.3441 37.2486 79.3441C35.6283 79.3441 34.3148 80.6577 34.3148 82.2779V96.2789C34.3148 101.757 34.801 107.224 35.7453 112.583H29.0026C28.1146 107.204 27.6644 101.731 27.6644 96.2789V37.363C27.6644 36.9613 27.9503 36.6135 28.345 36.5361L35.9331 35.0496C55.1394 31.2869 73.0456 23.7426 89.1538 12.6266L98.7056 6.03484C98.9931 5.83573 99.3792 5.83769 99.6659 6.03719L108.611 12.2792C116.798 17.9919 125.624 22.8508 134.843 26.7211C136.338 27.3481 138.057 26.6456 138.684 25.1513C139.311 23.6574 138.608 21.9377 137.114 21.3107C128.276 17.6008 119.816 12.943 111.968 7.46694L103.023 1.22532C100.739 -0.368722 97.6643 -0.376154 95.3724 1.20577L85.821 7.79709C70.3801 18.4528 53.2156 25.6848 34.8049 29.2915L27.2169 30.778C24.0761 31.3933 21.7967 34.1624 21.7967 37.363V96.2797C21.7967 101.729 22.2278 107.197 23.0665 112.584H5.42479C3.60973 112.584 1.92415 113.484 0.915694 114.993C-0.0927597 116.502 -0.280525 118.404 0.413423 120.081L5.09346 131.391L0.413423 142.7C-0.280525 144.377 -0.0927597 146.279 0.915694 147.788C1.92454 149.297 3.61012 150.198 5.42479 150.198H23.8121V165.907C23.8121 169.454 26.6974 172.339 30.2442 172.339H54.1204C66.4546 184.236 81.6444 193.026 98.1282 197.789L98.3805 197.862C98.6469 197.939 98.9211 197.977 99.1953 197.977C99.4707 197.977 99.7465 197.938 100.014 197.861C116.496 193.073 131.677 184.259 143.997 172.339H167.756C171.303 172.339 174.188 169.454 174.188 165.907V150.198H192.575C194.39 150.198 196.076 149.297 197.084 147.788C198.093 146.28 198.28 144.377 197.586 142.701L192.906 131.391ZM34.1423 134.725L47.3316 122.309V134.725H34.1423ZM6.08901 144.33L10.5856 133.465C11.1391 132.128 11.1391 130.654 10.5856 129.317L6.08901 118.451H42.869L25.8352 134.486C24.5494 135.697 23.8121 137.404 23.8121 139.17V144.33H6.08901ZM113.575 172.339C108.999 174.925 104.184 177.109 99.1648 178.845C94.0999 177.116 89.243 174.932 84.6264 172.339H113.575ZM99.1903 191.986C85.8562 188.047 73.4348 181.315 62.8593 172.339H73.6409C81.1476 177.652 89.4214 181.821 98.253 184.728C98.5511 184.826 98.8609 184.875 99.1703 184.875C99.4836 184.875 99.7974 184.825 100.099 184.724C108.861 181.802 117.069 177.635 124.518 172.339H135.26C124.759 181.282 112.434 188.015 99.1903 191.986ZM150.668 122.309L163.858 134.725H150.668V122.309ZM187.415 133.465L191.911 144.33H174.188V139.17C174.188 137.404 173.451 135.697 172.165 134.486L155.132 118.451H191.912L187.415 129.316C186.861 130.654 186.861 132.127 187.415 133.465Z" fill="#F68527"/>
<path d="M93.1078 90.0985C91.1515 87.8861 87.7596 87.6776 85.5475 89.6338L80.3855 94.1981C79.3137 95.1455 78.6749 96.454 78.5873 97.8818C78.4993 99.3096 78.973 100.687 79.9208 101.758L92.5707 116.066C94.2144 117.925 96.5583 119.02 99.0005 119.071C99.0662 119.073 99.1307 119.073 99.196 119.073C101.58 119.073 103.894 118.087 105.545 116.367L146.891 73.2948C148.95 71.1499 148.88 67.7295 146.735 65.6699L141.817 60.9488C140.778 59.9509 139.408 59.4158 137.972 59.4475C136.532 59.4772 135.189 60.0656 134.192 61.1045L99.4613 97.2849L93.1078 90.0985ZM138.096 65.5103L142.33 69.5739L101.313 112.303C100.762 112.877 99.9909 113.206 99.196 113.206L99.1245 113.205C98.3143 113.188 97.5277 112.814 96.9663 112.179L84.6548 98.255L89.0505 94.3682L97.1228 103.498C97.6795 104.125 98.479 104.493 99.3169 104.509C100.158 104.531 100.968 104.188 101.548 103.584L138.096 65.5103Z" fill="#F68527"/>
</g>
<defs>
<clipPath id="clip0">
<rect width="198" height="198" fill="white"/>
</clipPath>
</defs>
</svg>
