<svg width="198" height="198" viewBox="0 0 198 198" fill="none" xmlns="http://www.w3.org/2000/svg">
<g clip-path="url(#clip0)">
<path d="M42.4752 191.893L36.6532 183.692C35.4173 181.951 33.003 181.541 31.2612 182.777C29.5198 184.014 29.1099 186.428 30.3466 188.169L36.1687 196.371C36.9227 197.433 38.1146 197.999 39.3254 197.999C40.0996 197.999 40.8812 197.767 41.5606 197.285C43.302 196.049 43.712 193.635 42.4752 191.893Z" fill="#F68527"/>
<path d="M87.0904 193.338L80.7544 163.14C77.6735 148.455 69.1193 135.758 56.6685 127.386L43.1408 118.289C37.7163 114.643 30.4251 115.427 25.8912 120.05V73.4522C25.8912 67.3359 21.7213 62.1392 15.7504 60.8139C11.8967 59.9577 7.92204 60.885 4.84339 63.355C1.76512 65.825 -0.000244141 69.5053 -0.000244141 73.4522V133.413C-0.000244141 141.269 2.40359 148.807 6.951 155.213L13.8473 164.928C14.6014 165.99 15.7933 166.557 17.0041 166.557C17.7783 166.557 18.5599 166.325 19.2393 165.842C20.9807 164.606 21.3906 162.192 20.1539 160.45L13.2576 150.736C9.6441 145.645 7.7341 139.655 7.7341 133.413V73.4522C7.7341 71.8635 8.44489 70.382 9.68393 69.3874C10.9226 68.3931 12.5224 68.02 14.0747 68.3645C16.4782 68.8978 18.1569 70.99 18.1569 73.4522V121.025C18.1569 127.759 20.6311 134.175 25.1259 139.167C25.3185 139.398 25.5165 139.626 25.7257 139.848C28.2939 142.569 31.3134 145.776 34.1573 148.798L38.1386 153.035C38.1513 153.049 38.1653 153.061 38.1784 153.074C41.5842 156.696 44.096 159.371 44.1486 159.427C45.61 160.983 48.0579 161.061 49.6148 159.598C51.1717 158.136 51.2487 155.689 49.7861 154.132C49.7157 154.057 45.1888 149.237 40.0192 143.742L31.1521 134.305C31.1297 134.281 31.1092 134.256 31.0868 134.232C29.0078 131.745 29.0337 128.14 31.2129 125.679C33.1406 123.504 36.4138 123.086 38.8258 124.708L52.3528 133.804C63.1221 141.045 70.5203 152.027 73.1848 164.728L79.5212 194.926C79.9037 196.749 81.5112 198 83.3021 198C83.5651 198 83.8323 197.973 84.0999 197.917C86.1901 197.478 87.5289 195.428 87.0904 193.338Z" fill="#F68527"/>
<path d="M28.651 172.42L28.6263 172.386C27.3849 170.647 24.9702 170.243 23.2319 171.484C21.4936 172.724 21.0899 175.139 22.3301 176.878L22.3549 176.913C23.1097 177.97 24.2989 178.534 25.5062 178.534C26.2835 178.534 27.0682 178.3 27.7492 177.814C29.4871 176.574 29.8912 174.159 28.651 172.42Z" fill="#F68527"/>
<path d="M193.155 63.3558C190.077 60.8858 186.101 59.96 182.249 60.8147C176.278 62.1396 172.108 67.3367 172.108 73.453V120.051C167.574 115.428 160.282 114.643 154.858 118.29L141.33 127.386C128.879 135.758 120.325 148.456 117.244 163.14L110.908 193.338C110.47 195.429 111.809 197.479 113.899 197.917C114.166 197.973 114.434 198 114.697 198C116.488 198 118.095 196.749 118.478 194.926L124.814 164.728C127.478 152.028 134.876 141.045 145.646 133.804L159.173 124.709C161.585 123.087 164.858 123.504 166.786 125.68C168.963 128.137 168.992 131.737 166.921 134.223C166.896 134.25 166.872 134.278 166.847 134.305C166.847 134.305 148.283 154.058 148.213 154.133C146.751 155.69 146.828 158.137 148.384 159.599C149.941 161.061 152.388 160.984 153.851 159.427C153.903 159.372 169.705 142.57 172.273 139.848C172.483 139.627 172.681 139.398 172.873 139.167C177.368 134.176 179.842 127.76 179.842 121.025V73.4526C179.842 70.9904 181.521 68.8982 183.925 68.365C185.477 68.0208 187.076 68.394 188.316 69.3878C189.555 70.3821 190.265 71.8636 190.265 73.4526V133.414C190.265 139.656 188.355 145.646 184.742 150.737L155.525 191.894C154.289 193.635 154.698 196.049 156.44 197.286C157.12 197.768 157.901 198 158.675 198C159.885 198 161.078 197.433 161.832 196.371L191.049 155.214C195.596 148.808 198 141.27 198 133.414V73.4526C197.999 69.5058 196.234 65.8258 193.155 63.3558Z" fill="#F68527"/>
<path d="M147.98 74.1182L141.1 72.4746V71.241C145.572 68.1086 148.504 62.9216 148.504 57.0597V48.1153C148.504 38.5715 140.74 30.8074 131.196 30.8074C126.913 30.8074 122.992 32.3744 119.966 34.9607C116.598 26.7121 108.493 20.8827 99.048 20.8827C89.5913 20.8827 81.4779 26.7271 78.1174 34.9917C75.0874 32.3868 71.1518 30.8066 66.8515 30.8066C57.3077 30.8066 49.5436 38.5707 49.5436 48.1145V48.7089V57.0589C49.5436 62.9208 52.4757 68.1078 56.9473 71.2402V72.4739L50.0672 74.1174C41.8526 76.08 36.1152 83.3491 36.1152 91.795V99.0174C36.1152 101.153 37.847 102.885 39.9824 102.885H57.7528C57.7254 103.354 57.7064 103.825 57.7064 104.3V118.206C57.7064 120.342 59.4381 122.073 61.5736 122.073H84.8192C86.9546 122.073 88.6863 120.342 88.6863 118.206C88.6863 116.07 86.9546 114.339 84.8192 114.339H80.8236V106.347C80.8236 104.211 79.0919 102.48 76.9564 102.48C74.821 102.48 73.0893 104.211 73.0893 106.347V114.339H65.4412V104.301C65.4412 96.8425 70.5072 90.4195 77.7596 88.6816L88.3719 86.1385L95.474 102.296C96.0912 103.701 97.4803 104.607 99.0136 104.607H99.014C100.548 104.607 101.937 103.701 102.554 102.297L109.649 86.1629L120.227 88.6901C127.487 90.4245 132.557 96.8483 132.557 104.312V114.339H124.909V106.347C124.909 104.211 123.177 102.48 121.042 102.48C118.906 102.48 117.175 104.211 117.175 106.347V114.339H112.792C110.657 114.339 108.925 116.071 108.925 118.207C108.925 120.342 110.657 122.074 112.792 122.074H136.425C138.56 122.074 140.292 120.342 140.292 118.207V104.312C140.292 103.833 140.272 103.358 140.245 102.885H158.065C160.201 102.885 161.933 101.154 161.933 99.0181V91.7958C161.933 83.3499 156.195 76.0804 147.98 74.1182ZM131.196 38.541C136.263 38.541 140.422 42.4975 140.749 47.483H135.372C130.852 47.483 126.404 46.3948 122.406 44.3228C123.876 40.9243 127.263 38.541 131.196 38.541ZM121.622 56.4943C121.627 56.306 121.637 56.1184 121.637 55.9289V52.4848C125.976 54.2807 130.642 55.2174 135.372 55.2174H140.769V57.0593C140.769 62.338 136.475 66.6329 131.196 66.6329C125.917 66.6329 121.622 62.338 121.622 57.0589V56.4943ZM84.1942 43.4708C84.1942 35.2806 90.8574 28.617 99.048 28.617C106.436 28.617 112.58 34.038 113.715 41.1103L107.204 37.2853C105.576 36.3286 103.495 36.6878 102.281 38.1361C99.0999 41.9329 94.4341 44.1105 89.4803 44.1105H84.1942V43.4708ZM66.8519 38.541C70.7844 38.541 74.1709 40.9247 75.642 44.3224C71.6433 46.3944 67.1957 47.4826 62.6757 47.4826H57.2992C57.6256 42.4975 61.7855 38.541 66.8519 38.541ZM57.2783 55.217H62.6757C67.4103 55.217 72.0819 54.2784 76.4255 52.4786V57.0585C76.4255 62.3372 72.131 66.6321 66.8519 66.6321C61.5728 66.6321 57.2783 62.338 57.2783 57.0589V55.217ZM75.9576 81.1599C68.3493 82.9829 62.3699 88.2875 59.524 95.1506H43.8496V91.7954C43.8496 86.9437 47.1452 82.7675 51.8643 81.6402L61.7132 79.2874C63.4538 78.8717 64.682 77.3159 64.682 75.5262V74.2261C65.3936 74.3154 66.1168 74.3668 66.8519 74.3668C67.5816 74.3668 68.2998 74.3162 69.0059 74.228V75.3313C69.0032 75.3889 69.002 75.4466 69.0017 75.5042C69.0009 76.773 69.6247 78.0159 70.7701 78.7569C71.2017 79.0365 71.6681 79.2182 72.1441 79.3091L77.9128 80.6912L75.9576 81.1599ZM86.7446 75.1565C85.7512 74.7184 84.7155 74.368 83.6482 74.1124L76.7399 72.4568V71.2518C77.9867 70.3806 79.1139 69.3507 80.0916 68.1898C81.8186 70.8504 84.0879 73.1255 86.7446 74.8584V75.1565ZM103.541 80.8386L99.0152 91.131L94.4794 80.8123V78.0526C95.9555 78.357 97.4834 78.5175 99.048 78.5175C100.586 78.5175 102.088 78.3616 103.541 78.0673V80.8386ZM99.048 70.7827C90.8574 70.7831 84.1942 64.1196 84.1942 55.9289V51.8444H89.4803C95.6128 51.8444 101.444 49.564 105.913 45.4965L113.888 50.1819V56.4947C113.589 64.4236 107.049 70.7827 99.048 70.7827ZM111.275 75.1689V74.9071C113.953 73.1754 116.243 70.8945 117.983 68.2223C118.954 69.3701 120.072 70.3887 121.307 71.2518V72.4568L114.398 74.1124C113.321 74.3707 112.277 74.7253 111.275 75.1689ZM154.198 95.1506H138.47C135.621 88.2875 129.638 82.986 122.025 81.1673L120.083 80.7036L125.883 79.3137C126.365 79.224 126.839 79.0399 127.277 78.7569C128.42 78.0171 129.042 76.7742 129.042 75.5053C129.042 75.4752 129.042 75.4446 129.041 75.4145V74.228C129.748 74.3162 130.465 74.3668 131.195 74.3668C131.93 74.3668 132.653 74.3154 133.365 74.2261V75.5262C133.365 77.3159 134.593 78.8717 136.334 79.2874L146.183 81.6402C150.902 82.7679 154.198 86.9437 154.198 91.7954V95.1506Z" fill="#F68527"/>
<path d="M101.733 115.47C101.01 114.751 100.017 114.341 98.9995 114.341C97.9782 114.341 96.9847 114.751 96.2654 115.47C95.5422 116.193 95.1323 117.187 95.1323 118.208C95.1323 119.225 95.5422 120.219 96.2654 120.942C96.9847 121.661 97.9786 122.075 98.9995 122.075C100.017 122.075 101.01 121.661 101.733 120.942C102.452 120.219 102.867 119.225 102.867 118.208C102.867 117.187 102.453 116.193 101.733 115.47Z" fill="#F68527"/>
<path d="M98.9973 0C96.8618 0 95.1301 1.73133 95.1301 3.86717V9.65362C95.1301 11.7895 96.8618 13.5208 98.9973 13.5208C101.133 13.5208 102.864 11.7895 102.864 9.65362V3.86717C102.864 1.73133 101.133 0 98.9973 0Z" fill="#F68527"/>
<path d="M84.7517 12.6143L80.6951 8.56152C79.1842 7.05177 76.7359 7.05293 75.2261 8.56384C73.7164 10.0747 73.7179 12.5234 75.2288 14.0328L79.2859 18.0856C80.0407 18.8401 81.03 19.2171 82.0188 19.2171C83.0092 19.2171 83.9992 18.8389 84.7545 18.0833C86.2634 16.5724 86.2626 14.1237 84.7517 12.6143Z" fill="#F68527"/>
<path d="M122.675 8.66093C121.164 7.15157 118.715 7.15235 117.206 8.66364L113.181 12.6928C111.671 14.2037 111.673 16.6524 113.184 18.1618C113.939 18.9163 114.928 19.2933 115.917 19.2933C116.907 19.2933 117.898 18.9151 118.652 18.1591L122.678 14.1299C124.187 12.619 124.186 10.1703 122.675 8.66093Z" fill="#F68527"/>
</g>
<defs>
<clipPath id="clip0">
<rect width="198" height="198" fill="white"/>
</clipPath>
</defs>
</svg>
