<svg width="195" height="195" viewBox="0 0 195 195" fill="none" xmlns="http://www.w3.org/2000/svg">
<g clip-path="url(#clip0)">
<path d="M159.34 18.9213C163.648 20.3137 167.351 23.0452 169.974 26.6078C172.565 30.1486 174.098 34.5106 174.098 39.2176C174.098 42.618 173.289 45.8568 171.853 48.7399C170.579 51.2772 168.83 53.5223 166.703 55.3581V71.6055C166.703 73.1819 165.429 74.4559 163.853 74.4559H141.667C140.091 74.4559 138.817 73.1815 138.817 71.6055V55.3581C136.69 53.5223 134.941 51.2772 133.678 48.7399C132.231 45.8568 131.422 42.618 131.422 39.2176C131.422 34.5106 132.955 30.1482 135.546 26.6078C138.202 22.9911 141.98 20.2379 146.363 18.8561C147.875 18.3919 149.473 19.2237 149.937 20.7353C150.024 21.0053 150.077 21.2971 150.077 21.5774V35.4178L152.766 36.5402L155.454 35.4178V21.5774C155.454 20.001 156.728 18.727 158.304 18.727C158.671 18.7263 159.027 18.791 159.34 18.9213ZM44.6314 102.817H54.2511C56.6048 102.817 58.7422 103.778 60.2862 105.333C61.8409 106.877 62.8018 109.025 62.8018 111.378C62.8018 113.732 61.8409 115.87 60.2862 117.424C58.7422 118.968 56.6048 119.929 54.2511 119.929H44.6314C42.2777 119.929 40.1403 118.968 38.5963 117.424C37.6358 116.463 36.9015 115.276 36.4802 113.959C34.3752 113.484 32.4747 112.414 30.9959 110.935C28.9663 108.895 27.7029 106.088 27.7029 103.001V99.9129H22.5747C20.221 99.9129 18.0836 98.952 16.5396 97.4084C14.9845 95.8537 14.024 93.7159 14.024 91.3622V79.9616C14.024 77.6079 14.9845 75.4701 16.5396 73.9154C18.0836 72.3718 20.221 71.4109 22.5747 71.4109H27.8538C28.5233 65.1172 31.3733 59.4599 35.6271 55.2057C40.5177 50.3155 47.254 47.2812 54.6823 47.2812C62.1098 47.2812 68.8464 50.3155 73.737 55.2057C77.9909 59.4599 80.8408 65.1168 81.5104 71.4109H86.7895C89.1432 71.4109 91.281 72.3718 92.8356 73.9154C94.3792 75.4701 95.3401 77.6079 95.3401 79.9616V91.3622C95.3401 93.7159 94.3792 95.8537 92.8356 97.4084C91.281 98.952 89.1432 99.9129 86.7895 99.9129H78.8112C77.2348 99.9129 75.9502 98.6385 75.9502 97.0626V74.2616C75.9502 68.4208 73.5535 63.0983 69.6992 59.2436C65.8449 55.3897 60.5334 52.9929 54.6819 52.9929C48.841 52.9929 43.5181 55.3897 39.6642 59.2436C35.8099 63.0983 33.4132 68.4208 33.4132 74.2616V97.0626V103.001C33.4132 104.513 34.0397 105.894 35.0326 106.898C35.5292 107.383 36.1123 107.783 36.7491 108.064C37.181 107.039 37.8071 106.11 38.5955 105.333C40.1403 103.778 42.2777 102.817 44.6314 102.817ZM54.2507 108.529H44.631C43.8537 108.529 43.1517 108.852 42.6338 109.371C42.1158 109.888 41.7917 110.601 41.7917 111.379C41.7917 112.156 42.1158 112.869 42.6338 113.377C43.1517 113.894 43.8537 114.219 44.631 114.219H54.2507C55.0281 114.219 55.7296 113.894 56.248 113.377C56.7659 112.869 57.0901 112.156 57.0901 111.379C57.0901 110.601 56.7659 109.889 56.248 109.371C55.7296 108.852 55.0281 108.529 54.2507 108.529ZM27.7029 77.1227H22.5747C21.7973 77.1227 21.0958 77.435 20.5775 77.9537C20.0595 78.472 19.7354 79.1846 19.7354 79.962V91.3626C19.7354 92.1399 20.0591 92.8525 20.5775 93.3598C21.0958 93.8782 21.7973 94.2019 22.5747 94.2019H27.7029V77.1227ZM86.7902 77.1227H81.6623V94.2019H86.7902C87.5676 94.2019 88.2802 93.8782 88.7875 93.3598C89.3058 92.8525 89.6295 92.1399 89.6295 91.3626V79.962C89.6295 79.1846 89.3058 78.472 88.7875 77.9537C88.2802 77.435 87.5676 77.1227 86.7902 77.1227ZM113.37 119.314C111.794 119.314 110.52 118.029 110.52 116.453C110.52 114.876 111.794 113.592 113.37 113.592H179.184C180.76 113.592 182.034 114.876 182.034 116.453C182.034 118.029 180.76 119.314 179.184 119.314H113.37ZM113.37 108.216C111.794 108.216 110.52 106.941 110.52 105.365C110.52 103.789 111.794 102.504 113.37 102.504H137.769C139.356 102.504 140.63 103.789 140.63 105.365C140.63 106.942 139.356 108.216 137.769 108.216H113.37ZM116.231 51.2117C116.231 52.788 114.957 54.0734 113.37 54.0734C111.794 54.0734 110.52 52.788 110.52 51.2117V38.8931H12.1022C10.3426 38.8931 8.75558 39.6057 7.58938 40.7723C6.43424 41.9275 5.71061 43.5255 5.71061 45.2741V79.1949C5.71061 80.7713 4.43663 82.0453 2.86063 82.0453C1.28464 82.0453 0 80.7713 0 79.1953V45.2744C0 41.9495 1.36043 38.9263 3.55189 36.7348C5.74336 34.5426 8.76624 33.1829 12.1022 33.1829H110.52V17.3773C110.52 14.5482 111.675 11.9896 113.532 10.1329C115.389 8.27624 117.948 7.12109 120.766 7.12109H184.755C187.572 7.12109 190.142 8.27624 191.999 10.1329C193.856 11.9892 195 14.5479 195 17.3769V75.8053V131.416V142.515C195 145.84 193.64 148.864 191.448 151.055C189.257 153.247 186.234 154.607 182.908 154.607H117.387L124.242 171.081H135.989C137.575 171.081 138.85 172.356 138.85 173.932V185.03C138.85 186.607 137.575 187.88 135.989 187.88H59.1631C57.576 187.88 56.3021 186.606 56.3021 185.03V173.932C56.3021 172.355 57.576 171.081 59.1631 171.081H70.9092L77.7646 154.607H12.1022C8.76624 154.607 5.74336 153.247 3.55189 151.055C1.36043 148.864 0 145.84 0 142.514V131.416V92.1293C0 90.5529 1.28464 89.2789 2.86102 89.2789C4.43739 89.2789 5.71099 90.5533 5.71099 92.1293V128.566H189.289V84.9927C187.918 85.6733 186.385 86.0618 184.755 86.0618H167.254L155.173 105.063C154.331 106.402 152.561 106.79 151.232 105.948C150.855 105.711 150.542 105.387 150.326 105.031L138.266 86.0618H120.766C117.948 86.0618 115.389 84.9067 113.532 83.05C111.675 81.1933 110.52 78.6335 110.52 75.8056V64.1567C110.52 62.57 111.794 61.2957 113.37 61.2957C114.957 61.2957 116.231 62.57 116.231 64.1567V75.8056C116.231 77.0583 116.739 78.1914 117.571 79.0117C118.391 79.8321 119.525 80.3508 120.766 80.3508H139.832C140.782 80.3508 141.7 80.8151 142.24 81.6793L152.766 98.2185L163.217 81.787C163.702 80.9233 164.631 80.3508 165.689 80.3508H184.755C185.996 80.3508 187.13 79.8325 187.95 79.0117C188.782 78.1914 189.289 77.0583 189.289 75.8056V17.3769C189.289 16.125 188.782 14.9904 187.95 14.17C187.13 13.3497 185.996 12.8309 184.755 12.8309H120.766C119.524 12.8309 118.391 13.3493 117.57 14.17C116.739 14.9904 116.231 16.125 116.231 17.3769V51.2117H116.231ZM189.289 134.277H5.71099V142.515C5.71099 144.264 6.43424 145.862 7.58977 147.017C8.75596 148.183 10.343 148.896 12.1026 148.896H182.909C184.658 148.896 186.255 148.173 187.411 147.017C188.576 145.862 189.289 144.264 189.289 142.515V134.277H189.289ZM62.8445 144.447C61.2681 144.447 59.9834 143.163 59.9834 141.586C59.9834 140.01 61.2681 138.725 62.8445 138.725H75.3785C76.9549 138.725 78.2285 140.01 78.2285 141.586C78.2285 143.163 76.9545 144.447 75.3785 144.447H62.8445ZM129.057 144.447C127.48 144.447 126.196 143.163 126.196 141.586C126.196 140.01 127.48 138.725 129.057 138.725H132.166C133.743 138.725 135.016 140.01 135.016 141.586C135.016 143.163 133.742 144.447 132.166 144.447H129.057ZM114.86 144.447C113.284 144.447 111.999 143.163 111.999 141.586C111.999 140.01 113.284 138.725 114.86 138.725H117.97C119.546 138.725 120.82 140.01 120.82 141.586C120.82 143.163 119.546 144.447 117.97 144.447H114.86ZM100.663 144.447C99.087 144.447 97.8024 143.163 97.8024 141.586C97.8024 140.01 99.087 138.725 100.663 138.725H103.773C105.349 138.725 106.623 140.01 106.623 141.586C106.623 143.163 105.349 144.447 103.773 144.447H100.663ZM86.4665 144.447C84.8901 144.447 83.6055 143.163 83.6055 141.586C83.6055 140.01 84.8901 138.725 86.4665 138.725H89.5755C91.1518 138.725 92.4254 140.01 92.4254 141.586C92.4254 143.163 91.1515 144.447 89.5755 144.447H86.4665ZM104.042 176.792C102.466 176.792 101.192 175.518 101.192 173.931C101.192 172.355 102.466 171.081 104.042 171.081H118.067L111.2 154.607H83.9509L77.0844 171.081H91.1088C92.6852 171.081 93.9588 172.355 93.9588 173.931C93.9588 175.518 92.6848 176.792 91.1088 176.792H62.0131V182.169H133.138V176.792H104.042ZM149.905 68.7445V54.0079C149.905 52.4315 151.179 51.1469 152.766 51.1469C154.342 51.1469 155.616 52.4315 155.616 54.0079V68.7445H160.992V54.0079H161.003C161.003 53.1441 161.402 52.2918 162.147 51.7304C164.08 50.2732 165.667 48.3838 166.757 46.2026C167.804 44.1189 168.387 41.7439 168.387 39.2176C168.387 35.7518 167.275 32.5564 165.375 29.9757C164.231 28.421 162.795 27.0717 161.164 26.0243V37.3168C161.164 38.4289 160.506 39.4873 159.416 39.9405L153.866 42.2725C153.186 42.5642 152.387 42.5856 151.653 42.2725L146.191 39.9835C145.121 39.5737 144.355 38.5264 144.355 37.3168V26.0243C142.725 27.0717 141.289 28.421 140.144 29.9757C138.255 32.556 137.132 35.7518 137.132 39.2176C137.132 41.7439 137.715 44.1189 138.762 46.2026C139.82 48.3076 141.343 50.154 143.189 51.5899C143.998 52.0979 144.528 52.9937 144.528 54.0083V68.7449H149.905V68.7445Z" fill="#F68527"/>
</g>
<defs>
<clipPath id="clip0">
<rect width="195" height="195" fill="white"/>
</clipPath>
</defs>
</svg>
