<svg width="104" height="104" viewBox="0 0 104 104" fill="none" xmlns="http://www.w3.org/2000/svg">
<path d="M86.125 73.125C84.8394 73.125 83.5827 73.5062 82.5138 74.2204C81.4449 74.9347 80.6118 75.9498 80.1198 77.1376C79.6278 78.3253 79.4991 79.6322 79.7499 80.8931C80.0007 82.154 80.6198 83.3122 81.5288 84.2212C82.4379 85.1302 83.596 85.7493 84.8569 86.0001C86.1178 86.2509 87.4247 86.1222 88.6125 85.6302C89.8002 85.1383 90.8153 84.3051 91.5296 83.2362C92.2438 82.1673 92.625 80.9106 92.625 79.625C92.625 77.9011 91.9402 76.2478 90.7212 75.0288C89.5022 73.8098 87.8489 73.125 86.125 73.125ZM86.125 82.875C85.4822 82.875 84.8539 82.6844 84.3194 82.3273C83.7849 81.9702 83.3684 81.4626 83.1224 80.8687C82.8764 80.2749 82.8121 79.6214 82.9375 78.991C83.0629 78.3605 83.3724 77.7814 83.8269 77.3269C84.2814 76.8724 84.8605 76.5629 85.491 76.4375C86.1214 76.312 86.7749 76.3764 87.3687 76.6224C87.9626 76.8684 88.4702 77.2849 88.8273 77.8194C89.1844 78.3539 89.375 78.9822 89.375 79.625C89.375 80.487 89.0326 81.3136 88.4231 81.9231C87.8136 82.5326 86.987 82.875 86.125 82.875Z" fill="#2950A3"/>
<path d="M99.515 74.7988L98.4263 74.5225L99.0113 73.5638C99.1971 73.2533 99.2741 72.8897 99.2299 72.5306C99.1858 72.1715 99.023 71.8374 98.7675 71.5812L94.1688 66.9825C93.9109 66.7299 93.577 66.5692 93.2188 66.5252C92.8605 66.4811 92.4977 66.5562 92.1863 66.7388L91.2275 67.3238L90.9513 66.235C90.8642 65.8827 90.6616 65.5697 90.376 65.3459C90.0903 65.122 89.7379 65.0003 89.375 65H82.875C82.5121 65.0003 82.1597 65.122 81.874 65.3459C81.5884 65.5697 81.3858 65.8827 81.2988 66.235L81.2338 66.4787C81.1936 64.6396 80.5288 62.8688 79.3488 61.4575L81.705 59.1175C84.4525 59.8637 87.3484 59.8704 90.0994 59.137C92.8504 58.4036 95.3586 56.9562 97.37 54.9413C99.2086 53.1213 100.533 50.8474 101.21 48.3503C101.886 45.8532 101.89 43.2216 101.221 40.7225C101.155 40.4637 101.025 40.2256 100.844 40.0298C100.662 39.834 100.434 39.6867 100.181 39.6012C99.9308 39.5187 99.6642 39.4977 99.4039 39.5401C99.1437 39.5826 98.8975 39.6871 98.6863 39.845L90.6263 45.89L85.735 40.9987L91.78 32.9388C91.9379 32.7275 92.0424 32.4813 92.0849 32.2211C92.1273 31.9608 92.1063 31.6942 92.0238 31.4438C91.9384 31.1907 91.791 30.963 91.5952 30.7813C91.3994 30.5997 91.1613 30.4699 90.9025 30.4037C88.4034 29.735 85.7718 29.739 83.2747 30.4153C80.7776 31.0917 78.5037 32.4164 76.6838 34.255C72.3938 38.545 70.6875 45.0775 72.4588 49.9688L63.9438 58.5H63.9113L58.5 54.4375V50.635C61.141 49.4782 63.4275 47.6412 65.1262 45.3116C66.8249 42.9819 67.8749 40.2432 68.1688 37.375H68.25C69.5417 37.3711 70.7795 36.8563 71.6929 35.9429C72.6063 35.0295 73.1211 33.7917 73.125 32.5V30.875C73.1211 29.5833 72.6063 28.3455 71.6929 27.4321C70.7795 26.5187 69.5417 26.0039 68.25 26V25.545C69.7493 24.501 70.9751 23.1113 71.8236 21.4934C72.6722 19.8755 73.1186 18.0769 73.125 16.25V4.875C73.125 4.44402 72.9538 4.0307 72.6491 3.72595C72.3443 3.4212 71.931 3.25 71.5 3.25H45.5C41.6231 3.25602 37.9066 4.79879 35.1652 7.54021C32.4238 10.2816 30.881 13.9981 30.875 17.875V21.125C30.877 22.1769 31.1338 23.2127 31.6234 24.1437C32.113 25.0748 32.8208 25.8734 33.6863 26.4713C32.8481 26.8629 32.1387 27.4849 31.6409 28.2647C31.1431 29.0445 30.8774 29.9499 30.875 30.875V32.5C30.8789 33.7917 31.3937 35.0295 32.3071 35.9429C33.2205 36.8563 34.4583 37.3711 35.75 37.375H35.8313C36.1252 40.2432 37.1751 42.9819 38.8738 45.3116C40.5725 47.6412 42.8591 49.4782 45.5 50.635V54.4375L40.3813 58.2725L25.805 42.6237L18.9475 33.475C18.7718 33.2493 18.5429 33.0706 18.2813 32.955L10.2375 29.51C9.93952 29.382 9.61005 29.3461 9.2915 29.4069C8.97295 29.4678 8.67988 29.6225 8.45 29.8513L3.85125 34.45C3.62249 34.6799 3.46776 34.9729 3.40694 35.2915C3.34613 35.6101 3.38202 35.9395 3.51 36.2375L6.955 44.2812C7.07061 44.5429 7.24927 44.7718 7.475 44.9475L16.6238 51.805L25.7888 60.3363C24.8663 61.0767 24.1176 62.0105 23.5954 63.0719C23.0731 64.1332 22.7901 65.2961 22.7663 66.4787L22.7013 66.235C22.6142 65.8827 22.4116 65.5697 22.126 65.3459C21.8403 65.122 21.4879 65.0003 21.125 65H14.625C14.2621 65.0003 13.9097 65.122 13.624 65.3459C13.3384 65.5697 13.1358 65.8827 13.0487 66.235L12.7725 67.3238L11.8138 66.7388C11.5022 66.5567 11.1395 66.482 10.7814 66.526C10.4232 66.57 10.0894 66.7304 9.83125 66.9825L5.2325 71.5812C4.97992 71.8391 4.81921 72.173 4.77515 72.5312C4.7311 72.8895 4.80616 73.2524 4.98875 73.5638L5.57375 74.5225L4.485 74.7988C4.1327 74.8858 3.81968 75.0884 3.59586 75.374C3.37204 75.6597 3.25028 76.0121 3.25 76.375V82.875C3.25028 83.2379 3.37204 83.5903 3.59586 83.876C3.81968 84.1616 4.1327 84.3642 4.485 84.4512L5.57375 84.7275L4.98875 85.6862C4.80287 85.9967 4.72591 86.3603 4.77006 86.7194C4.81421 87.0785 4.97696 87.4126 5.2325 87.6688L9.83125 92.2675C10.0874 92.523 10.4215 92.6858 10.7806 92.7299C11.1397 92.7741 11.5033 92.6971 11.8138 92.5113L12.7725 91.9262L13.0487 93.015C13.1358 93.3673 13.3384 93.6803 13.624 93.9041C13.9097 94.128 14.2621 94.2497 14.625 94.25H21.125C21.4879 94.2497 21.8403 94.128 22.126 93.9041C22.4116 93.6803 22.6142 93.3673 22.7013 93.015L22.75 92.82V95.875C22.7539 97.1667 23.2687 98.4045 24.1821 99.3179C25.0955 100.231 26.3333 100.746 27.625 100.75H76.375C77.6667 100.746 78.9045 100.231 79.8179 99.3179C80.7313 98.4045 81.2461 97.1667 81.25 95.875V92.82L81.2988 93.015C81.3858 93.3673 81.5884 93.6803 81.874 93.9041C82.1597 94.128 82.5121 94.2497 82.875 94.25H89.375C89.7379 94.2497 90.0903 94.128 90.376 93.9041C90.6616 93.6803 90.8642 93.3673 90.9513 93.015L91.2275 91.9262L92.1863 92.5113C92.4967 92.6971 92.8603 92.7741 93.2194 92.7299C93.5785 92.6858 93.9126 92.523 94.1688 92.2675L98.7675 87.6688C99.023 87.4126 99.1858 87.0785 99.2299 86.7194C99.2741 86.3603 99.1971 85.9967 99.0113 85.6862L98.4263 84.7275L99.515 84.4512C99.8673 84.3642 100.18 84.1616 100.404 83.876C100.628 83.5903 100.75 83.2379 100.75 82.875V76.375C100.75 76.0121 100.628 75.6597 100.404 75.374C100.18 75.0884 99.8673 74.8858 99.515 74.7988ZM75.5463 51.4963C75.7875 51.253 75.9457 50.9397 75.9982 50.6012C76.0507 50.2626 75.9949 49.9162 75.8388 49.6113C73.9863 45.9062 75.3675 40.17 78.9913 36.5625C80.1029 35.4294 81.4387 34.5407 82.9132 33.9531C84.3878 33.3655 85.9687 33.092 87.555 33.15L82.29 40.17C82.0534 40.4827 81.9379 40.8705 81.9648 41.2617C81.9917 41.653 82.1591 42.0213 82.4363 42.2988L89.3263 49.1888C89.6037 49.4659 89.972 49.6333 90.3633 49.6602C90.7545 49.6871 91.1423 49.5716 91.455 49.335L98.475 44.07C98.5315 45.6561 98.2573 47.2366 97.6698 48.7109C97.0823 50.1853 96.1944 51.5212 95.0625 52.6338C93.3845 54.3345 91.2611 55.5277 88.9359 56.0767C86.6106 56.6257 84.1777 56.5081 81.9163 55.7375C81.6183 55.6095 81.2888 55.5736 80.9703 55.6344C80.6517 55.6953 80.3586 55.85 80.1288 56.0787L76.7975 59.4263C75.6653 58.8276 74.4057 58.5099 73.125 58.5H68.5263L75.5463 51.4963ZM69.875 30.875V32.5C69.875 32.931 69.7038 33.3443 69.3991 33.649C69.0943 33.9538 68.681 34.125 68.25 34.125V29.25C68.681 29.25 69.0943 29.4212 69.3991 29.726C69.7038 30.0307 69.875 30.444 69.875 30.875ZM35.75 34.125C35.319 34.125 34.9057 33.9538 34.601 33.649C34.2962 33.3443 34.125 32.931 34.125 32.5V30.875C34.125 30.444 34.2962 30.0307 34.601 29.726C34.9057 29.4212 35.319 29.25 35.75 29.25V34.125ZM35.75 22.75V23.92C35.2575 23.6379 34.848 23.2311 34.5627 22.7404C34.2774 22.2497 34.1265 21.6926 34.125 21.125V17.875C34.1284 14.8592 35.328 11.9679 37.4605 9.83546C39.5929 7.70298 42.4842 6.50344 45.5 6.5H69.875V16.25C69.8711 18.2434 69.1303 20.1649 67.795 21.645C67.5954 21.4238 67.3356 21.2657 67.0475 21.19L57.8825 18.6875C57.5451 18.5922 57.1856 18.6105 56.8596 18.7398C56.5336 18.869 56.2592 19.1019 56.0788 19.4025C55.6086 20.1997 54.991 20.9001 54.2588 21.4662C53.1633 22.2793 51.8957 22.8297 50.5538 23.075C51.4046 21.5185 51.8986 19.7922 52 18.0212C52.0204 17.7959 51.9934 17.5687 51.921 17.3544C51.8485 17.14 51.732 16.9432 51.579 16.7764C51.426 16.6097 51.2399 16.4767 51.0326 16.3861C50.8253 16.2954 50.6013 16.2491 50.375 16.25H48.75C48.5322 16.2507 48.3167 16.2949 48.1163 16.38L36.7413 21.255C36.4475 21.3794 36.1969 21.5875 36.0207 21.8533C35.8444 22.1192 35.7503 22.431 35.75 22.75ZM39 35.75V23.8225L48.425 19.7925C48.2748 20.4649 47.981 21.0968 47.5638 21.645C47.2991 21.9077 47.0167 22.152 46.7188 22.3763C46.2853 22.6114 45.94 22.981 45.7348 23.4294C45.5297 23.8779 45.4758 24.3808 45.5813 24.8625C45.7003 25.2064 45.9042 25.5148 46.174 25.7591C46.4439 26.0034 46.7709 26.1756 47.125 26.26C48.7122 26.5382 50.3398 26.4854 51.9058 26.1051C53.4717 25.7248 54.9421 25.0252 56.225 24.05C56.9508 23.4975 57.5962 22.8467 58.1425 22.1162L65 23.985V35.75C65 39.1978 63.6304 42.5044 61.1924 44.9424C58.7544 47.3804 55.4478 48.75 52 48.75C48.5522 48.75 45.2456 47.3804 42.8076 44.9424C40.3696 42.5044 39 39.1978 39 35.75ZM48.1 56.55C48.3005 56.3974 48.4634 56.2009 48.5761 55.9755C48.6888 55.7502 48.7483 55.502 48.75 55.25V51.675C50.895 52.1083 53.105 52.1083 55.25 51.675V55.25C55.2517 55.502 55.3112 55.7502 55.4239 55.9755C55.5366 56.2009 55.6995 56.3974 55.9 56.55L60.4175 59.9463L52 64.7562L43.5825 59.9463L48.1 56.55ZM9.7825 42.6075L6.93875 35.9775L9.9775 32.9388L16.6075 35.7825L22.3925 43.485L17.485 48.3925L9.7825 42.6075ZM19.9875 50.4888L24.4888 45.9875L36.14 58.5H30.875C30.1999 58.5087 29.5284 58.6015 28.8763 58.7762L19.9875 50.4888ZM22.7663 88.01C22.5463 87.8826 22.3 87.8075 22.0464 87.7906C21.7928 87.7737 21.5387 87.8154 21.3038 87.9125C21.0692 88.0097 20.8604 88.1601 20.694 88.3519C20.5276 88.5437 20.4081 88.7716 20.345 89.0175L19.8575 91H15.8925L15.405 89.0175C15.3419 88.7716 15.2224 88.5437 15.056 88.3519C14.8896 88.1601 14.6808 88.0097 14.4463 87.9125C14.2113 87.8154 13.9572 87.7737 13.7036 87.7906C13.45 87.8075 13.2037 87.8826 12.9838 88.01L11.2288 89.0663L8.43375 86.2712L9.49 84.5163C9.61741 84.2963 9.69248 84.05 9.70938 83.7964C9.72629 83.5428 9.68459 83.2887 9.5875 83.0537C9.49033 82.8192 9.33989 82.6104 9.14811 82.444C8.95632 82.2776 8.72844 82.1581 8.4825 82.095L6.5 81.6075V77.6425L8.4825 77.155C8.72844 77.0919 8.95632 76.9724 9.14811 76.806C9.33989 76.6396 9.49033 76.4308 9.5875 76.1963C9.68459 75.9613 9.72629 75.7072 9.70938 75.4536C9.69248 75.2 9.61741 74.9537 9.49 74.7337L8.43375 72.9788L11.2288 70.1837L12.9838 71.2238C13.201 71.3574 13.447 71.4374 13.7013 71.4572C13.9556 71.477 14.2109 71.436 14.4463 71.3375C14.6808 71.2403 14.8896 71.0899 15.056 70.8981C15.2224 70.7063 15.3419 70.4784 15.405 70.2325L15.8925 68.25H19.8575L20.345 70.2325C20.4081 70.4784 20.5276 70.7063 20.694 70.8981C20.8604 71.0899 21.0692 71.2403 21.3038 71.3375C21.5391 71.436 21.7944 71.477 22.0487 71.4572C22.303 71.4374 22.549 71.3574 22.7663 71.2238L24.5213 70.1837L27.3163 72.9788L26.26 74.7337C26.1326 74.9537 26.0575 75.2 26.0406 75.4536C26.0237 75.7072 26.0654 75.9613 26.1625 76.1963C26.2597 76.4308 26.4101 76.6396 26.6019 76.806C26.7937 76.9724 27.0216 77.0919 27.2675 77.155L29.25 77.6425V81.6075L27.2675 82.095C27.0216 82.1581 26.7937 82.2776 26.6019 82.444C26.4101 82.6104 26.2597 82.8192 26.1625 83.0537C26.0654 83.2887 26.0237 83.5428 26.0406 83.7964C26.0575 84.05 26.1326 84.2963 26.26 84.5163L27.3163 86.2712L24.5213 89.0663L22.7663 88.01ZM54.8113 97.5H49.1888C48.9022 97.006 48.7509 96.4453 48.75 95.8742C48.7491 95.3032 48.8987 94.742 49.1838 94.2471C49.4688 93.7523 49.8792 93.3413 50.3736 93.0555C50.868 92.7697 51.4289 92.6192 52 92.6192C52.5711 92.6192 53.132 92.7697 53.6264 93.0555C54.1208 93.3413 54.5312 93.7523 54.8162 94.2471C55.1013 94.742 55.2509 95.3032 55.25 95.8742C55.2491 96.4453 55.0978 97.006 54.8113 97.5ZM63.375 97.5H58.2725C58.4129 96.9694 58.4893 96.4238 58.5 95.875C58.5 94.1511 57.8152 92.4978 56.5962 91.2788C55.3772 90.0598 53.7239 89.375 52 89.375C50.2761 89.375 48.6228 90.0598 47.4038 91.2788C46.1848 92.4978 45.5 94.1511 45.5 95.875C45.5107 96.4238 45.5871 96.9694 45.7275 97.5H40.625V93.8925L42.6075 93.405C42.8547 93.3446 43.0839 93.2262 43.2761 93.0594C43.4683 92.8927 43.6179 92.6824 43.7125 92.4463C43.8093 92.2141 43.8509 91.9626 43.8339 91.7116C43.817 91.4607 43.7421 91.2171 43.615 91L42.5588 89.245L45.37 86.4337L47.125 87.49C47.3405 87.6212 47.5845 87.6985 47.8362 87.7155C48.0879 87.7324 48.3401 87.6886 48.5713 87.5875C48.8074 87.4929 49.0177 87.3433 49.1844 87.1511C49.3512 86.9589 49.4696 86.7297 49.53 86.4825L50.0175 84.5H53.9825L54.47 86.4825C54.5304 86.7297 54.6488 86.9589 54.8156 87.1511C54.9823 87.3433 55.1926 87.4929 55.4288 87.5875C55.6609 87.6843 55.9124 87.7259 56.1634 87.7089C56.4143 87.692 56.6579 87.6171 56.875 87.49L58.63 86.4337L61.4413 89.245L60.385 91C60.2579 91.2171 60.183 91.4607 60.1661 91.7116C60.1491 91.9626 60.1907 92.2141 60.2875 92.4463C60.3821 92.6824 60.5317 92.8927 60.7239 93.0594C60.9161 93.2262 61.1453 93.3446 61.3925 93.405L63.375 93.8925V97.5ZM78 95.875C78 96.306 77.8288 96.7193 77.5241 97.024C77.2193 97.3288 76.806 97.5 76.375 97.5H66.625V92.625C66.6247 92.2621 66.503 91.9097 66.2791 91.624C66.0553 91.3384 65.7423 91.1358 65.39 91.0488L64.3013 90.7725L64.8863 89.8138C65.0683 89.5022 65.1431 89.1395 65.099 88.7814C65.055 88.4232 64.8946 88.0894 64.6425 87.8312L60.0438 83.2325C59.7856 82.9804 59.4518 82.82 59.0936 82.776C58.7355 82.7319 58.3728 82.8067 58.0613 82.9887L57.1025 83.5738L56.8263 82.485C56.7392 82.1327 56.5366 81.8197 56.251 81.5959C55.9653 81.372 55.6129 81.2503 55.25 81.25H48.75C48.3871 81.2503 48.0347 81.372 47.749 81.5959C47.4634 81.8197 47.2609 82.1327 47.1738 82.485L46.8975 83.5738L45.9388 82.9887C45.6272 82.8067 45.2645 82.7319 44.9064 82.776C44.5482 82.82 44.2144 82.9804 43.9563 83.2325L39.3575 87.8312C39.1054 88.0894 38.945 88.4232 38.901 88.7814C38.857 89.1395 38.9317 89.5022 39.1138 89.8138L39.6988 90.7725L38.61 91.0488C38.2577 91.1358 37.9447 91.3384 37.7209 91.624C37.497 91.9097 37.3753 92.2621 37.375 92.625V97.5H27.625C27.194 97.5 26.7807 97.3288 26.476 97.024C26.1712 96.7193 26 96.306 26 95.875V92.1862L30.5175 87.6688C30.7701 87.4109 30.9308 87.077 30.9748 86.7188C31.0189 86.3605 30.9438 85.9976 30.7613 85.6862L30.1763 84.7275L31.265 84.4512C31.6173 84.3642 31.9303 84.1616 32.1541 83.876C32.378 83.5903 32.4997 83.2379 32.5 82.875V76.375C32.4997 76.0121 32.378 75.6597 32.1541 75.374C31.9303 75.0884 31.6173 74.8858 31.265 74.7988L30.1763 74.5225L30.7613 73.5638C30.9471 73.2533 31.0241 72.8897 30.9799 72.5306C30.9358 72.1715 30.773 71.8374 30.5175 71.5812L26 67.0638V66.625C26.0039 65.3333 26.5187 64.0955 27.4321 63.1821C28.3455 62.2687 29.5833 61.7539 30.875 61.75H40.1863L51.1875 68.0387C51.4367 68.1747 51.7161 68.246 52 68.246C52.2839 68.246 52.5633 68.1747 52.8125 68.0387L63.8138 61.75H73.125C74.4167 61.7539 75.6545 62.2687 76.5679 63.1821C77.4813 64.0955 77.9961 65.3333 78 66.625V67.0638L73.4825 71.5812C73.227 71.8374 73.0642 72.1715 73.0201 72.5306C72.9759 72.8897 73.0529 73.2533 73.2388 73.5638L73.8238 74.5225L72.735 74.7988C72.3827 74.8858 72.0697 75.0884 71.8459 75.374C71.622 75.6597 71.5003 76.0121 71.5 76.375V82.875C71.5003 83.2379 71.622 83.5903 71.8459 83.876C72.0697 84.1616 72.3827 84.3642 72.735 84.4512L73.8238 84.7275L73.2388 85.6862C73.0529 85.9967 72.9759 86.3603 73.0201 86.7194C73.0642 87.0785 73.227 87.4126 73.4825 87.6688L78 92.1862V95.875ZM97.5 81.6075L95.5175 82.095C95.2716 82.1581 95.0437 82.2776 94.8519 82.444C94.6601 82.6104 94.5097 82.8192 94.4125 83.0537C94.3154 83.2887 94.2737 83.5428 94.2906 83.7964C94.3075 84.05 94.3826 84.2963 94.51 84.5163L95.5663 86.2712L92.7713 89.0663L91.0163 88.01C90.7963 87.8826 90.55 87.8075 90.2964 87.7906C90.0428 87.7737 89.7887 87.8154 89.5538 87.9125C89.3192 88.0097 89.1104 88.1601 88.944 88.3519C88.7776 88.5437 88.6581 88.7716 88.595 89.0175L88.1075 91H84.1425L83.655 89.0175C83.5919 88.7716 83.4724 88.5437 83.306 88.3519C83.1396 88.1601 82.9308 88.0097 82.6963 87.9125C82.4613 87.8154 82.2072 87.7737 81.9536 87.7906C81.7 87.8075 81.4537 87.8826 81.2338 88.01L79.4788 89.0663L76.6838 86.2712L77.74 84.5163C77.8674 84.2963 77.9425 84.05 77.9594 83.7964C77.9763 83.5428 77.9346 83.2887 77.8375 83.0537C77.7403 82.8192 77.5899 82.6104 77.3981 82.444C77.2063 82.2776 76.9784 82.1581 76.7325 82.095L74.75 81.6075V77.6425L76.7325 77.155C76.9784 77.0919 77.2063 76.9724 77.3981 76.806C77.5899 76.6396 77.7403 76.4308 77.8375 76.1963C77.9346 75.9613 77.9763 75.7072 77.9594 75.4536C77.9425 75.2 77.8674 74.9537 77.74 74.7337L76.6838 72.9788L79.4788 70.1837L81.2338 71.2238C81.451 71.3574 81.697 71.4374 81.9513 71.4572C82.2056 71.477 82.4609 71.436 82.6963 71.3375C82.9308 71.2403 83.1396 71.0899 83.306 70.8981C83.4724 70.7063 83.5919 70.4784 83.655 70.2325L84.1425 68.25H88.1075L88.595 70.2325C88.6581 70.4784 88.7776 70.7063 88.944 70.8981C89.1104 71.0899 89.3192 71.2403 89.5538 71.3375C89.7891 71.436 90.0444 71.477 90.2987 71.4572C90.553 71.4374 90.799 71.3574 91.0163 71.2238L92.7713 70.1837L95.5663 72.9788L94.51 74.7337C94.3826 74.9537 94.3075 75.2 94.2906 75.4536C94.2737 75.7072 94.3154 75.9613 94.4125 76.1963C94.5097 76.4308 94.6601 76.6396 94.8519 76.806C95.0437 76.9724 95.2716 77.0919 95.5175 77.155L97.5 77.6425V81.6075Z" fill="#2950A3"/>
<path d="M17.875 73.125C16.5894 73.125 15.3327 73.5062 14.2638 74.2204C13.1949 74.9347 12.3618 75.9498 11.8698 77.1376C11.3778 78.3253 11.2491 79.6322 11.4999 80.8931C11.7507 82.154 12.3698 83.3122 13.2788 84.2212C14.1878 85.1302 15.346 85.7493 16.6069 86.0001C17.8678 86.2509 19.1747 86.1222 20.3624 85.6302C21.5502 85.1383 22.5653 84.3051 23.2796 83.2362C23.9938 82.1673 24.375 80.9106 24.375 79.625C24.375 77.9011 23.6902 76.2478 22.4712 75.0288C21.2522 73.8098 19.5989 73.125 17.875 73.125ZM17.875 82.875C17.2322 82.875 16.6039 82.6844 16.0694 82.3273C15.5349 81.9702 15.1184 81.4626 14.8724 80.8687C14.6264 80.2749 14.562 79.6214 14.6875 78.991C14.8129 78.3605 15.1224 77.7814 15.5769 77.3269C16.0314 76.8724 16.6105 76.5629 17.241 76.4375C17.8714 76.312 18.5249 76.3764 19.1187 76.6224C19.7126 76.8684 20.2202 77.2849 20.5773 77.8194C20.9344 78.3539 21.125 78.9822 21.125 79.625C21.125 80.487 20.7826 81.3136 20.1731 81.9231C19.5636 82.5326 18.737 82.875 17.875 82.875Z" fill="#2950A3"/>
</svg>
