<svg width="215" height="170" viewBox="0 0 215 170" fill="none" xmlns="http://www.w3.org/2000/svg">
<path d="M7.81931 86.629H0.95601L11.0441 115.852H19.006L29.0798 86.629H22.2308L15.1535 108.831H14.8824L7.81931 86.629ZM30.273 115.852H36.3515V93.9347H30.273V115.852ZM33.3265 91.1095C35.1386 91.1095 36.6226 89.7254 36.6226 88.0274C36.6226 86.3437 35.1386 84.9596 33.3265 84.9596C31.5286 84.9596 30.0447 86.3437 30.0447 88.0274C30.0447 89.7254 31.5286 91.1095 33.3265 91.1095ZM57.2463 100.184C56.7041 96.1463 53.4508 93.6493 47.9145 93.6493C42.3069 93.6493 38.6112 96.2462 38.6255 100.47C38.6112 103.752 40.6802 105.878 44.9609 106.734L48.7564 107.49C50.6684 107.875 51.5388 108.574 51.5673 109.673C51.5388 110.972 50.1262 111.899 48.0001 111.899C45.8313 111.899 44.3901 110.972 44.0191 109.188L38.0405 109.502C38.6112 113.697 42.1784 116.28 47.9859 116.28C53.6648 116.28 57.7314 113.383 57.7457 109.06C57.7314 105.892 55.6625 103.994 51.4104 103.124L47.4436 102.325C45.4032 101.882 44.6469 101.183 44.6612 100.127C44.6469 98.8146 46.1309 97.9585 48.0144 97.9585C50.1262 97.9585 51.3818 99.1143 51.6815 100.527L57.2463 100.184ZM59.3634 115.852H65.4419V93.9347H59.3634V115.852ZM62.4169 91.1095C64.229 91.1095 65.713 89.7254 65.713 88.0274C65.713 86.3437 64.229 84.9596 62.4169 84.9596C60.619 84.9596 59.1351 86.3437 59.1351 88.0274C59.1351 89.7254 60.619 91.1095 62.4169 91.1095ZM78.0037 116.28C84.653 116.28 88.7909 111.728 88.7909 104.979C88.7909 98.1868 84.653 93.6493 78.0037 93.6493C71.3544 93.6493 67.2165 98.1868 67.2165 104.979C67.2165 111.728 71.3544 116.28 78.0037 116.28ZM78.0322 111.571C74.9645 111.571 73.3949 108.76 73.3949 104.936C73.3949 101.112 74.9645 98.2867 78.0322 98.2867C81.043 98.2867 82.6125 101.112 82.6125 104.936C82.6125 108.76 81.043 111.571 78.0322 111.571ZM96.6119 103.181C96.6262 100.356 98.3099 98.7005 100.764 98.7005C103.204 98.7005 104.674 100.299 104.66 102.981V115.852H110.738V101.897C110.738 96.7884 107.742 93.6493 103.176 93.6493C99.9223 93.6493 97.5679 95.2474 96.5834 97.8015H96.3266V93.9347H90.5334V115.852H96.6119V103.181ZM8.67543 162.265C11.9145 162.265 14.012 160.853 15.0821 158.812H15.2534V161.852H21.0179V147.069C21.0179 141.847 16.5946 139.649 11.7147 139.649C6.46377 139.649 3.01072 142.161 2.16886 146.156L7.79077 146.612C8.20456 145.157 9.50302 144.087 11.6862 144.087C13.7551 144.087 14.9394 145.129 14.9394 146.926V147.012C14.9394 148.425 13.4412 148.61 9.63144 148.981C5.29373 149.381 1.39834 150.836 1.39834 155.73C1.39834 160.068 4.49467 162.265 8.67543 162.265ZM10.4162 158.07C8.54701 158.07 7.20575 157.2 7.20575 155.53C7.20575 153.818 8.61836 152.976 10.7587 152.677C12.0857 152.491 14.2545 152.177 14.9822 151.692V154.018C14.9822 156.315 13.0845 158.07 10.4162 158.07ZM29.6023 149.181C29.6166 146.356 31.3003 144.7 33.7546 144.7C36.1945 144.7 37.6642 146.299 37.65 148.981V161.852H43.7285V147.897C43.7285 142.788 40.732 139.649 36.166 139.649C32.9127 139.649 30.5584 141.247 29.5738 143.802H29.317V139.935H23.5238V161.852H29.6023V149.181ZM54.3854 162.208C57.9241 162.208 59.7647 160.168 60.6066 158.341H60.8634V161.852H66.8563V132.629H60.7921V143.616H60.6066C59.7933 141.832 58.0382 139.649 54.3711 139.649C49.5626 139.649 45.4959 143.388 45.4959 150.922C45.4959 158.256 49.3913 162.208 54.3854 162.208ZM56.3117 157.371C53.3295 157.371 51.7029 154.717 51.7029 150.893C51.7029 147.098 53.301 144.486 56.3117 144.486C59.2653 144.486 60.9205 146.983 60.9205 150.893C60.9205 154.803 59.2368 157.371 56.3117 157.371ZM76.8479 132.629V161.852H82.8408V142.76H83.0834L90.6459 161.709H94.7267L102.289 142.831H102.532V161.852H108.525V132.629H100.905L92.8575 152.263H92.5151L84.4675 132.629H76.8479ZM111.291 161.852H117.369V139.935H111.291V161.852ZM114.344 137.109C116.157 137.109 117.641 135.725 117.641 134.027C117.641 132.344 116.157 130.96 114.344 130.96C112.547 130.96 111.063 132.344 111.063 134.027C111.063 135.725 112.547 137.109 114.344 137.109ZM138.264 146.184C137.722 142.146 134.469 139.649 128.932 139.649C123.325 139.649 119.629 142.246 119.643 146.47C119.629 149.752 121.698 151.878 125.979 152.734L129.774 153.49C131.686 153.875 132.557 154.574 132.585 155.673C132.557 156.972 131.144 157.899 129.018 157.899C126.849 157.899 125.408 156.972 125.037 155.188L119.058 155.502C119.629 159.697 123.196 162.28 129.004 162.28C134.683 162.28 138.749 159.383 138.764 155.06C138.749 151.892 136.68 149.994 132.428 149.124L128.462 148.325C126.421 147.882 125.665 147.183 125.679 146.127C125.665 144.815 127.149 143.958 129.032 143.958C131.144 143.958 132.4 145.114 132.699 146.527L138.264 146.184ZM158.617 146.184C158.075 142.146 154.821 139.649 149.285 139.649C143.677 139.649 139.982 142.246 139.996 146.47C139.982 149.752 142.051 151.878 146.331 152.734L150.127 153.49C152.039 153.875 152.909 154.574 152.938 155.673C152.909 156.972 151.497 157.899 149.371 157.899C147.202 157.899 145.761 156.972 145.39 155.188L139.411 155.502C139.982 159.697 143.549 162.28 149.356 162.28C155.035 162.28 159.102 159.383 159.116 155.06C159.102 151.892 157.033 149.994 152.781 149.124L148.814 148.325C146.774 147.882 146.018 147.183 146.032 146.127C146.018 144.815 147.501 143.958 149.385 143.958C151.497 143.958 152.752 145.114 153.052 146.527L158.617 146.184ZM160.734 161.852H166.812V139.935H160.734V161.852ZM163.787 137.109C165.6 137.109 167.084 135.725 167.084 134.027C167.084 132.344 165.6 130.96 163.787 130.96C161.99 130.96 160.506 132.344 160.506 134.027C160.506 135.725 161.99 137.109 163.787 137.109ZM179.374 162.28C186.024 162.28 190.162 157.728 190.162 150.979C190.162 144.187 186.024 139.649 179.374 139.649C172.725 139.649 168.587 144.187 168.587 150.979C168.587 157.728 172.725 162.28 179.374 162.28ZM179.403 157.571C176.335 157.571 174.765 154.76 174.765 150.936C174.765 147.112 176.335 144.287 179.403 144.287C182.414 144.287 183.983 147.112 183.983 150.936C183.983 154.76 182.414 157.571 179.403 157.571ZM197.983 149.181C197.997 146.356 199.681 144.7 202.135 144.7C204.575 144.7 206.044 146.299 206.03 148.981V161.852H212.109V147.897C212.109 142.788 209.112 139.649 204.546 139.649C201.293 139.649 198.939 141.247 197.954 143.802H197.697V139.935H191.904V161.852H197.983V149.181Z" fill="#2950A3"/>
<path d="M189.54 22.7743C190.422 22.7743 191.273 22.4243 191.9 21.7967L201.146 12.5507C202.382 11.3153 201.577 9.19488 199.836 9.08562L194.916 8.7768L198.127 5.56624C198.665 5.0275 198.665 4.154 198.127 3.61544C197.588 3.0767 196.714 3.0767 196.176 3.61544L192.965 6.826L192.656 1.90578C192.547 0.161909 190.424 -0.637097 189.191 0.595992L179.945 9.84195C179.268 10.519 178.914 11.4554 178.974 12.411L179.292 17.4743C171.575 10.8946 161.63 7.1214 151.095 7.1214C127.038 7.1214 107.568 26.5885 107.568 50.6474C107.568 61.5052 111.589 71.9046 118.89 79.9296C119.403 80.493 120.276 80.5342 120.839 80.0215C121.403 79.5087 121.444 78.6363 120.931 78.0728C114.093 70.5569 110.327 60.8171 110.327 50.6474C110.327 28.1683 128.615 9.88021 151.095 9.88021C161.629 9.88021 171.541 13.9175 178.956 20.8351L172.661 27.1295C166.969 21.9041 159.389 18.7064 151.095 18.7064C133.482 18.7064 119.154 33.035 119.154 50.6472C119.154 55.716 120.377 60.7648 122.69 65.248C122.691 65.2482 122.691 65.2484 122.691 65.2486C128.052 75.6373 138.85 82.588 151.095 82.588C166.183 82.588 179.305 71.931 182.372 57.1415C182.527 56.3955 182.047 55.6653 181.301 55.5106C180.555 55.3559 179.825 55.8352 179.67 56.5813C176.877 70.0518 164.859 79.829 151.095 79.829C140.131 79.829 130.186 73.7571 125.143 63.9833C125.143 63.9831 125.142 63.9829 125.142 63.9827C123 59.8304 121.913 55.3438 121.913 50.6472C121.913 34.5563 135.004 21.4654 151.095 21.4654C158.63 21.4654 165.52 24.3536 170.711 29.0797L164.473 35.3182C160.892 32.1899 156.211 30.2917 151.095 30.2917C139.871 30.2917 130.739 39.423 130.739 50.647C130.739 61.871 139.871 71.0024 151.095 71.0024C162.319 71.0024 171.45 61.871 171.45 50.647C171.45 45.5304 169.552 40.8493 166.424 37.2692L172.662 31.0303C177.352 36.1794 180.233 43.0026 180.276 50.4772C180.28 51.2363 180.897 51.8488 181.655 51.8488H181.663C182.425 51.8444 183.039 51.2233 183.035 50.4614C182.988 42.2332 179.798 34.7263 174.613 29.0792L180.908 22.7842C187.796 30.1488 191.862 40.0024 191.862 50.6468C191.862 73.1264 173.574 91.4146 151.095 91.4146C141.782 91.4146 132.676 88.1932 125.455 82.3439C124.862 81.8646 123.994 81.9556 123.514 82.5475C123.035 83.1396 123.126 84.0083 123.718 84.4878C131.429 90.7338 141.152 94.1736 151.095 94.1736C175.151 94.1736 194.621 74.7064 194.621 50.6474C194.621 41.2276 191.66 32.2625 186.06 24.7216C185.481 23.9408 184.877 23.1839 184.253 22.4487C189.661 22.7885 189.369 22.7743 189.54 22.7743ZM168.691 50.6474C168.691 60.3501 160.797 68.2437 151.095 68.2437C141.392 68.2437 133.498 60.3501 133.498 50.6474C133.498 40.9447 141.392 33.051 151.095 33.051C155.45 33.051 159.441 34.6426 162.517 37.2738L156.24 43.5514C154.793 42.4999 153.016 41.8773 151.095 41.8773C146.259 41.8773 142.324 45.8116 142.324 50.6474C142.324 55.4832 146.259 59.4175 151.095 59.4175C155.931 59.4175 159.865 55.4832 159.865 50.6474C159.865 48.7262 159.242 46.9487 158.191 45.5024L164.468 39.2248C167.099 42.3009 168.691 46.2915 168.691 50.6474ZM150.119 51.623C150.658 52.1617 151.531 52.1617 152.07 51.623L156.205 47.4878C156.775 48.4065 157.106 49.489 157.106 50.6476C157.106 53.9622 154.409 56.6587 151.094 56.6587C147.78 56.6587 145.083 53.962 145.083 50.6476C145.083 47.3331 147.78 44.6364 151.094 44.6364C152.253 44.6364 153.335 44.9668 154.254 45.5368L150.119 49.6722C149.58 50.2107 149.58 51.0842 150.119 51.623ZM181.728 12.2381C181.717 12.0723 181.779 11.9099 181.896 11.7928L190.004 3.68552L190.364 9.42719L182.072 17.7193L181.728 12.2381ZM184.023 19.6701L192.315 11.378L198.057 11.7383L189.949 19.8457C189.832 19.9631 189.668 20.0254 189.504 20.014L184.023 19.6701Z" fill="#2950A3"/>
</svg>
